<svg width="345" height="268" viewBox="0 0 345 268" fill="none" xmlns="http://www.w3.org/2000/svg">
<g clip-path="url(#clip0)">
<g opacity="0.8">
<path opacity="0.8" d="M314.748 253.535H17.8507V61.5066C17.8507 59.9004 18.4888 58.36 19.6245 57.2243C20.7602 56.0886 22.3006 55.4506 23.9067 55.4506H308.692C310.298 55.4506 311.838 56.0886 312.974 57.2243C314.11 58.36 314.748 59.9004 314.748 61.5066V253.535Z" fill="url(#paint0_linear)"/>
</g>
<path d="M27.98 58.939H304.597C306.203 58.939 307.744 59.577 308.879 60.7127C310.015 61.8484 310.653 63.3888 310.653 64.995V253.536H21.9394V64.9988C21.9384 63.3946 22.5739 61.8556 23.7064 60.7195C24.8389 59.5834 26.3759 58.943 27.98 58.939Z" fill="white"/>
<path d="M301.359 70.2612H31.2345V247.437H301.359V70.2612Z" fill="#F5F5F5"/>
<path opacity="0.8" d="M301.248 78.8622H32.2695V238.265H301.248V78.8622Z" fill="#E0E0E0"/>
<path d="M301.248 70.3915H32.2695V78.8622H301.248V70.3915Z" fill="#F5F5F5"/>
<path d="M38.0386 76.5547C39.1732 76.5547 40.093 75.6349 40.093 74.5002C40.093 73.3656 39.1732 72.4458 38.0386 72.4458C36.9039 72.4458 35.9841 73.3656 35.9841 74.5002C35.9841 75.6349 36.9039 76.5547 38.0386 76.5547Z" fill="#FF5252"/>
<path d="M43.6833 76.5547C44.8179 76.5547 45.7377 75.6349 45.7377 74.5002C45.7377 73.3656 44.8179 72.4458 43.6833 72.4458C42.5487 72.4458 41.6289 73.3656 41.6289 74.5002C41.6289 75.6349 42.5487 76.5547 43.6833 76.5547Z" fill="#FFFF00"/>
<path d="M49.3338 76.5547C50.4684 76.5547 51.3882 75.6349 51.3882 74.5002C51.3882 73.3656 50.4684 72.4458 49.3338 72.4458C48.1991 72.4458 47.2793 73.3656 47.2793 74.5002C47.2793 75.6349 48.1991 76.5547 49.3338 76.5547Z" fill="#69F0AE"/>
<g opacity="0.8">
<path opacity="0.8" d="M323.052 266.268C306.525 267.522 22.6982 267.035 12.7824 266.268C-0.218781 260.002 0.0188579 235.686 0.0188579 235.686L130.184 234.816L130.621 242.217H186.321L188.498 235.701H332.746C332.746 235.701 335.613 257.993 323.052 266.268Z" fill="url(#paint1_linear)"/>
</g>
<path d="M330.633 237.644H189.199C189.744 238.274 190.096 239.048 190.213 239.873C190.33 240.697 190.208 241.538 189.861 242.296C189.513 243.053 188.955 243.694 188.253 244.143C187.552 244.592 186.736 244.829 185.903 244.827H131.905C131.072 244.829 130.255 244.592 129.554 244.143C128.852 243.694 128.294 243.053 127.946 242.296C127.599 241.538 127.477 240.697 127.594 239.873C127.711 239.048 128.063 238.274 128.608 237.644H1.95748C1.95748 237.644 1.73901 258.76 14.5831 264.218C24.3762 264.869 304.734 265.306 321.059 264.218C333.481 257.016 330.633 237.644 330.633 237.644Z" fill="#F5F5F5"/>
<path d="M31.3457 243.957C32.3068 243.957 33.0859 243.178 33.0859 242.217C33.0859 241.256 32.3068 240.477 31.3457 240.477C30.3847 240.477 29.6056 241.256 29.6056 242.217C29.6056 243.178 30.3847 243.957 31.3457 243.957Z" fill="#E0E0E0"/>
<path d="M36.5708 243.957C37.5318 243.957 38.3109 243.178 38.3109 242.217C38.3109 241.256 37.5318 240.477 36.5708 240.477C35.6097 240.477 34.8306 241.256 34.8306 242.217C34.8306 243.178 35.6097 243.957 36.5708 243.957Z" fill="#E0E0E0"/>
<path d="M41.7901 243.957C42.7511 243.957 43.5302 243.178 43.5302 242.217C43.5302 241.256 42.7511 240.477 41.7901 240.477C40.829 240.477 40.0499 241.256 40.0499 242.217C40.0499 243.178 40.829 243.957 41.7901 243.957Z" fill="#E0E0E0"/>
<path d="M160.936 144.06H173.274C187.455 144.06 201.055 149.693 211.083 159.721C221.11 169.748 226.743 183.348 226.743 197.529V236.399H107.467V197.529C107.467 183.348 113.1 169.748 123.128 159.721C133.155 149.693 146.755 144.06 160.936 144.06Z" fill="black"/>
<path d="M167.222 123.27C197.328 123.27 221.734 98.8644 221.734 68.7584C221.734 38.6525 197.328 14.2468 167.222 14.2468C137.116 14.2468 112.711 38.6525 112.711 68.7584C112.711 98.8644 137.116 123.27 167.222 123.27Z" fill="#333333"/>
<path opacity="0.1" d="M159.196 128.184H174.961C177.909 128.184 180.736 129.355 182.82 131.44C184.905 133.524 186.076 136.352 186.076 139.3V150.131C186.076 154.639 184.286 158.961 181.098 162.149C177.911 165.336 173.588 167.126 169.081 167.126H165.06C160.553 167.126 156.23 165.336 153.043 162.149C149.856 158.961 148.065 154.639 148.065 150.131V139.315C148.065 136.367 149.236 133.54 151.321 131.455C153.405 129.371 156.233 128.199 159.181 128.199L159.196 128.184Z" fill="black"/>
<path d="M148.065 127.072H186.095V149.035C186.095 153.542 184.305 157.865 181.118 161.052C177.93 164.239 173.608 166.03 169.1 166.03H165.06C160.553 166.03 156.23 164.239 153.043 161.052C149.856 157.865 148.065 153.542 148.065 149.035V127.072Z" fill="#FDB797"/>
<path opacity="0.1" d="M148.134 132.557C160.391 137.136 173.882 137.173 186.164 132.661V127.992H148.134V132.557Z" fill="black"/>
<path d="M167.222 135.102C197.328 135.102 221.734 110.697 221.734 80.5907C221.734 50.4848 197.328 26.0791 167.222 26.0791C137.116 26.0791 112.711 50.4848 112.711 80.5907C112.711 110.697 137.116 135.102 167.222 135.102Z" fill="#FDB797"/>
<path opacity="0.1" d="M115.106 61.2958H219.055C219.055 61.2958 210.181 19.3217 170.883 21.9779C131.584 24.6341 115.106 61.2958 115.106 61.2958Z" fill="black"/>
<path d="M115.106 59.8853H219.055C219.055 59.8853 210.181 17.9112 170.883 20.5865C131.584 23.2619 115.106 59.8853 115.106 59.8853Z" fill="#333333"/>
<path d="M113.837 87.7776C116.638 87.7776 118.908 83.52 118.908 78.2681C118.908 73.0162 116.638 68.7587 113.837 68.7587C111.036 68.7587 108.766 73.0162 108.766 78.2681C108.766 83.52 111.036 87.7776 113.837 87.7776Z" fill="#FDB797"/>
<path d="M220.323 87.7776C223.124 87.7776 225.394 83.52 225.394 78.2681C225.394 73.0162 223.124 68.7587 220.323 68.7587C217.523 68.7587 215.252 73.0162 215.252 78.2681C215.252 83.52 217.523 87.7776 220.323 87.7776Z" fill="#FDB797"/>
<path d="M123.175 32.0737C124.421 28.0032 126.686 24.1128 130.182 21.6866C132.838 19.8429 136.015 18.9575 139.063 17.8767C143.571 16.279 147.898 14.2093 151.972 11.7018C156.594 8.85399 160.937 5.42354 166.027 3.54158C174.785 0.302776 184.54 2.05441 193.582 4.37716C195.809 4.94826 198.063 5.56919 200.025 6.77272C202.298 8.16407 204.042 10.2568 205.744 12.3074L220.094 29.6168C221.409 31.1998 222.731 32.802 223.659 34.6418C224.524 36.4239 225.076 38.3414 225.292 40.3107C225.675 43.4843 225.376 46.8496 223.758 49.6131C221.332 53.7565 216.33 55.8378 211.535 56.0294C206.74 56.2211 202.033 54.8297 197.426 53.4805C182.57 49.1302 167.53 45.075 152.121 43.2697C144.475 42.326 136.758 42.0759 129.066 42.5223C126.652 42.6794 123.463 43.7871 121.995 41.3264C120.726 39.1915 122.52 34.2125 123.175 32.0737Z" fill="#333333"/>
<path opacity="0.05" d="M130.817 194.075V236.398" stroke="black" stroke-width="1.53316" stroke-miterlimit="10"/>
<path opacity="0.05" d="M204.347 194.075V236.398" stroke="black" stroke-width="1.53316" stroke-miterlimit="10"/>
<g opacity="0.8">
<path opacity="0.8" d="M344.999 76.0717H276.597L253.512 95.3206V76.0717H238.123V0H344.999V76.0717Z" fill="url(#paint2_linear)"/>
</g>
<path d="M343.551 0.904785H239.572V73.6495H343.551V0.904785Z" fill="white"/>
<path d="M333.669 11.5986H251.281V13.7604H333.669V11.5986Z" fill="#E0E0E0"/>
<path d="M307.923 21.334H251.281V23.4957H307.923V21.334Z" fill="#E0E0E0"/>
<path d="M319.254 31.0657H251.281V33.2274H319.254V31.0657Z" fill="#E0E0E0"/>
<path d="M305.865 40.8016H251.281V42.9634H305.865V40.8016Z" fill="black"/>
<path d="M333.669 50.5332H251.281V52.695H333.669V50.5332Z" fill="black"/>
<path d="M333.669 60.2687H251.281V62.4304H333.669V60.2687Z" fill="#E0E0E0"/>
<path d="M257.361 72.2353V91.4765L278.522 70.3112L257.361 72.2353Z" fill="white"/>
</g>
<defs>
<linearGradient id="paint0_linear" x1="166.299" y1="253.535" x2="166.299" y2="55.4582" gradientUnits="userSpaceOnUse">
<stop stop-color="#808080" stop-opacity="0.25"/>
<stop offset="0.54" stop-color="#808080" stop-opacity="0.12"/>
<stop offset="1" stop-color="#808080" stop-opacity="0.1"/>
</linearGradient>
<linearGradient id="paint1_linear" x1="194604" y1="25958.1" x2="194604" y2="23250" gradientUnits="userSpaceOnUse">
<stop stop-color="#808080" stop-opacity="0.25"/>
<stop offset="0.54" stop-color="#808080" stop-opacity="0.12"/>
<stop offset="1" stop-color="#808080" stop-opacity="0.1"/>
</linearGradient>
<linearGradient id="paint2_linear" x1="81537.2" y1="23705.3" x2="81537.2" y2="0" gradientUnits="userSpaceOnUse">
<stop stop-color="#808080" stop-opacity="0.25"/>
<stop offset="0.54" stop-color="#808080" stop-opacity="0.12"/>
<stop offset="1" stop-color="#808080" stop-opacity="0.1"/>
</linearGradient>
<clipPath id="clip0">
<rect width="345" height="267.027" fill="white"/>
</clipPath>
</defs>
</svg>
