<svg width="40" height="40" viewBox="0 0 40 40" fill="none" xmlns="http://www.w3.org/2000/svg">
<path d="M36.1864 0.277832C37.1469 0.277832 37.9802 0.663635 38.6864 1.43524C39.3927 2.20684 39.7458 3.11734 39.7458 4.16672V27.8704C39.7458 28.9815 39.3927 29.9229 38.6864 30.6945C37.9802 31.4661 37.1469 31.8519 36.1864 31.8519H23.4746V35.8334H27.1186V39.7223H12.6271V35.8334H16.2712V31.8519H3.64407C2.62712 31.8519 1.76554 31.4661 1.05932 30.6945C0.353107 29.9229 0 28.9815 0 27.8704V4.16672C0 3.11734 0.353107 2.20684 1.05932 1.43524C1.76554 0.663635 2.62712 0.277832 3.64407 0.277832H36.1864ZM36.1864 27.8704V4.16672H3.64407V27.8704H36.1864Z" fill="black"/>
</svg>
