<svg width="50" height="50" viewBox="0 0 50 50" fill="none" xmlns="http://www.w3.org/2000/svg">
<path d="M25.5812 3.19011C25.2082 3.04282 24.7918 3.04282 24.4188 3.19011L5.76875 10.5385L25 18.1148L44.2313 10.5385L25.5812 3.19011ZM46.875 12.8136L26.5625 20.8177V45.2057L46.875 37.2015V12.8166V12.8136ZM23.4375 45.2088V20.8146L3.125 12.8136V37.2046L23.4375 45.2088ZM23.2594 0.330173C24.3768 -0.110058 25.6232 -0.110058 26.7406 0.330173L49.0187 9.1101C49.3084 9.22445 49.5567 9.42162 49.7315 9.67621C49.9064 9.93079 49.9999 10.2311 50 10.5385V37.2046C49.9996 37.8198 49.8121 38.4207 49.4618 38.9299C49.1114 39.4391 48.6143 39.8333 48.0344 40.0615L25.5812 48.9091C25.2082 49.0564 24.7918 49.0564 24.4188 48.9091L1.96875 40.0615C1.38828 39.8338 0.890445 39.4398 0.539506 38.9306C0.188568 38.4213 0.000644779 37.8201 0 37.2046L0 10.5385C7.26248e-05 10.2311 0.0935742 9.93079 0.268459 9.67621C0.443345 9.42162 0.691602 9.22445 0.98125 9.1101L23.2594 0.330173Z" fill="black"/>
</svg>
