<svg width="327" height="249" viewBox="0 0 327 249" fill="none" xmlns="http://www.w3.org/2000/svg">
<g clip-path="url(#clip0)">
<path d="M237.506 221.562L235.172 214.135C235.172 214.135 233.218 208.864 233.533 206.038C233.848 203.211 232.876 200.125 232.876 200.125L234.796 190.135C234.796 190.135 234.901 189.047 234.895 187.611C234.895 185.22 234.557 181.865 232.9 180.993C230.251 179.596 224.823 167.785 223.685 167.785C222.548 167.785 218.89 167.024 218.89 165.743C218.894 165.697 218.894 165.65 218.89 165.603C218.89 165.603 218.89 165.574 218.89 165.559C218.89 165.545 218.872 165.492 218.861 165.457L218.843 165.408L218.791 165.291L218.773 165.259C218.63 165.005 218.452 164.772 218.245 164.568C223.186 163.626 228.104 162.59 232.987 161.385H232.806L232.987 161.342C232.339 161.335 231.691 161.29 231.047 161.207L230.905 161.239C223.723 160.259 217.268 154.644 215.512 147.53C213.563 139.654 216.97 131.434 216.819 123.319C216.714 118.184 215.188 113.178 212.411 108.857C212.038 108.274 211.641 107.714 211.227 107.165C212.665 106.467 213.935 105.465 214.95 104.229C215.965 102.993 216.7 101.552 217.105 100.006C217.511 98.4588 217.577 96.8427 217.299 95.268C217.02 93.6933 216.405 92.1974 215.494 90.883C215.369 90.7022 215.238 90.5272 215.103 90.3551C216.404 92.5133 216.933 95.0496 216.604 97.5479C216.274 100.046 215.105 102.359 213.289 104.105C213.991 102.83 214.434 101.428 214.591 99.9805C214.748 98.533 214.616 97.0688 214.204 95.6724C213.791 94.276 213.106 92.9753 212.188 91.8453C211.27 90.7153 210.137 89.7784 208.855 89.089C207.572 88.3995 206.166 87.971 204.717 87.8284C203.268 87.6857 201.805 87.8317 200.413 88.2578C199.021 88.6839 197.727 89.3818 196.606 90.311C195.485 91.2403 194.56 92.3825 193.883 93.6716C193.647 93.5666 193.41 93.4616 193.174 93.3653C193.909 91.3531 195.215 89.599 196.932 88.3177C198.649 87.0365 200.702 86.2838 202.841 86.1518C202.622 86.1372 202.406 86.1313 202.184 86.1313C200.012 86.1345 197.889 86.7805 196.083 87.9878C194.278 89.1952 192.869 90.91 192.036 92.9161C188.734 91.7056 185.29 91.2039 181.9 92.0644C181.27 92.2233 180.655 92.4371 180.062 92.7032L180.214 92.5836C179.373 92.9386 178.597 93.4315 177.918 94.0421C176.903 94.9784 176.189 96.1919 175.328 97.277C174.451 98.3599 173.413 99.3023 172.251 100.071C172.347 100.025 172.443 99.9693 172.543 99.9197C168.634 102.685 163.322 103.481 158.853 101.702C157.599 101.2 156.389 100.515 155.061 100.331C154.04 100.204 153.003 100.356 152.06 100.769C152.101 100.736 152.139 100.701 152.182 100.669C150.949 101.176 149.864 101.99 149.032 103.032C147.574 104.832 146.841 107.116 146.319 109.365C145.931 110.961 145.735 112.599 145.736 114.242C145.756 116.348 146.229 118.381 147.486 120.029C149.435 122.555 152.095 123.238 154.872 123.693C154.79 123.984 154.711 124.253 154.641 124.539C153.048 130.84 153.963 137.514 157.194 143.155C160.424 148.795 165.718 152.961 171.959 154.776L172.499 155.691L172.674 155.732C173.966 157.917 175.381 160.37 176.693 162.733C176.763 162.858 176.83 162.984 176.9 163.106L174.418 164.384C173.768 164.719 172.152 165.597 171.256 166.461C170.997 166.684 170.797 166.968 170.673 167.286C170.294 168.558 168.275 171.86 166.881 172.747C165.486 173.634 164.355 177.954 164.483 180.235C164.611 182.516 163.725 182.276 161.452 182.399C159.18 182.521 161.452 185.826 161.452 185.826L161.511 186.048C161.406 186.229 161.286 186.424 161.155 186.631C160.571 187.527 159.804 188.519 159.244 188.466C158.232 188.37 157.602 190.846 157.666 191.226C157.73 191.605 155.898 194.653 155.204 194.971C154.51 195.289 151.544 195.896 152.363 198.737L148.764 202.4L145.847 205.195C145.847 205.195 141.681 202.844 134.926 210.154C135.679 210.083 136.439 210.154 137.166 210.364L136.973 210.457C135.194 211.3 132.114 212.738 129.836 213.666L117.704 214.042V204.999C117.704 204.999 116.631 202.462 115.371 204.999L115.053 214.135L88.6836 214.99L93.6248 209.739L93.689 209.669C94.2178 209.108 94.5867 208.414 94.7575 207.662C94.9283 206.91 94.8948 206.125 94.6604 205.39L74.0435 140.585L73.9005 140.13C73.6979 139.489 73.3175 138.919 72.8037 138.487C72.2899 138.054 71.6638 137.776 70.9982 137.685L42.3597 133.82L42.1614 133.794L39.5303 134.509C39.2001 134.599 38.8911 134.754 38.6214 134.965C38.3517 135.175 38.1266 135.438 37.9594 135.736C37.7921 136.035 37.686 136.364 37.6472 136.704C37.6084 137.044 37.6377 137.389 37.7335 137.717C38.4102 140.051 39.5215 143.86 40.9421 148.647H36.9867L40.0174 174.806L41.8638 184.87C42.3364 187.436 42.8877 189.988 43.5177 192.524C45.0375 198.649 48.0448 211.714 48.1119 219.292L25.9432 243.462V248.371H167.546C167.552 248.388 167.56 248.403 167.569 248.418H236.558C236.558 248.418 235.802 247.085 237.433 245.18C239.063 243.275 238.255 235.72 238.255 235.72C238.255 235.72 237.339 234.513 238.459 231.847C239.579 229.181 237.506 221.562 237.506 221.562ZM61.559 215.859L57.7961 215.982L54.2958 193.212C56.889 201.531 59.4034 209.448 61.559 215.859ZM158.454 229.697L156.012 224.715C156.571 224.74 157.124 224.593 157.596 224.292C159.174 223.148 160.119 220.482 160.119 220.482L164.355 215.451L164.705 215.031C165.562 217.425 166.572 219.316 167.38 220.229C169.398 222.516 169.652 229.117 170.273 231.529C170.894 233.941 170.41 232.926 170.273 234.323C170.253 234.665 170.282 235.008 170.358 235.341C167.566 232.346 163.596 229.621 158.454 229.697Z" fill="url(#paint0_linear)"/>
<path d="M27.3696 243.558L52.2656 216.574L151.15 213.391L168.412 248.418H27.3696V243.558Z" fill="#514E7F"/>
<path opacity="0.2" d="M27.3696 243.558L52.2656 216.574L151.15 213.391L168.412 248.418H27.3696V243.558Z" fill="black"/>
<path d="M156.178 241.306V242.24C156.178 242.723 155.987 243.185 155.645 243.527C155.304 243.868 154.841 244.06 154.358 244.06H101.206C100.2 244.06 101.206 242.05 101.206 242.05L100.605 228.886C100.582 228.386 100.733 227.893 101.032 227.491C101.331 227.09 101.759 226.803 102.244 226.681C105.202 225.934 107.238 227.133 107.238 227.133L140.164 226.296C140.847 226.262 141.53 226.294 142.206 226.392C143.401 226.551 144.552 226.949 145.589 227.564C146.626 228.178 147.528 228.996 148.241 229.968L155.808 240.227C156.044 240.538 156.174 240.916 156.178 241.306Z" fill="#514E7F"/>
<path opacity="0.1" d="M156.178 242.24C156.178 242.722 155.987 243.185 155.645 243.527C155.304 243.868 154.841 244.06 154.358 244.06H101.206C100.2 244.06 101.206 242.05 101.206 242.05C101.206 242.05 104.14 240.627 108.498 240.883L147.293 240.043C147.293 240.043 151.876 240.148 154.557 240.44C155.001 240.488 155.412 240.698 155.711 241.03C156.01 241.362 156.177 241.793 156.178 242.24Z" fill="black"/>
<path d="M141.092 228.556H107.74L108.662 238.699L147.294 238.028L141.092 228.556Z" fill="#3F3D56"/>
<path d="M84.5298 235.68V239.2L49.5879 240.618C49.5879 240.618 41.5984 240.073 40.6183 235.163C40.5403 234.65 40.5502 234.127 40.6475 233.617C41.0004 231.549 42.7739 227.938 50.5913 226.27L60.2172 225.281H81.68C81.68 225.281 84.4511 228.055 84.5298 235.68Z" fill="#514E7F"/>
<path opacity="0.1" d="M84.5298 235.79V239.2L49.5879 240.618C49.5879 240.618 41.5984 240.072 40.6183 235.163C40.5403 234.65 40.5502 234.127 40.6475 233.617C40.6475 233.617 45.4779 238.185 52.0235 237.514L82.7797 236.175C83.3693 236.077 83.9535 235.949 84.5298 235.79Z" fill="black"/>
<path opacity="0.1" d="M57.7994 232.246C63.7248 231.94 68.4858 230.869 68.4334 229.852C68.381 228.835 63.535 228.258 57.6097 228.564C51.6843 228.869 46.9233 229.941 46.9757 230.957C47.0281 231.974 51.874 232.551 57.7994 232.246Z" fill="black"/>
<path d="M61.1156 229.534L55.4626 232.328L49.4479 230.904L49.4187 221.101C49.8008 213.945 46.5018 199.623 44.8712 193.133C44.2431 190.625 43.6938 188.097 43.2232 185.549L41.3738 175.588L38.3635 149.703H45.5275L49.7396 155.735L61.1156 229.534Z" fill="#514E7F"/>
<path d="M61.1156 229.534L55.4625 232.328L51.8572 211.39C51.9272 207.823 47.4556 190.887 47.1639 190.19C43.5994 181.681 40.5453 149.715 40.5453 149.715H45.5304L49.7395 155.735L61.1156 229.534Z" fill="#514E7F"/>
<path opacity="0.15" d="M61.1156 229.534L55.4625 232.328L51.8572 211.39C51.9272 207.823 47.4556 190.887 47.1639 190.19C43.5994 181.681 40.5453 149.715 40.5453 149.715H45.5304L49.7395 155.735L61.1156 229.534Z" fill="black"/>
<path d="M94.815 210.113L75.5632 230.4L73.3055 230.56L70.5548 230.759C69.9184 230.804 69.2834 230.653 68.7363 230.324C68.1892 229.996 67.7568 229.507 67.4979 228.924C61.664 215.798 43.0131 152.328 39.087 138.884C38.9914 138.558 38.9621 138.216 39.0006 137.878C39.0392 137.54 39.1449 137.214 39.3115 136.918C39.4781 136.621 39.7022 136.361 39.9707 136.153C40.2392 135.945 40.5467 135.792 40.875 135.704L43.5003 134.999L43.6957 135.022L71.742 138.785C72.5433 138.893 73.2976 139.226 73.9172 139.745C74.5367 140.264 74.9963 140.949 75.2424 141.719L95.7717 205.871C96.0067 206.599 96.0418 207.377 95.8735 208.123C95.7052 208.869 95.3396 209.556 94.815 210.113Z" fill="#514E7F"/>
<path opacity="0.1" d="M94.815 210.113L75.5632 230.4L73.3055 230.56L70.5548 230.759C69.9184 230.804 69.2834 230.653 68.7363 230.324C68.1892 229.996 67.7568 229.507 67.4979 228.924C61.664 215.798 43.0131 152.328 39.087 138.884C38.9914 138.558 38.9621 138.216 39.0006 137.878C39.0392 137.54 39.1449 137.214 39.3115 136.918C39.4781 136.621 39.7022 136.361 39.9707 136.153C40.2392 135.945 40.5467 135.792 40.875 135.704L43.5003 134.999L43.6957 135.022L71.742 138.785C72.5433 138.893 73.2976 139.226 73.9172 139.745C74.5367 140.264 74.9963 140.949 75.2424 141.719L95.7717 205.871C96.0067 206.599 96.0418 207.377 95.8735 208.123C95.7052 208.869 95.3396 209.556 94.815 210.113Z" fill="black"/>
<path d="M94.7478 210.183L75.5632 230.409L73.3055 230.569L44.5153 138.394C44.0253 137.336 43.7506 136.19 43.7073 135.025L72.2233 138.852C72.8844 138.941 73.5068 139.215 74.018 139.644C74.5292 140.073 74.9082 140.637 75.111 141.273L95.7542 205.781C95.9961 206.538 96.0303 207.345 95.8533 208.119C95.6763 208.894 95.2945 209.606 94.7478 210.183Z" fill="#514E7F"/>
<path d="M93.3419 206.781C93.1313 207.138 92.8699 207.462 92.566 207.744L73.6789 225.304L47.9107 139.899L72.655 142.349C73.5114 142.433 74.3234 142.77 74.9878 143.317C75.6521 143.864 76.1387 144.596 76.3858 145.421L93.7678 203.301C93.9418 203.879 93.9938 204.487 93.9205 205.086C93.8472 205.685 93.6502 206.262 93.3419 206.781Z" fill="#3F3D56"/>
<path opacity="0.1" d="M93.3419 206.782L72.655 142.349C73.5114 142.434 74.3234 142.771 74.9878 143.317C75.6521 143.864 76.1388 144.597 76.3858 145.421L93.7678 203.302C93.9418 203.88 93.9938 204.487 93.9205 205.086C93.8472 205.685 93.6502 206.263 93.3419 206.782Z" fill="black"/>
<path d="M204.264 111.34C210.313 111.34 215.217 106.436 215.217 100.386C215.217 94.3372 210.313 89.4333 204.264 89.4333C198.215 89.4333 193.311 94.3372 193.311 100.386C193.311 106.436 198.215 111.34 204.264 111.34Z" fill="#945B79"/>
<path d="M193.197 98.7614C193.197 95.9692 194.263 93.2823 196.177 91.2497C198.091 89.2171 200.71 87.9924 203.497 87.8258C203.281 87.8258 203.065 87.8054 202.847 87.8054C201.393 87.7817 199.949 88.0475 198.599 88.5874C197.249 89.1273 196.021 89.9304 194.984 90.9499C193.948 91.9695 193.125 93.1852 192.563 94.526C192.001 95.8669 191.712 97.3062 191.712 98.76C191.712 100.214 192.001 101.653 192.563 102.994C193.125 104.335 193.948 105.55 194.984 106.57C196.021 107.59 197.249 108.393 198.599 108.933C199.949 109.472 201.393 109.738 202.847 109.715C203.065 109.715 203.281 109.715 203.497 109.694C200.71 109.528 198.092 108.303 196.178 106.271C194.264 104.239 193.198 101.553 193.197 98.7614Z" fill="#945B79"/>
<path opacity="0.1" d="M194.615 100.386C194.615 97.5938 195.682 94.9068 197.598 92.8747C199.513 90.8426 202.133 89.6189 204.92 89.4538C204.705 89.4538 204.486 89.4333 204.267 89.4333C201.393 89.4803 198.652 90.655 196.636 92.7043C194.62 94.7536 193.49 97.5131 193.49 100.388C193.49 103.263 194.62 106.022 196.636 108.071C198.652 110.121 201.393 111.296 204.267 111.342C204.486 111.342 204.705 111.342 204.92 111.319C202.133 111.155 199.513 109.931 197.597 107.899C195.681 105.867 194.615 103.179 194.615 100.386Z" fill="black"/>
<path d="M147.889 223.198C146.865 223.738 145.812 224.219 144.732 224.636C141.915 225.744 137.621 227.016 133.622 226.529C126.898 225.712 122.876 227.912 122.876 227.912L121.368 216.725C121.368 216.725 126.327 215.267 128.342 214.902C129.853 214.611 135.305 212.099 137.921 210.865C138.796 210.457 139.342 210.188 139.342 210.188H144.371L147.889 223.198Z" fill="#FFC1C7"/>
<path opacity="0.1" d="M147.889 223.198C146.865 223.738 145.812 224.219 144.732 224.636C144.391 214.675 140.57 211.717 137.921 210.865C138.796 210.457 139.342 210.188 139.342 210.188H144.371L147.889 223.198Z" fill="black"/>
<path d="M166.493 189.764V214.266L165.177 215.824L160.962 220.812C160.962 220.812 160.02 223.437 158.448 224.581C156.876 225.724 153.291 224.204 153.291 224.204L152.284 225.838C152.284 225.838 150.024 226.278 148.956 225.838C147.889 225.397 145.246 227.095 145.246 227.095C145.625 209.121 135.882 210.568 135.882 210.568C142.606 203.339 146.754 205.664 146.754 205.664L149.647 202.899L153.229 199.27C152.413 196.461 155.365 195.86 156.056 195.545C156.747 195.23 158.57 192.214 158.509 191.838C158.448 191.462 159.072 189.009 160.078 189.105C160.638 189.157 161.406 188.174 161.983 187.29C162.444 186.579 162.782 185.931 162.782 185.931L166.493 189.764Z" fill="#FF6584"/>
<path d="M175.194 165.271L182.603 161.479L182.183 165.921L183.641 170.384C183.641 170.384 182.303 173.84 182.136 174.217C181.97 174.593 178.785 182.472 178.785 182.472L176.23 179.246L175.194 165.271Z" fill="#FF6584"/>
<path opacity="0.1" d="M176.232 179.246L175.194 165.271L182.603 161.481" fill="black"/>
<path d="M207.029 161.105C207.029 161.105 204.568 164.646 201.196 169.159C193.349 179.66 180.584 195.411 182.527 183.983C182.591 183.609 182.641 183.236 182.685 182.86C182.206 183.18 181.11 182.9 179.914 182.332L179.832 182.294C179.242 182.005 178.673 181.675 178.128 181.308C178.067 181.27 178.009 181.229 177.951 181.188C176.623 180.263 175.562 179.181 175.617 178.435C176.559 162.03 180.377 169.853 181.451 171.673C181.512 171.801 181.594 171.916 181.696 172.014C181.649 171.886 181.597 171.752 181.538 171.612C180.786 169.765 179.348 167.006 177.705 164.057V164.028L177.487 163.637C176.122 161.201 174.643 158.655 173.313 156.42L172.954 155.82C170.854 152.296 169.22 149.668 169.22 149.668C169.22 149.668 178.761 140.94 186.803 135.637C193.512 131.206 199.195 129.162 197.377 136.594C196.211 141.372 196.552 145.459 197.628 148.845C197.666 148.971 197.707 149.096 197.751 149.219C197.967 149.864 198.216 150.498 198.497 151.117C198.879 151.971 199.315 152.8 199.804 153.597C201.635 156.598 204.101 159.161 207.029 161.105Z" fill="#FFC1C7"/>
<path opacity="0.15" d="M192.197 147.859C187.673 152.774 186.71 157.485 179.502 157.485C177.405 157.487 175.317 157.222 173.286 156.698C171.014 152.876 169.203 149.945 169.203 149.945C169.203 149.945 201.353 120.545 197.36 136.871C196.141 141.804 191.027 144.388 192.197 147.859Z" fill="black"/>
<path d="M204.264 131.945C204.264 136.843 202.812 141.631 200.09 145.704C197.369 149.776 193.501 152.95 188.976 154.825C184.45 156.699 179.471 157.189 174.667 156.233C169.863 155.278 165.45 152.919 161.987 149.455C158.524 145.991 156.165 141.578 155.21 136.774C154.255 131.97 154.746 126.991 156.621 122.466C158.495 117.94 161.67 114.073 165.743 111.352C169.816 108.631 174.604 107.179 179.502 107.18C182.758 107.166 185.985 107.796 188.996 109.036C192.007 110.276 194.742 112.099 197.044 114.402C199.347 116.704 201.17 119.44 202.409 122.451C203.648 125.462 204.279 128.689 204.264 131.945Z" fill="#FFC1C7"/>
<path opacity="0.1" d="M178.936 174.806C178.936 174.806 179.377 181.844 183.84 181.279C188.303 180.713 184.907 196.237 184.907 196.237L179.949 200.761L174.599 202.406C174.599 202.406 169.885 201.023 169.949 200.77C170.014 200.516 171.834 185.814 171.834 185.814L174.599 177.956L178.936 174.806Z" fill="black"/>
<path d="M178.936 175.308C178.936 175.308 179.377 182.346 183.84 181.783C188.303 181.22 184.907 196.742 184.907 196.742L179.949 201.266L174.605 202.899C174.605 202.899 169.891 201.517 169.955 201.266C170.019 201.015 171.84 186.308 171.84 186.308L174.605 178.452L178.936 175.308Z" fill="#514E7F"/>
<path opacity="0.1" d="M166.493 189.764V214.266L165.177 215.824C163.821 212.224 162.788 207.344 163.427 202.957C164.258 197.141 162.602 189.697 162.001 187.285C162.462 186.573 162.8 185.925 162.8 185.925L166.493 189.764Z" fill="black"/>
<path opacity="0.1" d="M179.502 176.063C179.343 177.444 178.984 178.794 178.438 180.071C178.274 180.459 178.108 180.835 177.942 181.188C176.615 180.264 175.553 179.181 175.608 178.435C176.55 162.03 180.369 169.853 181.442 171.673C180.917 172.07 179.744 173.237 179.502 176.063Z" fill="black"/>
<path opacity="0.1" d="M181.524 171.612C180.736 169.678 179.19 166.741 177.46 163.637L177.679 163.526L181.681 171.513C181.625 171.54 181.572 171.573 181.524 171.612Z" fill="black"/>
<path opacity="0.1" d="M207.029 161.105C207.029 161.105 179.753 200.323 182.527 183.983C182.591 183.609 182.641 183.236 182.685 182.86C182.195 183.186 181.06 182.889 179.832 182.294C180.019 181.203 180.124 180.456 180.124 180.456L183.143 171.915C183.143 171.915 184.893 165.128 184.651 163.748L184.732 163.693L199.743 153.615H199.757C201.603 156.614 204.086 159.171 207.029 161.105Z" fill="black"/>
<path d="M235.312 190.77L233.174 201.823L226.757 248.456H171.084C171.084 248.456 172.087 240.288 172.087 239.028C172.087 237.768 170.959 235.887 171.084 234.504C171.209 233.121 171.691 234.125 171.084 231.739C170.477 229.353 170.209 222.813 168.205 220.552C166.201 218.292 162.917 209.99 163.917 202.963C164.918 195.936 162.281 186.497 162.281 186.497C162.281 186.497 160.02 183.227 162.281 183.102C164.541 182.976 165.425 183.215 165.3 180.961C165.174 178.706 166.303 174.43 167.686 173.549C169.068 172.668 171.081 169.401 171.457 168.144C171.583 167.827 171.783 167.546 172.041 167.324C173.173 166.239 175.474 165.128 175.474 165.128L177.673 164.028V164.057L181.664 172.014C181.664 172.014 179.797 172.922 179.485 176.565C179.326 177.945 178.967 179.295 178.42 180.573C178.315 180.824 178.21 181.072 178.102 181.308C177.781 182.02 177.455 182.65 177.177 183.151C176.766 183.895 176.472 184.353 176.472 184.353C176.472 184.353 176.364 185.205 176.2 186.395C175.865 188.839 175.299 192.713 174.964 193.641C174.672 194.463 174.088 195.878 173.765 197.141C173.56 197.931 173.444 198.664 173.552 199.142C173.552 199.18 173.569 199.218 173.581 199.253C173.957 200.42 175.842 195.402 175.842 195.402C175.842 195.402 177.224 191.129 177.854 191.129C178.336 191.129 179.418 185.097 179.896 182.314C180.036 181.483 180.121 180.943 180.121 180.943L183.14 172.399C183.14 172.399 183.557 170.786 183.956 168.972C184.376 167.064 184.776 164.938 184.648 164.229L184.729 164.174L199.74 154.096H199.755L199.985 153.941H199.962C199.857 153.941 199.553 153.754 198.973 152.389C198.824 152.042 198.658 151.622 198.474 151.103C198.474 151.103 203.275 149.175 204.988 150.587C205.099 150.676 205.197 150.78 205.279 150.896C205.328 150.961 205.37 151.03 205.405 151.103C206.536 153.437 207.038 155.187 208.17 156.698C208.292 156.858 208.425 157.011 208.567 157.156C209.935 158.588 212.65 160.265 212.192 160.72C211.691 161.222 215.964 163.345 215.964 163.345C215.964 163.345 218.464 164.775 219.248 165.971C219.386 166.156 219.467 166.376 219.482 166.606C219.482 167.864 223.128 168.616 224.26 168.616C225.391 168.616 230.797 180.307 233.433 181.69C236.07 183.073 235.312 190.77 235.312 190.77Z" fill="#FF6584"/>
<g opacity="0.1">
<path opacity="0.1" d="M178.916 172.015C178.916 172.015 177.049 172.922 176.737 176.565C176.579 177.946 176.219 179.296 175.669 180.573C175.305 181.455 174.891 182.316 174.43 183.152C174.018 183.895 173.724 184.353 173.724 184.353C173.724 184.353 173.616 185.205 173.453 186.395C173.126 188.86 172.543 192.734 172.213 193.655C171.921 194.478 171.338 195.893 171.014 197.156C170.81 197.946 170.693 198.678 170.801 199.157C170.801 199.195 170.819 199.233 170.83 199.268C171.207 200.434 173.091 195.417 173.091 195.417C173.091 195.417 174.474 191.144 175.104 191.144C175.282 191.144 175.544 190.31 175.827 189.12C175.97 188.166 176.119 187.212 176.215 186.413C176.378 185.217 176.486 184.371 176.486 184.371C176.486 184.371 176.652 184.114 176.909 183.671C177.178 182.134 177.364 180.973 177.364 180.973L180.383 172.429C180.383 172.429 180.602 171.577 180.876 170.419L177.668 164.04L175.468 165.139L178.916 172.015Z" fill="black"/>
<path opacity="0.1" d="M233.425 181.719C230.8 180.337 225.383 168.645 224.251 168.645C223.119 168.645 219.473 167.893 219.473 166.636C219.473 165.379 215.955 163.366 215.955 163.366C215.955 163.366 211.682 161.231 212.184 160.741C212.636 160.286 209.926 158.608 208.558 157.176C208.417 157.031 208.285 156.878 208.161 156.718C207.029 155.207 206.528 153.448 205.396 151.123C205.36 151.05 205.319 150.98 205.271 150.913C205.187 150.799 205.089 150.695 204.979 150.604C204.209 149.971 202.82 150.021 201.519 150.248C201.771 150.322 202.007 150.443 202.214 150.604C202.323 150.695 202.421 150.799 202.505 150.913C202.553 150.98 202.595 151.05 202.631 151.123C203.763 153.457 204.264 155.207 205.396 156.718C205.521 156.874 205.654 157.023 205.796 157.164C207.164 158.597 209.879 160.274 209.421 160.729C208.92 161.231 213.193 163.354 213.193 163.354C213.193 163.354 216.711 165.367 216.711 166.624C216.711 167.881 220.357 168.634 221.489 168.634C222.62 168.634 228.026 180.325 230.662 181.708C233.299 183.09 232.55 190.75 232.55 190.75L230.409 201.823L223.991 248.456H226.757L233.174 201.823L235.312 190.762C235.312 190.762 236.065 183.102 233.425 181.719Z" fill="black"/>
</g>
<path d="M123.655 216.953C123.655 216.953 107.667 212.326 106.535 219.429C105.403 226.532 113.072 230.616 117.972 230.49C122.873 230.365 125.011 225.712 125.011 225.712L123.655 216.953Z" fill="#FFC1C7"/>
<path d="M203.824 238.786C203.824 238.786 200.242 241.362 192.637 241.362C185.033 241.362 176.171 242.995 176.171 242.995C176.171 242.995 164.859 216.349 142.171 239.159C142.171 239.159 138.088 244.439 159.265 244.993C159.265 244.993 166.744 244.742 168.377 248.45H210.673L216.457 244.118L203.824 238.786Z" fill="#FFC1C7"/>
<path d="M118.728 205.475C118.728 205.475 117.66 202.963 116.394 205.475L115.709 224.96L117.214 229.548L118.719 225.464L118.728 205.475Z" fill="#514E7F"/>
<path opacity="0.1" d="M205.271 150.905C203.077 151.651 200.671 153.401 199.962 153.95C199.83 153.95 199.378 153.658 198.474 151.112C198.471 151.112 203.9 148.933 205.271 150.905Z" fill="black"/>
<path d="M181.681 172.014C181.681 172.014 179.814 172.922 179.502 176.565C179.343 177.945 178.985 179.295 178.438 180.573L177.21 183.154L176.232 186.404L176.334 193.019L173.779 197.155L173.566 199.156L172.904 205.346L169.509 203.713C169.509 203.713 170.909 193.731 171.959 191.71C173.009 189.688 174.412 178.983 174.412 178.983C174.412 178.983 174.348 175.054 174.853 174.363C175.357 173.671 173.978 173.797 173.846 172.353C173.77 171.495 172.814 169.115 172.047 167.321C173.178 166.236 175.48 165.125 175.48 165.125L177.679 164.025L181.681 172.014Z" fill="#FF6584"/>
<path opacity="0.1" d="M181.681 172.014C181.681 172.014 179.814 172.922 179.502 176.565C179.343 177.945 178.985 179.295 178.438 180.573L177.21 183.154L176.232 186.404L176.334 193.019L173.779 197.155L173.566 199.156L172.904 205.346L169.509 203.713C169.509 203.713 170.909 193.731 171.959 191.71C173.009 189.688 174.412 178.983 174.412 178.983C174.412 178.983 174.348 175.054 174.853 174.363C175.357 173.671 173.978 173.797 173.846 172.353C173.77 171.495 172.814 169.115 172.047 167.321C173.178 166.236 175.48 165.125 175.48 165.125L177.679 164.025L181.681 172.014Z" fill="black"/>
<path opacity="0.1" d="M208.558 157.669C205.755 159.962 198.217 166.467 197.351 170.889C196.283 176.34 193.078 175.812 193.078 175.812C189.073 167.126 186.316 164.996 184.738 164.696L199.749 154.615C199.749 154.615 199.749 154.615 199.763 154.615L199.994 154.46H199.962C199.857 154.46 199.553 154.277 198.973 152.912L204.988 151.106C205.099 151.195 205.197 151.299 205.279 151.415C205.327 151.48 205.369 151.55 205.405 151.622C206.536 153.956 207.038 155.706 208.17 157.217C208.291 157.375 208.42 157.526 208.558 157.669Z" fill="black"/>
<path d="M208.558 157.164C205.755 159.457 198.217 165.965 197.351 170.387C196.283 175.836 193.078 175.308 193.078 175.308C189.073 166.624 186.316 164.486 184.738 164.194L199.749 154.116H199.763L199.994 153.962H199.962C199.857 153.962 199.553 153.775 198.973 152.41L204.988 150.607C205.099 150.696 205.197 150.8 205.279 150.916C205.328 150.981 205.37 151.05 205.405 151.123C206.536 153.457 207.038 155.207 208.17 156.718C208.29 156.875 208.42 157.024 208.558 157.164Z" fill="#FF6584"/>
<path opacity="0.1" d="M191.57 201.201C191.756 201.14 201.551 195.595 200.425 199.813C199.3 204.031 191.57 201.201 191.57 201.201Z" fill="black"/>
<path opacity="0.1" d="M149.207 206.513C149.207 206.513 154.358 214.526 156.181 214.275C158.004 214.024 149.207 206.513 149.207 206.513Z" fill="black"/>
<path opacity="0.1" d="M155.624 203.529C155.624 203.529 155.939 209.751 158.643 210.188C161.347 210.626 155.624 203.529 155.624 203.529Z" fill="black"/>
<path opacity="0.1" d="M184.21 223.513C184.21 223.513 190.61 234.16 189.364 237.844L184.21 223.513Z" fill="black"/>
<path opacity="0.1" d="M191.631 224.77C191.631 224.77 200.288 236.146 198.789 237.088C197.29 238.031 191.631 224.77 191.631 224.77Z" fill="black"/>
<path opacity="0.1" d="M172.166 206.513C172.166 206.513 171.277 214.602 174.616 216.953L172.166 206.513Z" fill="black"/>
<path opacity="0.1" d="M210.991 170.533C210.991 170.533 196.17 182.034 198.544 193.976C200.918 205.918 203.211 206.796 203.211 206.796C203.211 206.796 204.086 211.571 205.726 213.584C207.365 215.596 207.108 216.915 207.108 216.915C207.108 216.915 208.616 216.224 209.118 219.68C209.62 223.137 212.259 225.587 212.259 225.587C212.259 225.587 213.135 228.352 210.877 229.86C208.619 231.368 209.127 233.005 209.127 233.005L199.95 238.346L210.171 248.465H236.569C236.569 248.465 235.814 247.146 237.444 245.256C239.075 243.366 238.264 235.893 238.264 235.893C238.264 235.893 237.351 234.697 238.468 232.057C239.585 229.417 237.508 221.877 237.508 221.877L235.175 214.523C235.175 214.523 233.226 209.308 233.541 206.51C233.856 203.713 232.9 200.656 232.9 200.656L227.833 184.671C227.833 184.671 228.084 168.71 210.991 170.533Z" fill="black"/>
<path d="M211.492 170.533C211.492 170.533 196.66 182.034 199.049 193.976C201.438 205.918 203.698 206.796 203.698 206.796C203.698 206.796 204.573 211.571 206.213 213.584C207.852 215.596 207.595 216.915 207.595 216.915C207.595 216.915 209.103 216.224 209.608 219.68C210.113 223.137 212.75 225.587 212.75 225.587C212.75 225.587 213.625 228.352 211.367 229.86C209.109 231.368 209.617 233.005 209.617 233.005L200.44 238.346L210.684 248.465H237.08C237.08 248.465 236.327 247.146 237.955 245.256C239.582 243.366 238.772 235.893 238.772 235.893C238.772 235.893 237.859 234.697 238.976 232.057C240.093 229.417 238.016 221.877 238.016 221.877L235.682 214.523C235.682 214.523 233.734 209.308 234.049 206.51C234.364 203.713 233.401 200.656 233.401 200.656L228.335 184.671C228.335 184.671 228.586 168.71 211.492 170.533Z" fill="#FF6584"/>
<path opacity="0.1" d="M216.457 178.639C216.457 178.639 227.016 182.221 229.843 183.983C232.669 185.745 225.695 177.005 216.457 178.639Z" fill="black"/>
<path opacity="0.1" d="M221.987 233.005C221.987 233.005 237.007 234.889 236.132 237.844C235.257 240.799 221.987 233.005 221.987 233.005Z" fill="black"/>
<path opacity="0.1" d="M219.044 236.208C219.044 236.208 230.032 239.728 228.087 242.625C226.141 245.521 219.044 236.208 219.044 236.208Z" fill="black"/>
<path opacity="0.1" d="M219.24 166C213.245 167.167 207.222 168.164 201.196 169.159L199.626 169.418C196.313 169.964 192.979 170.512 189.618 170.495C187.982 170.495 186.296 170.326 184.843 169.567C184.533 169.403 184.24 169.207 183.968 168.984C182.95 168.167 182.218 166.98 182.235 165.691C182.253 163.34 184.484 161.709 186.404 160.35C189.213 158.357 191.987 155.828 193.072 152.652C193.278 152.056 193.42 151.44 193.495 150.814C193.816 148.116 192.833 145.453 191.785 142.939C190.642 140.211 189.073 137.28 186.78 135.623C185.852 134.941 184.768 134.502 183.627 134.348C180.103 133.881 176.769 136.39 173.219 136.25C170.334 136.125 167.884 134.272 166.149 132.093C164.886 130.507 164.086 128.383 162.184 127.441C160.125 126.417 157.783 126.175 155.493 125.834C156.424 122.174 158.18 118.776 160.625 115.9C163.071 113.023 166.142 110.744 169.604 109.236C173.066 107.728 176.827 107.032 180.599 107.2C184.371 107.369 188.054 108.398 191.368 110.208C194.681 112.019 197.537 114.563 199.716 117.647C201.896 120.73 203.341 124.271 203.942 127.999C204.543 131.727 204.284 135.542 203.184 139.154C202.084 142.767 200.173 146.079 197.596 148.839C197.634 148.965 197.675 149.09 197.719 149.213C197.935 149.858 198.184 150.492 198.465 151.112C198.465 151.112 203.267 149.184 204.979 150.595C205.09 150.684 205.188 150.789 205.27 150.905C205.319 150.969 205.361 151.039 205.396 151.112C206.528 153.445 207.029 155.195 208.161 156.706C208.284 156.867 208.416 157.02 208.558 157.164C209.926 158.597 212.642 160.274 212.184 160.729C211.682 161.231 215.955 163.354 215.955 163.354C215.955 163.354 218.455 164.798 219.24 166Z" fill="black"/>
<path d="M148.376 121.371C146.141 118.489 146.383 114.417 147.209 110.87C147.728 108.632 148.466 106.383 149.913 104.601C151.36 102.819 153.638 101.57 155.916 101.88C157.249 102.061 158.454 102.74 159.708 103.236C165.338 105.465 172.321 103.612 176.107 98.884C176.965 97.8135 177.673 96.6117 178.688 95.6754C179.825 94.695 181.186 94.0088 182.65 93.6773C188.985 92.0788 195.519 95.2262 200.939 98.8752C205.565 101.991 209.964 105.628 213 110.304C215.76 114.576 217.275 119.532 217.376 124.617C217.53 132.668 214.135 140.789 216.078 148.6C217.994 156.316 225.529 162.254 233.477 162.31C222.562 164.988 211.46 166.822 200.373 168.651C197.056 169.2 193.725 169.748 190.365 169.728C188.729 169.728 187.04 169.558 185.59 168.8C184.14 168.042 182.965 166.569 182.965 164.932C182.982 162.578 185.217 160.951 187.133 159.591C190.464 157.229 193.746 154.11 194.227 150.056C194.548 147.358 193.565 144.692 192.515 142.18C190.913 138.359 188.472 134.126 184.365 133.578C180.844 133.108 177.507 135.62 173.957 135.477C171.075 135.352 168.622 133.499 166.887 131.32C165.624 129.733 164.824 127.61 162.925 126.668C158.232 124.346 152.039 126.093 148.376 121.371Z" fill="#945B79"/>
<path d="M212.572 106.687C214.865 105.095 216.464 102.688 217.042 99.9562C217.62 97.2248 217.133 94.3759 215.681 91.9915C215.815 92.1606 215.944 92.3357 216.069 92.5136C216.916 93.6944 217.519 95.0318 217.844 96.448C218.169 97.8642 218.208 99.3309 217.961 100.763C217.714 102.194 217.184 103.563 216.403 104.788C215.622 106.013 214.605 107.07 213.411 107.899C212.217 108.727 210.871 109.31 209.45 109.613C208.029 109.915 206.561 109.933 205.134 109.663C203.706 109.394 202.346 108.843 201.133 108.043C199.92 107.243 198.878 106.21 198.069 105.004C197.946 104.823 197.827 104.639 197.716 104.456C199.441 106.651 201.94 108.105 204.701 108.519C207.462 108.934 210.277 108.279 212.572 106.687Z" fill="#945B79"/>
<g opacity="0.1">
<path opacity="0.1" d="M177.863 97.8252C178.721 96.7517 179.429 95.55 180.445 94.6165C180.611 94.4647 180.785 94.3216 180.967 94.1877C180.131 94.534 179.36 95.0181 178.686 95.62C177.671 96.5475 176.962 97.7493 176.104 98.8286C175.233 99.9081 174.201 100.847 173.044 101.611C174.913 100.725 176.56 99.4314 177.863 97.8252Z" fill="black"/>
<path opacity="0.1" d="M202.141 167.61C198.827 168.155 195.493 168.704 192.133 168.683C190.496 168.683 188.81 168.517 187.358 167.759C185.905 167 184.732 165.527 184.747 163.888C184.765 161.537 186.996 159.909 188.915 158.547C192.246 156.184 195.525 153.066 196.006 149.011C196.327 146.316 195.344 143.647 194.294 141.136C192.693 137.315 190.254 133.079 186.144 132.534C182.623 132.064 179.289 134.576 175.74 134.43C172.858 134.307 170.404 132.455 168.669 130.276C167.403 128.689 166.604 126.566 164.705 125.623C159.991 123.29 153.798 125.04 150.12 120.309C147.886 117.427 148.131 113.352 148.953 109.808C149.473 107.571 150.211 105.322 151.654 103.536C152.059 103.04 152.522 102.592 153.031 102.203C151.805 102.704 150.727 103.506 149.895 104.537C148.437 106.319 147.711 108.571 147.191 110.805C146.366 114.358 146.124 118.433 148.358 121.306C152.022 126.029 158.215 124.282 162.943 126.621C164.842 127.566 165.641 129.69 166.904 131.288C168.654 133.464 171.093 135.319 173.975 135.442C177.525 135.594 180.862 133.073 184.382 133.543C188.489 134.091 190.931 138.324 192.532 142.148C193.582 144.651 194.574 147.317 194.245 150.024C193.763 154.078 190.482 157.196 187.151 159.559C185.234 160.918 183 162.549 182.982 164.9C182.982 166.536 184.149 168.012 185.607 168.771C187.066 169.529 188.746 169.687 190.383 169.695C193.743 169.716 197.091 169.167 200.391 168.619C211.475 166.79 222.58 164.958 233.495 162.278C232.849 162.271 232.204 162.226 231.564 162.143C221.839 164.357 211.982 165.985 202.141 167.61Z" fill="black"/>
</g>
<path d="M119.804 222.982C122.446 222.982 124.588 221.812 124.588 220.368C124.588 218.925 122.446 217.755 119.804 217.755C117.162 217.755 115.021 218.925 115.021 220.368C115.021 221.812 117.162 222.982 119.804 222.982Z" fill="#FFC1C7"/>
<path opacity="0.3" d="M198.847 25.9957C193.524 24.5752 188.148 23.1488 182.641 22.9213C177.134 22.6938 171.414 23.7614 166.919 26.9467C164.67 28.5393 162.803 30.6016 160.91 32.6084C150.859 43.2606 139.64 52.746 127.464 60.8852C122.561 64.1609 117.319 67.2849 111.476 68.0988C105.634 68.9126 99.0328 66.8882 96.0167 61.8244L97.8135 60.9027" stroke="black" stroke-width="0.21877" stroke-miterlimit="10" stroke-dasharray="3.5 3.5"/>
<path opacity="0.3" d="M251.944 25.5376C254.362 25.278 256.95 25.3509 259.024 26.6256C261.22 27.9761 262.489 30.4964 262.915 33.0428C263.341 35.5893 263.043 38.1912 262.74 40.7523L261.106 54.5669C260.876 56.5008 260.654 58.5135 261.281 60.3599C261.909 62.2063 263.644 63.8282 265.584 63.6561" stroke="black" stroke-width="0.21877" stroke-miterlimit="10" stroke-dasharray="3.5 3.5"/>
<path opacity="0.3" d="M93.9516 142.813C100.179 142.968 107.2 142.813 111.503 138.309C114.77 134.891 115.537 129.882 116.637 125.282C118.623 116.978 122.234 108.986 127.721 102.437C133.208 95.8885 140.614 90.8422 148.904 88.8062C155.566 87.1668 162.572 87.476 169.27 86.003C175.967 84.5299 182.845 80.56 184.697 73.9561" stroke="black" stroke-width="0.21877" stroke-miterlimit="10" stroke-dasharray="3.5 3.5"/>
<path opacity="0.5" d="M198.352 59.4909L181.547 65.6164C181.49 65.638 181.441 65.6748 181.404 65.7228C181.366 65.7708 181.343 65.8281 181.337 65.8885C181.33 65.9488 181.34 66.0098 181.366 66.0648C181.392 66.1197 181.432 66.1664 181.483 66.1998L183.991 67.5912C184.134 67.6748 184.239 67.8108 184.283 67.9704L185.721 72.5208C185.721 72.7133 186.071 72.8125 186.103 72.6258L186.305 69.0672C186.362 68.81 186.498 68.5768 186.693 68.3992L195.928 61.6902C195.954 61.6723 195.985 61.6609 196.017 61.6569C196.049 61.6528 196.081 61.6562 196.111 61.6669C196.14 61.6786 196.166 61.6974 196.186 61.7216C196.206 61.7458 196.219 61.7747 196.225 61.8055C196.231 61.8363 196.229 61.8681 196.219 61.8979C196.21 61.9277 196.193 61.9546 196.17 61.9761L187.959 69.4639C187.781 69.6496 187.652 69.876 187.582 70.1231L186.707 73.0954C186.707 73.3638 186.894 73.4951 187.098 73.2821L188.848 71.7449C188.878 71.715 188.913 71.6913 188.952 71.6751C188.991 71.6589 189.032 71.6505 189.074 71.6505C189.116 71.6505 189.158 71.6589 189.197 71.6751C189.236 71.6913 189.271 71.715 189.3 71.7449L192.748 75.1285C192.786 75.166 192.833 75.1933 192.884 75.2079C192.935 75.2224 192.989 75.2238 193.041 75.2119C193.093 75.1999 193.141 75.1751 193.18 75.1396C193.22 75.1041 193.25 75.0592 193.267 75.0089L198.725 59.9226C198.748 59.8657 198.753 59.8035 198.742 59.7435C198.73 59.6834 198.701 59.628 198.658 59.584C198.616 59.5399 198.562 59.5091 198.502 59.4952C198.442 59.4812 198.38 59.4848 198.322 59.5054L198.352 59.4909Z" fill="#3F3D56"/>
</g>
<defs>
<linearGradient id="paint0_linear" x1="105024" y1="142207" x2="105024" y2="51912.3" gradientUnits="userSpaceOnUse">
<stop stop-color="#808080" stop-opacity="0.25"/>
<stop offset="0.54" stop-color="#808080" stop-opacity="0.12"/>
<stop offset="1" stop-color="#808080" stop-opacity="0.1"/>
</linearGradient>
<clipPath id="clip0">
<rect width="327" height="248.464" fill="white"/>
</clipPath>
</defs>
</svg>
