<svg width="228" height="222" viewBox="0 0 228 222" fill="none" xmlns="http://www.w3.org/2000/svg">
<g clip-path="url(#clip0)">
<path d="M152.053 95.9856L149.652 101.588L134.926 121.117C134.926 121.117 124.841 132.002 130.444 132.642C136.046 133.282 139.728 122.558 139.728 122.558L157.016 105.43L158.936 97.5863L152.053 95.9856Z" fill="#9F616A"/>
<path d="M159.417 73.2554L157.097 73.905C157.097 73.905 146.678 101.583 147.639 104.944C148.599 108.306 152.921 112.468 154.842 112.148C156.763 111.827 159.417 73.2554 159.417 73.2554Z" fill="#605E78"/>
<path d="M191.838 215.493C191.838 215.493 190.819 220.599 193.882 218.556C196.944 216.512 198.541 212.561 198.541 212.561L191.838 215.493Z" fill="#2F2E41"/>
<path d="M155.575 100.308C155.575 100.308 123.081 214.92 134.606 218.281C146.131 221.643 163.099 217.961 162.939 215.72C162.779 213.479 159.897 169.139 159.897 169.139C159.897 169.139 176.705 228.046 197.514 214.279C218.324 200.513 213.682 197.952 211.761 196.992C209.84 196.031 180.867 150.411 181.027 141.927C181.187 133.443 180.707 106.871 177.185 102.869L155.575 100.308Z" fill="#312F44"/>
<path d="M176.214 59.5585C174.964 58.4277 174.184 56.8684 174.03 55.1897C173.875 53.5109 174.357 51.8354 175.379 50.4951C175.244 50.622 175.112 50.7538 174.985 50.8939C173.791 52.2167 173.17 53.9597 173.261 55.7397C173.351 57.5196 174.144 59.191 175.466 60.3863C176.788 61.5816 178.531 62.203 180.311 62.114C182.091 62.0251 183.763 61.2329 184.959 59.9117C185.085 59.7716 185.203 59.6268 185.316 59.4793C184.085 60.6314 182.466 61.2789 180.781 61.2936C179.095 61.3083 177.465 60.689 176.214 59.5585Z" fill="#2F2E41"/>
<path d="M175.585 61.17C183.232 61.17 189.431 54.9708 189.431 47.3238C189.431 39.6767 183.232 33.4775 175.585 33.4775C167.938 33.4775 161.738 39.6767 161.738 47.3238C161.738 54.9708 167.938 61.17 175.585 61.17Z" fill="#2F2E41"/>
<path d="M138.287 217.801C138.287 217.801 134.605 221.482 138.287 221.482C141.969 221.482 145.49 219.081 145.49 219.081L138.287 217.801Z" fill="#2F2E41"/>
<path d="M166.781 55.9678C166.781 55.9678 169.182 65.8923 167.421 67.8132C165.66 69.734 161.818 71.1747 161.818 71.1747L162.459 89.1028C162.459 89.1028 169.822 86.5416 170.142 86.2215C170.462 85.9013 177.025 75.4966 177.025 75.4966L183.428 69.4139C183.428 69.4139 173.664 64.7718 176.545 56.7682C179.426 48.7646 166.781 55.9678 166.781 55.9678Z" fill="#9F616A"/>
<path d="M180.92 52.6589C181.656 48.1211 178.575 43.8456 174.037 43.1093C169.499 42.3729 165.224 45.4545 164.487 49.9922C163.751 54.53 166.832 58.8054 171.37 59.5418C175.908 60.2782 180.183 57.1966 180.92 52.6589Z" fill="#9F616A"/>
<path d="M177.185 102.869C177.185 102.869 180.867 90.7036 182.628 89.1028C184.389 87.5021 188.711 72.4553 188.711 72.4553C188.711 72.4553 185.989 68.7737 183.748 68.7737C181.507 68.7737 179.426 69.574 176.865 71.9751C175.659 73.1059 173.459 74.3499 171.469 75.3499C170.763 75.7108 169.992 75.9273 169.201 75.9868C168.41 76.0464 167.615 75.9477 166.863 75.6966C166.11 75.4455 165.415 75.047 164.819 74.5243C164.222 74.0017 163.736 73.3654 163.388 72.6526C162.99 71.8071 162.859 70.9969 163.259 70.3744C163.259 70.3744 157.336 71.9751 157.016 74.2161C156.696 76.4571 157.016 81.0992 156.536 82.0597C156.056 83.0201 154.615 84.4608 155.255 90.5435C155.896 96.6262 154.587 104.318 154.587 104.318C160.567 110.024 168.851 106.502 177.185 102.869Z" fill="#605E78"/>
<path d="M172.623 48.6844C176.513 48.6844 179.666 46.5344 179.666 43.8822C179.666 41.2301 176.513 39.0801 172.623 39.0801C168.733 39.0801 165.58 41.2301 165.58 43.8822C165.58 46.5344 168.733 48.6844 172.623 48.6844Z" fill="#2F2E41"/>
<path d="M184.629 43.5623C188.342 43.5623 191.352 40.5523 191.352 36.8392C191.352 33.1262 188.342 30.1162 184.629 30.1162C180.916 30.1162 177.906 33.1262 177.906 36.8392C177.906 40.5523 180.916 43.5623 184.629 43.5623Z" fill="#2F2E41"/>
<path d="M189.431 41.6415C187.745 41.6413 186.121 41.0076 184.88 39.8662C183.64 38.7247 182.873 37.1588 182.733 35.4788C182.718 35.6637 182.708 35.8502 182.708 36.039C182.708 37.8214 183.416 39.5307 184.676 40.7913C185.937 42.0518 187.646 42.7603 189.428 42.761C191.21 42.7618 192.92 42.0547 194.181 40.7953C195.443 39.5359 196.152 37.8271 196.154 36.0447V36.039C196.154 35.8502 196.144 35.6637 196.129 35.4788C195.989 37.1588 195.222 38.7247 193.982 39.8662C192.741 41.0076 191.117 41.6413 189.431 41.6415Z" fill="#2F2E41"/>
<path d="M173.662 144.463H171.426L166.956 183.447L181.697 182.952L173.662 144.463Z" fill="#3F3D56"/>
<path opacity="0.2" d="M173.662 144.463H171.426L166.956 183.447L181.697 182.952L173.662 144.463Z" fill="#312F44"/>
<path d="M172.917 143.966L170.186 183.2L203.642 185.683L206.373 147.442L172.917 143.966Z" fill="#605E78"/>
<path opacity="0.2" d="M184.182 147.94C184.457 147.94 184.68 147.717 184.68 147.442C184.68 147.167 184.457 146.944 184.182 146.944C183.907 146.944 183.684 147.167 183.684 147.442C183.684 147.717 183.907 147.94 184.182 147.94Z" fill="#312F44"/>
<path opacity="0.2" d="M194.61 149.18C194.885 149.18 195.108 148.957 195.108 148.682C195.108 148.407 194.885 148.184 194.61 148.184C194.335 148.184 194.112 148.407 194.112 148.682C194.112 148.957 194.335 149.18 194.61 149.18Z" fill="#312F44"/>
<path d="M194.734 148.685H194.487C194.487 148.579 194.662 138.105 188.647 137.139C187.462 136.95 186.493 137.218 185.768 137.936C183.284 140.399 184.311 147.356 184.322 147.424L184.078 147.462C184.033 147.17 183.023 140.31 185.596 137.761C186.38 136.981 187.424 136.689 188.688 136.892C194.913 137.888 194.738 148.579 194.734 148.685Z" fill="#3F3D56"/>
<path d="M189.19 94.5454L188.39 103.509L189.991 130.402C189.991 130.402 193.672 144.008 188.07 143.688C182.467 143.367 184.548 129.441 184.548 129.441L181.987 98.2271L189.19 94.5454Z" fill="#9F616A"/>
<path d="M184.549 70.2139L188.711 72.4549C188.711 72.4549 194.313 110.534 191.112 114.216C187.91 117.897 181.347 119.338 181.027 117.897C180.707 116.457 179.586 87.1815 179.586 87.1815L184.549 70.2139Z" fill="#605E78"/>
</g>
<defs>
<clipPath id="clip0">
<rect width="227.391" height="221.971" fill="white"/>
</clipPath>
</defs>
</svg>
