<svg width="120" height="34" viewBox="0 0 120 34" fill="none" xmlns="http://www.w3.org/2000/svg">
<path d="M2.88286 25.6326C2.88286 23.374 2.85078 21.1194 2.90119 18.8608C2.90119 18.8608 2.95161 17.7843 2.88286 17.7884C2.42454 17.8209 0 17.7884 0 17.7884C0 17.1791 0 14.9651 0 14.7417C0 14.567 1.09273e-07 14.628 1.11373 14.628C1.11373 14.628 7.20945 14.6361 10.2573 14.6239C11.3985 14.6605 11.3481 14.6605 11.3481 14.6605L11.3115 17.7884H8.43776C8.43776 17.7884 8.43776 17.7884 8.43776 18.7755C8.49275 20.9651 8.45151 23.1546 8.46067 25.3442C8.46067 25.6001 8.46067 25.6854 8.47442 26.2907C9.39107 25.592 9.39107 25.592 9.39107 25.592C9.39107 25.592 13.1768 22.4762 14.6618 21.1235H16.2659H20.3909H21.0784L20.3909 21.7328L7.32861 33.6027C7.32861 33.6027 6.61362 33.6027 6.0178 33.6027C2.88744 33.6149 2.88286 33.6027 2.88286 33.6027C2.87828 31.86 2.88286 27.3834 2.88286 25.6326Z" fill="black"/>
<path d="M101.455 30.2639C106.863 30.2802 114.586 30.2477 119.994 30.2639C119.994 30.2639 120.008 30.4914 119.994 31.9579C119.971 33.9443 119.994 33.6762 119.994 33.6762C114.737 33.6884 107.555 33.6762 102.293 33.6762C101.005 33.6762 99.4518 33.7168 98.0768 33.5137C96.2343 32.9491 95.9227 31.4217 95.8768 29.8374C95.8081 27.2497 95.8677 24.658 95.8493 22.0663C95.8447 21.461 95.8493 21.2295 95.8493 21.2295C96.9906 21.2539 100.318 21.2945 101.455 21.2295C101.455 21.2295 101.491 21.4448 101.473 22.2897C101.423 24.5443 101.459 26.7988 101.455 29.0493V30.2639Z" fill="black"/>
<path d="M23.874 33.6799C22.3477 33.6799 19.9278 33.6393 18.4016 33.6799L18.397 32.8715C18.4245 32.64 18.4016 30.7389 18.4016 30.5032H20.2349C21.3073 30.5032 21.3073 30.5032 21.3073 30.5032C21.2707 27.9075 21.3073 21.1235 21.3073 21.1235H21.9948H25.7898H26.5781C26.5552 23.5812 26.6377 28.0456 26.5781 30.5032C26.5781 30.5032 26.5781 30.4667 27.8935 30.5032C29.4884 30.5032 29.5572 30.5032 29.5572 30.5032C29.5572 33.6718 29.5572 33.6799 29.5572 33.6799C28.3335 33.6962 25.0931 33.6799 23.874 33.6799Z" fill="black"/>
<path d="M40.3187 33.6843C40.2729 31.9376 40.3187 29.1874 40.3187 27.4407V21.1279H34.7867C34.8051 24.8246 34.8005 29.9877 34.7867 33.6843H40.3187Z" fill="black"/>
<path d="M83.974 17.9836C82.4523 17.9836 80.0415 17.9592 78.5199 17.9836C78.5199 17.9836 78.5062 17.8576 78.5199 17.2524C78.5795 14.2666 78.5199 14.7703 78.5199 14.7703C80.9582 14.7419 87.2418 14.811 89.6755 14.7703C89.6755 14.7703 89.6251 17.2483 89.6755 17.9876C88.571 17.9836 85.0785 17.9836 83.974 17.9836Z" fill="black"/>
<path d="M69.6609 26.6077C71.3246 25.064 73.992 22.6998 75.6191 21.1237C78.8549 21.1562 84.7902 21.1968 88.0259 21.1074C87.9526 23.431 88.0489 28.1432 87.9939 30.4668H90.973V33.7166C87.7372 33.7897 82.9798 33.7207 79.744 33.7166V30.4668H82.494C82.494 28.1513 82.4894 23.9957 82.4894 21.6843L69.6609 33.7166C66.5947 33.6679 64.161 33.7166 64.161 33.7166C64.161 30.7877 64.1197 24.0363 64.0831 21.1074L67.1401 21.1237L69.6609 21.1074C69.6013 22.448 69.6609 24.8487 69.6609 26.1933C69.6609 26.2015 69.6609 26.6077 69.6609 26.6077Z" fill="black"/>
<path d="M63.9177 13.6204L69.6605 13.6123L69.6789 18.357C69.6789 18.357 65.1185 18.4382 63.9177 18.4464V13.6204Z" fill="#5BB67C"/>
<path d="M60.0359 6.5117L65.9941 6.49951V11.7439C65.9941 11.7439 61.2825 11.7723 60.0359 11.7804V6.5117Z" fill="#5BB67C"/>
<path d="M72.8692 0.00406234L74.7025 0V1.61271C74.7025 1.61271 73.2542 1.62083 72.8692 1.6249V0.00406234Z" fill="#5BB67C"/>
<path d="M68.2857 6.91779L72.8552 6.90967V10.9719C72.8552 10.9719 69.2436 10.9638 68.2857 10.9719V6.91779Z" fill="#5BB67C"/>
<path d="M119.971 15.0872C119.976 14.945 119.985 14.8028 119.989 14.6606L119.971 15.0872Z" fill="black"/>
<path d="M36.3816 17.8738C30.7809 17.8738 25.1756 17.8738 19.5749 17.8657C19.2494 17.8657 18.7865 17.8738 18.5574 17.8738L20.849 16.2489L23.1406 14.624C32.5134 14.7703 43.8936 14.7175 53.2709 14.7296C55.0171 14.7337 56.7862 14.6525 58.4316 15.2334C59.8616 15.7371 60.3428 17.0532 60.4345 18.2638C60.5399 19.6734 60.4895 21.0952 60.4528 22.5088C60.4116 24.0687 58.89 25.7018 57.0567 25.848C52.7026 26.1973 43.9532 25.848 43.9532 25.848C43.9532 25.848 43.9532 25.848 43.9532 23.8737V22.7932C46.6939 22.846 50.7684 22.7648 53.5138 22.7932C54.5725 22.8054 55.0675 22.4235 55.0354 21.4811C55.0125 20.7418 55.0446 19.9984 55.0263 19.259C55.0034 18.211 54.6 17.8779 53.2984 17.8738C47.661 17.8698 42.019 17.8738 36.3816 17.8738Z" fill="black"/>
<path d="M119.16 14.624C119.059 15.5746 119.16 17.8738 119.16 17.8738H116.323H95.7854C95.7854 17.8738 96.4729 16.2245 97.8479 15.4365C99.0258 14.7621 99.6812 14.7865 99.6812 14.7865C99.6812 14.7865 113.688 14.6321 119.16 14.624Z" fill="black"/>
<path d="M69.2021 2.85172L72.4013 2.84766L72.4104 5.63842C72.4104 5.63842 69.8713 5.68717 69.2021 5.69123V2.85172Z" fill="#5BB67C"/>
</svg>
