<svg width="227" height="75" viewBox="0 0 227 75" fill="none" xmlns="http://www.w3.org/2000/svg">
<path d="M5.4454 56.5056C5.4454 51.5266 5.3848 46.5565 5.48003 41.5775C5.48003 41.5775 5.57526 39.2044 5.4454 39.2134C4.57968 39.285 0 39.2134 0 39.2134C0 37.8701 0 32.9896 0 32.4971C0 32.112 2.06405e-07 32.2463 2.10371 32.2463C2.10371 32.2463 13.6178 32.2642 19.3749 32.2374C21.5306 32.318 21.4353 32.318 21.4353 32.318L21.3661 39.2134H15.938C15.938 39.2134 15.938 39.2134 15.938 41.3895C16.0419 46.2162 15.964 51.043 15.9813 55.8698C15.9813 56.434 15.9813 56.622 16.0072 57.9563C17.7387 56.4161 17.7387 56.4161 17.7387 56.4161C17.7387 56.4161 24.8896 49.5475 27.6945 46.5655H30.7246H38.5161H39.8147L38.5161 47.9087L13.8429 74.0755C13.8429 74.0755 12.4924 74.0755 11.367 74.0755C5.45406 74.1023 5.4454 74.0755 5.4454 74.0755C5.43675 70.2337 5.4454 60.3652 5.4454 56.5056Z" fill="black"/>
<path d="M191.637 66.7154C201.852 66.7512 216.44 66.6796 226.655 66.7154C226.655 66.7154 226.681 67.2169 226.655 70.4496C226.612 74.8285 226.655 74.2375 226.655 74.2375C216.725 74.2643 203.159 74.2375 193.221 74.2375C190.788 74.2375 187.853 74.327 185.256 73.8793C181.776 72.6345 181.187 69.2675 181.101 65.7751C180.971 60.0709 181.083 54.3577 181.049 48.6445C181.04 47.3102 181.049 46.7998 181.049 46.7998C183.205 46.8535 189.49 46.9431 191.637 46.7998C191.637 46.7998 191.706 47.2744 191.671 49.137C191.576 54.107 191.645 59.0769 191.637 64.0379V66.7154Z" fill="black"/>
<path d="M45.0943 74.2458C42.2114 74.2458 37.6404 74.1563 34.7576 74.2458L34.7489 72.4638C34.8008 71.9534 34.7576 67.7625 34.7576 67.2431H38.2205C40.2463 67.2431 40.2463 67.2431 40.2463 67.2431C40.177 61.521 40.2463 46.5664 40.2463 46.5664H41.5448H48.713H50.2021C50.1588 51.9841 50.3146 61.8254 50.2021 67.2431C50.2021 67.2431 50.2021 67.1625 52.6867 67.2431C55.6994 67.2431 55.8293 67.2431 55.8293 67.2431C55.8293 74.2279 55.8293 74.2458 55.8293 74.2458C53.5178 74.2816 47.3971 74.2458 45.0943 74.2458Z" fill="black"/>
<path d="M76.1583 74.2554C76.0717 70.4047 76.1583 64.3421 76.1583 60.4914V46.5752H65.709C65.7436 54.7243 65.735 66.1062 65.709 74.2554H76.1583Z" fill="black"/>
<path d="M158.617 39.6434C155.743 39.6434 151.189 39.5897 148.315 39.6434C148.315 39.6434 148.289 39.3658 148.315 38.0315C148.428 31.4495 148.315 32.5599 148.315 32.5599C152.921 32.4973 164.79 32.6495 169.387 32.5599C169.387 32.5599 169.292 38.0225 169.387 39.6523C167.3 39.6434 160.704 39.6434 158.617 39.6434Z" fill="black"/>
<path d="M131.582 58.6556C134.724 55.2526 139.763 50.0407 142.836 46.5661C148.948 46.6377 160.159 46.7273 166.271 46.5303C166.133 51.6526 166.314 62.0407 166.21 67.163H171.838V74.3272C165.726 74.4884 156.739 74.3362 150.627 74.3272V67.163H155.822C155.822 62.0586 155.813 52.8974 155.813 47.8019L131.582 74.3272C125.79 74.2197 121.193 74.3272 121.193 74.3272C121.193 67.8705 121.115 52.987 121.046 46.5303L126.82 46.5661L131.582 46.5303C131.469 49.4855 131.582 54.778 131.582 57.7422C131.582 57.7601 131.582 58.6556 131.582 58.6556Z" fill="black"/>
<path d="M120.734 30.0252L131.581 30.0073L131.616 40.4675C131.616 40.4675 123.002 40.6466 120.734 40.6646V30.0252Z" fill="white"/>
<path d="M113.402 14.3545L124.656 14.3276V25.8886C124.656 25.8886 115.756 25.9513 113.402 25.9692V14.3545Z" fill="white"/>
<path d="M137.642 0.00895406L141.105 0V3.55468C141.105 3.55468 138.369 3.57259 137.642 3.58154V0.00895406Z" fill="white"/>
<path d="M128.985 15.2498L137.616 15.2319V24.1865C137.616 24.1865 130.794 24.1686 128.985 24.1865V15.2498Z" fill="white"/>
<path d="M226.611 33.2593C226.62 32.9456 226.637 32.632 226.646 32.3184L226.611 33.2593Z" fill="black"/>
<path d="M68.7213 39.401C58.1422 39.401 47.5543 39.401 36.9752 39.383C36.3605 39.383 35.4861 39.401 35.0533 39.401L39.3819 35.8189L43.7105 32.2368C61.4146 32.5592 82.9105 32.4428 100.623 32.4697C103.922 32.4786 107.263 32.2995 110.371 33.5801C113.072 34.6905 113.981 37.592 114.155 40.2607C114.354 43.3681 114.258 46.5024 114.189 49.6188C114.111 53.0576 111.237 56.6576 107.774 56.98C99.5498 57.7501 83.0231 56.98 83.0231 56.98C83.0231 56.98 83.0231 56.98 83.0231 52.6278V50.2457C88.2001 50.3621 95.8964 50.183 101.082 50.2457C103.082 50.2726 104.017 49.4308 103.956 47.3532C103.913 45.7233 103.974 44.0845 103.939 42.4547C103.896 40.1442 103.134 39.4099 100.675 39.401C90.0268 39.392 79.3697 39.401 68.7213 39.401Z" fill="black"/>
<path d="M225.079 32.2368C224.889 34.3327 225.079 39.4023 225.079 39.4023H219.721H180.928C180.928 39.4023 182.226 35.7658 184.823 34.0282C187.048 32.5414 188.286 32.5951 188.286 32.5951C188.286 32.5951 214.743 32.2547 225.079 32.2368Z" fill="black"/>
<path d="M130.715 6.28727L136.758 6.27832L136.775 12.4295C136.775 12.4295 131.979 12.5369 130.715 12.5459V6.28727Z" fill="white"/>
</svg>
