<svg width="36" height="50" viewBox="0 0 36 50" fill="none" xmlns="http://www.w3.org/2000/svg">
<path d="M34.5152 28.8636C33.8334 28.4848 33.1515 28.1818 32.4697 27.9545V22.803C32.4697 22.2727 32.1667 21.8182 31.7121 21.5151C31.2576 21.2121 30.7273 21.2121 30.197 21.4394L28.6818 22.197C27.8485 21.0606 26.4849 20.303 25.0455 20.303H22.5455L21.6364 18.9394C23.0758 18.0303 24.2879 16.5151 25.1212 14.697C27.2424 14.3182 27.8485 10.5303 26.1061 9.24242C25.8788 4.16666 22.697 0.757568 18 0.757568C13.3031 0.757568 10.1212 4.16666 9.89396 9.24242C8.15154 10.5303 8.7576 14.3182 10.8788 14.697C11.7121 16.5909 12.9243 18.0303 14.3637 18.9394L13.3788 20.3788H10.8788C9.43942 20.3788 8.07578 21.0606 7.24245 22.2727L5.7273 21.5151C5.27275 21.2879 4.66669 21.2879 4.21214 21.5909C3.7576 21.8939 3.45457 22.3485 3.45457 22.8788V28.0303C2.77275 28.2576 2.09093 28.6364 1.40911 28.9394C0.651539 29.3182 0.121235 30.0758 0.121235 30.9848V35.4545C0.121235 36.2879 0.575781 37.0454 1.40911 37.5C2.01517 37.803 2.69699 38.1061 3.37881 38.4091H3.45457V41.1364C3.45457 41.7424 3.7576 42.197 4.2879 42.5L17.6212 49.3182C17.7728 49.2424 17.9243 49.2424 18 49.2424C18.0758 49.2424 18.2273 49.2424 18.3031 49.1667L31.6364 42.3485C32.1667 42.1212 32.4697 41.5909 32.4697 40.9848V38.2576C33.1515 38.0303 33.8334 37.6515 34.5152 37.3485C35.2728 36.9697 35.8031 36.2121 35.8031 35.303V30.8333C35.8031 30 35.3485 29.2424 34.5152 28.8636ZM18 2.27272C21.0303 2.27272 23.2273 3.93939 24.1364 6.66666L23.6818 6.0606C23.4546 5.75757 23 5.60605 22.697 5.83333C19.5909 7.80302 16.4849 7.80302 13.3788 5.83333C13.0758 5.60605 12.6212 5.68181 12.394 6.0606L11.9394 6.66666C12.7728 3.93939 14.9697 2.27272 18 2.27272ZM12.1667 13.6364C12.0152 13.3333 11.7879 13.1061 11.4849 13.1061C11.4091 13.1061 11.4091 13.1061 11.3334 13.1061H11.2576C11.0303 13.1061 10.5758 12.6515 10.5 11.8182C10.4243 10.9848 10.7273 10.4545 10.9546 10.3788C11.1818 10.303 11.2576 10.2273 11.4091 9.99999L13.2273 7.42424C16.4849 9.24242 19.7424 9.24242 22.9243 7.42424L24.7424 9.99999C24.8182 10.1515 24.9697 10.303 25.197 10.3788C25.4243 10.4545 25.7273 10.9848 25.6515 11.8182C25.5758 12.6515 25.1212 13.1061 24.894 13.1061C24.5152 13.0303 24.1364 13.2576 23.9849 13.5606C22.8485 16.5909 20.5758 18.4091 18.1515 18.4091C15.7273 18.4091 13.3031 16.6667 12.1667 13.6364ZM18 20.0758C18.7576 20.0758 19.5152 19.9242 20.2728 19.697L21.4091 21.3636C21.1061 22.3485 20.197 23.8636 18 24.4697C15.8031 23.8636 14.8182 22.3485 14.5909 21.3636L15.7273 19.697C16.4849 19.9242 17.2424 20.0758 18 20.0758ZM10.8788 21.8939H13.1515C13.6061 23.2576 14.894 25.2273 17.697 25.9848H17.7728C17.8485 25.9848 17.9243 25.9848 17.9243 25.9848C18 25.9848 18.0758 25.9848 18.0758 25.9848C20.9546 25.2273 22.2424 23.3333 22.697 21.8939H24.9697C25.8788 21.8939 26.7121 22.2727 27.2425 22.9545L18 27.7273L8.60608 22.9545C9.13639 22.2727 9.96972 21.8939 10.8788 21.8939ZM2.16669 35.9848C1.93942 35.8333 1.71214 35.6061 1.71214 35.303V30.8333C1.71214 30.5303 1.86366 30.303 2.16669 30.1515C3.83336 29.3182 4.89396 28.9394 5.95457 28.8636H6.03033C6.56063 28.8636 6.93942 29.2424 6.93942 29.7727C6.93942 30.303 6.48487 30.6818 6.03033 30.6818H5.95457H5.87881L4.06063 31.0606C3.68184 31.1364 3.37881 31.5151 3.45457 31.9697C3.53033 32.3485 3.83336 32.5758 4.21214 32.5758C4.2879 32.5758 4.2879 32.5758 4.36366 32.5758L6.03033 32.197C6.56063 32.197 6.93942 32.5757 6.93942 33.0303C6.93942 33.4848 6.56063 33.8636 6.03033 33.9394L4.36366 33.6364C3.98487 33.5606 3.53033 33.7879 3.45457 34.2424C3.37881 34.6212 3.60608 35.0758 4.06063 35.1515L5.87881 35.5303C5.95457 35.5303 5.95457 35.5303 6.03033 35.5303C6.33336 35.5303 6.56063 35.6061 6.71214 35.8333C6.86366 35.9848 6.93942 36.2121 6.93942 36.4394C6.93942 36.8939 6.40911 37.2727 5.87881 37.2727V38.0303L5.80305 37.2727C5.19699 37.2727 4.59093 37.1212 3.90911 36.8182C3.45457 36.6667 2.92427 36.4394 2.16669 35.9848ZM5.04548 38.7121C5.34851 38.7879 5.57578 38.7879 5.87881 38.7879H5.95457C7.31821 38.7879 8.45457 37.803 8.53033 36.5151C8.60608 35.8333 8.37881 35.2273 7.92427 34.7727C8.30305 34.3182 8.60608 33.7879 8.60608 33.1061C8.60608 32.5 8.37881 31.8939 7.92427 31.4394C8.30305 30.9848 8.60608 30.4545 8.60608 29.7727C8.60608 28.4848 7.54548 27.4242 6.2576 27.3485H6.18184C5.80305 27.3485 5.50002 27.3485 5.19699 27.4242V22.6515L17.2424 29.0151V47.197L5.04548 40.9848V38.7121ZM30.9546 40.9848L18.7576 47.2727V29.0909L28.7576 23.9394L30.9546 22.803V27.5758C30.6515 27.5 30.2728 27.5 29.9697 27.5C29.894 27.5 29.894 27.5 29.894 27.5C28.6061 27.5757 27.5455 28.6364 27.5455 29.9242C27.5455 30.5303 27.7728 31.1364 28.2273 31.5909C27.8485 32.0454 27.5455 32.5758 27.5455 33.2576C27.5455 33.8636 27.7728 34.4697 28.2273 34.9242C27.7728 35.3788 27.5455 36.0606 27.6212 36.6667C27.697 37.9545 28.8334 38.9394 30.197 38.9394H30.2728C31.7879 38.7121 30.4243 38.7879 30.9546 40.9848ZM34.2879 35.3788C34.2879 35.6818 34.1364 35.9091 33.8334 36.0606C32.697 36.6667 31.4091 37.2727 30.1212 37.3485C30.0455 37.3485 29.9697 37.3485 30.0455 37.3485C29.5152 37.3485 29.0606 36.9697 28.9849 36.5151C28.9849 36.2879 29.0606 36.0606 29.2121 35.9091C29.3637 35.6818 29.6667 35.6061 29.894 35.6061C30.0455 35.6061 30.0455 35.6061 31.8637 35.2273C32.2425 35.1515 32.5455 34.7727 32.4697 34.3182C32.2424 33.1818 30.7273 34.0151 29.894 34.0909C29.3637 34.0909 28.9849 33.7121 28.9849 33.1818C28.9849 32.7273 29.3637 32.3485 29.894 32.3485C30.6515 32.4242 32.2424 33.2576 32.4697 32.1212C32.5455 31.7424 32.3182 31.2879 31.8637 31.2121L30.1212 30.7576H30.0455H29.9697C29.4394 30.7576 29.0606 30.3788 29.0606 29.8485C29.0606 29.3182 29.5152 28.9394 29.9697 28.9394H30.0455C31.3334 28.9394 32.697 29.6212 33.8334 30.2273C34.0606 30.3788 34.2879 30.6061 34.2879 30.9091V35.3788Z" fill="black"/>
</svg>
