<?xml version="1.0" encoding="UTF-8" standalone="no"?>
<!-- Created with Inkscape (http://www.inkscape.org/) -->

<svg
   width="154.00223mm"
   height="120.26931mm"
   viewBox="0 0 154.00223 120.26931"
   version="1.1"
   id="svg5"
   inkscape:version="1.1 (c68e22c387, 2021-05-23)"
   sodipodi:docname="man-and-diagram.svg"
   xmlns:inkscape="http://www.inkscape.org/namespaces/inkscape"
   xmlns:sodipodi="http://sodipodi.sourceforge.net/DTD/sodipodi-0.dtd"
   xmlns="http://www.w3.org/2000/svg"
   xmlns:svg="http://www.w3.org/2000/svg">
  <sodipodi:namedview
     id="namedview7"
     pagecolor="#ffffff"
     bordercolor="#666666"
     borderopacity="1.0"
     inkscape:pageshadow="2"
     inkscape:pageopacity="0.0"
     inkscape:pagecheckerboard="0"
     inkscape:document-units="mm"
     showgrid="false"
     fit-margin-top="0"
     fit-margin-left="0"
     fit-margin-right="0"
     fit-margin-bottom="0"
     inkscape:zoom="1.1901796"
     inkscape:cx="286.09128"
     inkscape:cy="226.01631"
     inkscape:window-width="1920"
     inkscape:window-height="1051"
     inkscape:window-x="-9"
     inkscape:window-y="-9"
     inkscape:window-maximized="1"
     inkscape:current-layer="layer1" />
  <defs
     id="defs2">
    <linearGradient
       id="paint0_linear"
       x1="347.73999"
       y1="541.724"
       x2="583.70398"
       y2="-278.681"
       gradientUnits="userSpaceOnUse"
       gradientTransform="matrix(0.26458333,0,0,0.26458333,28.388619,70.807993)">
      <stop
         stop-color="#35CC79"
         id="stop24" />
      <stop
         offset="1"
         stop-color="#347D55"
         stop-opacity="0.65"
         id="stop26" />
    </linearGradient>
    <linearGradient
       id="paint0_linear-5"
       x1="7.7028799"
       y1="66.289497"
       x2="98.350197"
       y2="34.6992"
       gradientUnits="userSpaceOnUse"
       gradientTransform="matrix(0.26458333,0,0,0.26458333,30.548865,84.026387)">
      <stop
         stop-color="#BE8515"
         id="stop264" />
      <stop
         offset="1"
         stop-color="#E0A50E"
         stop-opacity="0.49"
         id="stop266" />
    </linearGradient>
    <linearGradient
       id="paint1_linear"
       x1="267.134"
       y1="48.189701"
       x2="312.45801"
       y2="32.394501"
       gradientUnits="userSpaceOnUse"
       gradientTransform="matrix(0.26458333,0,0,0.26458333,30.548865,84.026387)">
      <stop
         stop-color="#BE8515"
         id="stop269" />
      <stop
         offset="1"
         stop-color="#E0A50E"
         stop-opacity="0.49"
         id="stop271" />
    </linearGradient>
    <linearGradient
       id="paint2_linear"
       x1="392.487"
       y1="135.83099"
       x2="443.47601"
       y2="118.061"
       gradientUnits="userSpaceOnUse"
       gradientTransform="matrix(0.26458333,0,0,0.26458333,30.548865,84.026387)">
      <stop
         stop-color="#BE8515"
         id="stop274" />
      <stop
         offset="1"
         stop-color="#E0A50E"
         stop-opacity="0.49"
         id="stop276" />
    </linearGradient>
    <linearGradient
       id="paint3_linear"
       x1="106.993"
       y1="193.495"
       x2="150.065"
       y2="181.95599"
       gradientUnits="userSpaceOnUse"
       gradientTransform="matrix(0.26458333,0,0,0.26458333,30.548865,84.026387)">
      <stop
         stop-color="#35CC79"
         id="stop279" />
      <stop
         offset="1"
         stop-color="#347D55"
         stop-opacity="0.65"
         id="stop281" />
    </linearGradient>
    <linearGradient
       id="paint4_linear"
       x1="146.862"
       y1="191.149"
       x2="192.052"
       y2="184.52"
       gradientUnits="userSpaceOnUse"
       gradientTransform="matrix(0.26458333,0,0,0.26458333,30.548865,84.026387)">
      <stop
         stop-color="#35CC79"
         id="stop284" />
      <stop
         offset="1"
         stop-color="#347D55"
         stop-opacity="0.65"
         id="stop286" />
    </linearGradient>
    <linearGradient
       id="paint5_linear"
       x1="186.73"
       y1="193.495"
       x2="229.802"
       y2="181.95599"
       gradientUnits="userSpaceOnUse"
       gradientTransform="matrix(0.26458333,0,0,0.26458333,30.548865,84.026387)">
      <stop
         stop-color="#35CC79"
         id="stop289" />
      <stop
         offset="1"
         stop-color="#347D55"
         stop-opacity="0.65"
         id="stop291" />
    </linearGradient>
    <linearGradient
       id="paint6_linear"
       x1="226.599"
       y1="190.224"
       x2="272.05701"
       y2="184.565"
       gradientUnits="userSpaceOnUse"
       gradientTransform="matrix(0.26458333,0,0,0.26458333,30.548865,84.026387)">
      <stop
         stop-color="#35CC79"
         id="stop294" />
      <stop
         offset="1"
         stop-color="#347D55"
         stop-opacity="0.65"
         id="stop296" />
    </linearGradient>
    <linearGradient
       id="paint7_linear"
       x1="266.46701"
       y1="188.55701"
       x2="312.19199"
       y2="184.08501"
       gradientUnits="userSpaceOnUse"
       gradientTransform="matrix(0.26458333,0,0,0.26458333,30.548865,84.026387)">
      <stop
         stop-color="#35CC79"
         id="stop299" />
      <stop
         offset="1"
         stop-color="#347D55"
         stop-opacity="0.65"
         id="stop301" />
    </linearGradient>
    <linearGradient
       id="paint8_linear"
       x1="113.798"
       y1="151.963"
       x2="127.879"
       y2="147.005"
       gradientUnits="userSpaceOnUse"
       gradientTransform="matrix(0.26458333,0,0,0.26458333,30.548865,84.026387)">
      <stop
         stop-color="#35CC79"
         id="stop304" />
      <stop
         offset="1"
         stop-color="#347D55"
         stop-opacity="0.65"
         id="stop306" />
    </linearGradient>
    <linearGradient
       id="paint9_linear"
       x1="153.66701"
       y1="122.627"
       x2="167.74899"
       y2="117.669"
       gradientUnits="userSpaceOnUse"
       gradientTransform="matrix(0.26458333,0,0,0.26458333,30.548865,84.026387)">
      <stop
         stop-color="#35CC79"
         id="stop309" />
      <stop
         offset="1"
         stop-color="#347D55"
         stop-opacity="0.65"
         id="stop311" />
    </linearGradient>
    <linearGradient
       id="paint10_linear"
       x1="193.536"
       y1="151.963"
       x2="207.617"
       y2="147.005"
       gradientUnits="userSpaceOnUse"
       gradientTransform="matrix(0.26458333,0,0,0.26458333,30.548865,84.026387)">
      <stop
         stop-color="#35CC79"
         id="stop314" />
      <stop
         offset="1"
         stop-color="#347D55"
         stop-opacity="0.65"
         id="stop316" />
    </linearGradient>
    <linearGradient
       id="paint11_linear"
       x1="233.40401"
       y1="108.334"
       x2="247.48599"
       y2="103.376"
       gradientUnits="userSpaceOnUse"
       gradientTransform="matrix(0.26458333,0,0,0.26458333,30.548865,84.026387)">
      <stop
         stop-color="#35CC79"
         id="stop319" />
      <stop
         offset="1"
         stop-color="#347D55"
         stop-opacity="0.65"
         id="stop321" />
    </linearGradient>
    <linearGradient
       id="paint12_linear"
       x1="273.27301"
       y1="91.784698"
       x2="287.35501"
       y2="86.826698"
       gradientUnits="userSpaceOnUse"
       gradientTransform="matrix(0.26458333,0,0,0.26458333,30.548865,84.026387)">
      <stop
         stop-color="#35CC79"
         id="stop324" />
      <stop
         offset="1"
         stop-color="#347D55"
         stop-opacity="0.65"
         id="stop326" />
    </linearGradient>
    <linearGradient
       id="paint13_linear"
       x1="133.987"
       y1="144.164"
       x2="286.323"
       y2="4.2186499"
       gradientUnits="userSpaceOnUse"
       gradientTransform="matrix(0.26458333,0,0,0.26458333,30.548865,84.026387)">
      <stop
         stop-color="#35CC79"
         id="stop329" />
      <stop
         offset="1"
         stop-color="#347D55"
         stop-opacity="0.65"
         id="stop331" />
    </linearGradient>
    <clipPath
       id="clip0">
      <rect
         width="574"
         height="344.52499"
         fill="#ffffff"
         id="rect334"
         x="0"
         y="0" />
    </clipPath>
  </defs>
  <g
     inkscape:label="Layer 1"
     inkscape:groupmode="layer"
     id="layer1"
     transform="translate(-28.417485,-71.025525)">
    <path
       d="M 128.48234,75.800389 C 96.771768,64.03839 60.741604,74.468133 40.466822,102.00025 29.748141,116.55577 23.767856,135.5518 32.897251,158.7465 c 16.319818,41.46259 52.33498,34.49346 72.774839,26.39218 9.88483,-3.9071 20.24935,-6.41508 30.79379,-7.45119 18.97327,-1.88384 47.35645,-11.14531 40.31853,-50.53754 -5.1009,-28.551712 -27.17958,-43.514904 -48.30207,-51.349561 z"
       fill="url(#paint0_linear)"
       id="path22"
       style="fill:url(#paint0_linear);stroke-width:0.264583" />
    <path
       d="m 40.102281,103.13322 c -1.889495,0 -3.736551,-0.56028 -5.307594,-1.61004 -1.571043,-1.04974 -2.79554,-2.541776 -3.518615,-4.287444 -0.723076,-1.745641 -0.912265,-3.666543 -0.543645,-5.519711 0.368621,-1.853168 1.278499,-3.555444 2.614565,-4.891511 1.336067,-1.336061 3.038317,-2.245936 4.891511,-2.614556 1.853168,-0.368621 3.774043,-0.179432 5.519711,0.543644 1.745642,0.723075 3.237706,1.947564 4.287441,3.518607 1.049734,1.571069 1.610042,3.418099 1.610042,5.307594 -0.0029,2.532856 -1.010311,4.961123 -2.801302,6.752117 -1.790991,1.79099 -4.219284,2.79844 -6.752114,2.8013 z m 0,-18.70877 c -1.810755,0 -3.580844,0.536953 -5.086456,1.542957 -1.505585,1.006015 -2.679046,2.435876 -3.371995,4.108784 -0.692947,1.672934 -0.874252,3.513772 -0.520991,5.289735 0.353261,1.775963 1.225224,3.407304 2.505617,4.687704 1.280398,1.2804 2.91174,2.15236 4.687702,2.5056 1.775963,0.35327 3.616802,0.17195 5.289736,-0.52099 1.672907,-0.69294 3.102795,-1.8664 4.108793,-3.371981 1.005999,-1.505585 1.542945,-3.2757 1.542945,-5.086456 -0.0028,-2.427314 -0.968217,-4.754404 -2.684569,-6.470782 -1.716378,-1.716355 -4.043468,-2.681819 -6.470782,-2.684571 z"
       fill="url(#paint0_linear)"
       id="path192"
       style="fill:url(#paint0_linear-5);stroke-width:0.264583" />
    <path
       d="m 104.98595,97.560433 c -0.94483,0 -1.86849,-0.280141 -2.65404,-0.805021 -0.78528,-0.524854 -1.39753,-1.2709 -1.75921,-2.143707 -0.36143,-0.872834 -0.45615,-1.833272 -0.27173,-2.759869 0.18415,-0.926571 0.63923,-1.777709 1.3073,-2.445756 0.66808,-0.66802 1.51898,-1.122971 2.44581,-1.307279 0.92657,-0.184309 1.88701,-0.08972 2.75961,0.271833 0.87286,0.361526 1.61898,0.973772 2.14392,1.759294 0.52466,0.785547 0.80486,1.709049 0.80486,2.653797 -10e-4,1.266428 -0.50509,2.480574 -1.40071,3.376057 -0.89535,0.895508 -2.10952,1.399222 -3.37581,1.400651 z m 0,-9.155351 c -0.86599,0 -1.71265,0.256805 -2.43285,0.73795 -0.71993,0.481118 -1.28111,1.16496 -1.61263,1.96506 -0.33126,0.8001 -0.41805,1.680501 -0.24924,2.529867 0.16907,0.849391 0.58605,1.629568 1.19856,2.241946 0.61225,0.612352 1.3925,1.029388 2.24182,1.198351 0.84931,0.168937 1.72984,0.08223 2.52994,-0.249184 0.8001,-0.331417 1.48378,-0.892625 1.96506,-1.612689 0.48101,-0.720063 0.73792,-1.566624 0.73792,-2.432658 -0.001,-1.160886 -0.46302,-2.273856 -1.28402,-3.094726 -0.82074,-0.820869 -1.93384,-1.282594 -3.09456,-1.283917 z"
       fill="url(#paint1_linear)"
       id="path194"
       style="fill:url(#paint1_linear);stroke-width:0.264583" />
    <path
       d="m 138.62189,120.84686 c -1.06283,0 -2.10185,-0.31512 -2.98555,-0.90567 -0.88371,-0.59055 -1.57242,-1.42981 -1.97909,-2.41167 -0.40693,-0.98187 -0.51329,-2.06243 -0.30586,-3.10489 0.20717,-1.04246 0.71914,-1.99999 1.47056,-2.7514 0.75168,-0.75168 1.70921,-1.26341 2.75167,-1.47077 1.04219,-0.20732 2.12275,-0.10091 3.10462,0.30581 0.98213,0.40666 1.82139,1.09537 2.41167,1.97935 0.59055,0.8837 0.90567,1.92246 0.90567,2.98529 -0.002,1.42478 -0.56832,2.79082 -1.57559,3.79809 -1.00753,1.00754 -2.37331,1.57427 -3.7981,1.57586 z m 0,-10.3497 c -0.98425,0 -1.94627,0.29183 -2.76436,0.83872 -0.81836,0.54663 -1.456,1.32371 -1.83277,2.23309 -0.3765,0.90911 -0.47493,1.9095 -0.2831,2.8747 0.19208,0.9652 0.66595,1.85181 1.36181,2.54767 0.69585,0.69585 1.58247,1.16972 2.54767,1.36181 0.9652,0.19209 1.96559,0.0934 2.87496,-0.28311 0.90911,-0.37676 1.68619,-1.01441 2.23282,-1.83276 0.54689,-0.8181 0.83873,-1.78012 0.83873,-2.76437 -0.002,-1.31921 -0.52626,-2.58392 -1.45891,-3.51658 -0.93292,-0.93292 -2.19763,-1.45759 -3.51685,-1.45917 z"
       fill="url(#paint2_linear)"
       id="path196"
       style="fill:url(#paint2_linear);stroke-width:0.264583" />
    <path
       d="m 182.22047,175.18169 h -44.78153 c -0.0529,0 -0.10345,-0.0209 -0.14076,-0.0582 -0.0373,-0.0373 -0.0582,-0.0879 -0.0582,-0.14076 0,-0.0526 0.0209,-0.10345 0.0582,-0.14076 0.0373,-0.0373 0.0879,-0.0582 0.14076,-0.0582 h 44.78153 c 0.0529,0 0.10345,0.0209 0.14075,0.0582 0.0373,0.0373 0.0585,0.0881 0.0585,0.14076 0,0.0529 -0.0212,0.10345 -0.0585,0.14076 -0.0373,0.0373 -0.0878,0.0582 -0.14075,0.0582 z"
       fill="#cccccc"
       id="path198"
       style="stroke-width:0.264583" />
    <path
       d="m 158.11031,114.52702 c 2.69954,0 4.88818,-2.18863 4.88818,-4.88833 0,-2.69978 -2.18864,-4.88836 -4.88818,-4.88836 -2.69981,0 -4.88844,2.18858 -4.88844,4.88836 0,2.6997 2.18863,4.88833 4.88844,4.88833 z"
       fill="#ffb8b8"
       id="path200"
       style="stroke-width:0.264583" />
    <path
       d="m 158.61725,167.68711 -2.31034,0.78449 -4.12644,-8.53811 3.40995,-1.15808 z"
       fill="#ffb8b8"
       id="path202"
       style="stroke-width:0.264583" />
    <path
       d="m 154.43234,168.37211 4.45584,-1.51341 0.95303,2.80537 -7.26149,2.46645 c -0.12514,-0.36857 -0.17647,-0.75803 -0.15107,-1.14618 0.0254,-0.3884 0.127,-0.76782 0.29898,-1.1168 0.17224,-0.34899 0.41116,-0.66067 0.70379,-0.91731 0.29236,-0.25665 0.63262,-0.45297 1.00092,-0.57812 z"
       fill="#2f2e41"
       id="path204"
       style="stroke-width:0.264583" />
    <path
       d="m 163.83774,172.50993 -2.43681,0.12224 -1.63221,-9.34138 3.59674,-0.18097 z"
       fill="#ffb8b8"
       id="path206"
       style="stroke-width:0.264583" />
    <path
       d="m 159.62505,172.02363 4.70006,-0.23628 0.14869,2.9591 -7.65916,0.38497 c -0.0196,-0.38867 0.0376,-0.77708 0.16828,-1.14379 0.1307,-0.36645 0.33232,-0.70353 0.5932,-0.99219 0.26114,-0.28866 0.57626,-0.52281 0.92789,-0.68977 0.35163,-0.16668 0.73263,-0.26246 1.12104,-0.28204 z"
       fill="#2f2e41"
       id="path208"
       style="stroke-width:0.264583" />
    <path
       d="m 149.3354,141.47219 c 0.21855,-0.19447 0.39185,-0.43471 0.50747,-0.70353 0.11563,-0.26855 0.17092,-0.55959 0.16219,-0.85195 -0.009,-0.29237 -0.0817,-0.57944 -0.21352,-0.84059 -0.13176,-0.2614 -0.31935,-0.49053 -0.54927,-0.67151 l 2.32357,-6.722 -3.58087,0.91519 -1.65735,6.24311 c -0.27861,0.4064 -0.3982,0.90064 -0.33629,1.38933 0.0616,0.48895 0.30057,0.93794 0.67125,1.26232 0.37095,0.32438 0.84773,0.50139 1.34038,0.49768 0.49266,-0.004 0.96652,-0.18811 1.33244,-0.51805 z"
       fill="#ffb8b8"
       id="path210"
       style="stroke-width:0.264583" />
    <path
       d="m 163.60994,169.69344 c -0.0315,0 -0.063,-0.002 -0.0945,-0.005 l -3.30782,-0.35031 c -0.2032,-0.0206 -0.39343,-0.11033 -0.53816,-0.25427 -0.14499,-0.1442 -0.23601,-0.33364 -0.25771,-0.53657 l -2.5564,-22.79095 -1.84997,6.23676 3.44911,12.25682 c 0.0349,0.12462 0.0426,0.25559 0.0222,0.38365 -0.0206,0.12806 -0.0685,0.2503 -0.14076,0.35798 -0.0722,0.10769 -0.16695,0.19817 -0.27781,0.26564 -0.1106,0.0675 -0.23469,0.11007 -0.36354,0.12489 l -3.35333,0.38549 c -0.21352,0.0236 -0.42836,-0.0299 -0.6059,-0.15081 -0.17753,-0.12118 -0.30585,-0.30162 -0.36195,-0.50906 l -3.66395,-13.79325 c -0.0302,-0.11351 -0.0376,-0.23151 -0.0222,-0.34793 l 1.64677,-12.37933 12.28301,0.98478 0.88821,29.19836 c 0.003,0.11986 -0.0169,0.23918 -0.0603,0.3511 -0.0431,0.11192 -0.10848,0.21379 -0.19208,0.29978 -0.0836,0.0863 -0.18336,0.15451 -0.29396,0.20134 -0.11033,0.0468 -0.22913,0.0709 -0.34898,0.0709 z"
       fill="#2f2e41"
       id="path212"
       style="stroke-width:0.264583" />
    <path
       d="m 159.36417,141.68888 c -4.11506,0 -8.77411,-1.58988 -9.05642,-1.68751 l -0.0815,-0.0283 4.64237,-23.8207 0.0852,0.003 c 1.83991,0.0746 6.86065,0.11298 6.91118,0.11324 l 0.09,7.9e-4 1.93516,21.02115 0.34581,3.07472 -0.0423,0.0344 c -1.18375,0.957 -2.94984,1.28878 -4.82944,1.28878 z"
       fill="#000000"
       id="path214"
       style="stroke-width:0.264583" />
    <path
       d="m 151.92964,139.63043 -2.90353,-1.16973 1.47981,-17.90144 c 0.0357,-0.44133 0.17013,-0.86916 0.39291,-1.25148 0.22304,-0.38259 0.52916,-0.71014 0.89588,-0.95859 l 1.52796,-1.03981 c -0.0434,-0.14684 -0.0511,-0.30215 -0.0228,-0.4527 0.0283,-0.15055 0.0921,-0.29236 0.18574,-0.41354 0.0939,-0.12118 0.2151,-0.21855 0.35375,-0.28364 0.13864,-0.0653 0.29077,-0.0968 0.44397,-0.0918 l 0.43762,0.014 c 0.0831,-0.0561 0.18124,-0.0857 0.28151,-0.0849 0.10055,5.3e-4 0.19818,0.0318 0.28046,0.0889 0.0825,0.0572 0.14552,0.13812 0.18124,0.23178 0.0357,0.0939 0.0421,0.19632 0.0185,0.29369 l -0.0963,1.89679 z"
       fill="#2f2e41"
       id="path216"
       style="stroke-width:0.264583" />
    <path
       d="m 150.46464,136.42103 -3.79121,-0.15954 1.22793,-7.89993 1.01785,-7.43347 c 0.0201,-0.26697 0.10002,-0.52599 0.23416,-0.7575 0.13414,-0.23178 0.31909,-0.42995 0.54054,-0.58023 0.22172,-0.15002 0.4744,-0.24818 0.73925,-0.28708 0.26485,-0.0386 0.53499,-0.0172 0.79031,0.0632 0.39767,0.12462 0.73872,0.3855 0.96335,0.7366 0.22489,0.3511 0.31882,0.76994 0.26564,1.18348 l -1.03108,8.05418 z"
       fill="#2f2e41"
       id="path218"
       style="stroke-width:0.264583" />
    <path
       d="m 156.46778,139.90401 -0.0257,-0.0796 c -0.0177,-0.0548 -1.72614,-5.53535 1.13268,-12.07559 l 1.43352,-7.13025 1.22528,-4.47728 c 0.023,-0.0799 0.0643,-0.15346 0.12065,-0.21484 0.0564,-0.0611 0.12621,-0.10848 0.20399,-0.13812 0.0915,-0.0315 0.19024,-0.0357 0.2839,-0.0116 0.0939,0.0243 0.17833,0.0754 0.24315,0.14711 0.85408,-0.25056 1.77218,-0.15875 2.55958,0.25612 l 1.72059,0.90619 c 0.38259,0.20162 0.68739,0.52441 0.86677,0.91784 0.17939,0.39344 0.22331,0.83529 0.12462,1.25625 l -2.35161,10.03564 1.14326,9.37366 z"
       fill="#2f2e41"
       id="path220"
       style="stroke-width:0.264583" />
    <path
       d="m 158.97153,136.04029 c 0.29078,0.0315 0.58526,-0.001 0.86201,-0.0955 0.27702,-0.0945 0.52996,-0.24844 0.74083,-0.45111 0.21088,-0.20268 0.37492,-0.44927 0.48022,-0.72232 0.10557,-0.27278 0.14976,-0.56568 0.12965,-0.85751 l 5.32527,-3.94494 -1.86135,-0.88238 -5.74225,2.95777 c -0.48815,0.0662 -0.9353,0.30904 -1.25624,0.68263 -0.32094,0.37359 -0.49398,0.85196 -0.48578,1.34461 0.008,0.49265 0.19659,0.96494 0.5297,1.32794 0.33311,0.36275 0.78793,0.59082 1.27794,0.64082 z"
       fill="#ffb8b8"
       id="path222"
       style="stroke-width:0.264583" />
    <path
       d="m 162.31031,134.27447 -1.79864,-3.35757 4.43574,-2.91914 -2.16456,-7.7642 c -0.0868,-0.31089 -0.10848,-0.63633 -0.0638,-0.95594 0.0447,-0.31962 0.15478,-0.62654 0.32358,-0.9017 0.16854,-0.27517 0.39211,-0.5125 0.6567,-0.69744 0.26458,-0.18468 0.56435,-0.31301 0.88053,-0.37704 0.55907,-0.11138 1.13956,-0.0161 1.6338,0.26803 0.49424,0.28416 0.86837,0.73819 1.05331,1.27741 l 2.92073,8.5852 c 0.0601,0.17674 0.0635,0.36803 0.01,0.54715 -0.054,0.17886 -0.16245,0.33629 -0.31062,0.45059 z"
       fill="#2f2e41"
       id="path224"
       style="stroke-width:0.264583" />
    <path
       d="m 158.45612,110.67548 c -0.58605,0.0762 -1.02791,-0.52329 -1.23296,-1.07751 -0.20505,-0.55422 -0.36142,-1.19946 -0.87074,-1.49884 -0.69612,-0.40902 -1.58671,0.0829 -2.38258,-0.052 -0.89905,-0.1524 -1.48351,-1.10506 -1.52929,-2.01562 -0.0458,-0.91059 0.31671,-1.78639 0.67231,-2.62594 l 0.12409,1.04338 c -0.0167,-0.35364 0.0577,-0.70559 0.2159,-1.02224 0.15848,-0.31665 0.39529,-0.58738 0.68818,-0.78629 l -0.16007,1.53096 c 0.0341,-0.21122 0.10953,-0.41362 0.22198,-0.59563 0.11245,-0.18201 0.25982,-0.33999 0.43339,-0.46493 0.17383,-0.12493 0.37042,-0.21431 0.57891,-0.26305 0.20823,-0.0487 0.42413,-0.0558 0.63526,-0.0209 l -0.0254,0.9122 c 1.03823,-0.12346 2.08571,-0.2471 3.12685,-0.15304 1.0414,0.0941 2.08994,0.42352 2.87919,1.10932 1.18058,1.02582 1.61185,2.71495 1.46712,4.27223 -0.14473,1.55715 -0.78767,3.0203 -1.45759,4.43344 -0.16854,0.3556 -0.4019,0.75671 -0.79269,0.80195 -0.3511,0.0408 -0.67257,-0.25268 -0.78185,-0.58896 -0.0841,-0.34502 -0.0807,-0.70565 0.01,-1.04908 0.099,-0.52493 0.22331,-1.0615 0.13044,-1.5875 -0.0929,-0.52596 -0.47122,-1.04573 -1.00145,-1.11019 -0.53022,-0.0645 -1.07262,0.54158 -0.81783,1.01098 z"
       fill="#2f2e41"
       id="path226"
       style="stroke-width:0.264583" />
    <path
       d="m 94.49892,164.35018 -1.902883,-0.80116 -1.305189,-9.53928 h -17.38339 l -1.414727,9.50013 -1.702594,0.85142 c -0.08123,0.0405 -0.146579,0.10769 -0.185208,0.19024 -0.03863,0.0823 -0.04815,0.17542 -0.02725,0.26405 0.0209,0.0886 0.07117,0.16775 0.14261,0.22411 0.07117,0.0566 0.159809,0.0873 0.250825,0.0873 h 23.371175 c 0.09313,0 0.183621,-0.0323 0.255852,-0.0913 0.07223,-0.0593 0.121973,-0.14155 0.140229,-0.23284 0.01852,-0.0915 0.0048,-0.18653 -0.03889,-0.26908 -0.04366,-0.0826 -0.1143,-0.14737 -0.200555,-0.18362 z"
       fill="#e6e6e6"
       id="path228"
       style="stroke-width:0.264583" />
    <path
       d="M 125.39008,155.27894 H 39.998935 c -0.448019,-0.001 -0.877332,-0.17965 -1.1938,-0.49689 -0.316442,-0.31723 -0.494162,-0.74691 -0.494162,-1.19485 v -12.04146 h 88.767147 v 12.04146 c 0,0.44794 -0.1778,0.87762 -0.49424,1.19485 -0.31644,0.31724 -0.74559,0.49583 -1.1938,0.49689 z"
       fill="#cccccc"
       id="path230"
       style="stroke-width:0.264583" />
    <path
       d="M 127.16755,147.23693 H 38.233132 V 95.714779 c 6.09e-4,-0.540703 0.215689,-1.059074 0.598038,-1.441397 0.382349,-0.382323 0.900721,-0.597376 1.441423,-0.597958 h 84.855287 c 0.54081,5.82e-4 1.05913,0.215661 1.44145,0.597984 0.38232,0.382323 0.59743,0.900668 0.59822,1.441371 z"
       fill="#000000"
       id="path232"
       style="stroke-width:0.264583" />
    <path
       d="M 121.85578,143.49758 H 43.544775 c -0.416851,-5.3e-4 -0.816504,-0.16643 -1.11125,-0.46117 -0.294746,-0.29475 -0.46056,-0.69427 -0.461037,-1.11125 V 98.987172 c 4.77e-4,-0.416877 0.166265,-0.816504 0.461037,-1.111276 0.294746,-0.294773 0.694372,-0.460561 1.11125,-0.461037 h 78.311005 c 0.41672,4.76e-4 0.8165,0.166264 1.11125,0.461037 0.29474,0.294772 0.46037,0.694399 0.4609,1.111276 v 42.937988 c -5.3e-4,0.41698 -0.16616,0.8165 -0.4609,1.11125 -0.29475,0.29474 -0.69453,0.46064 -1.11125,0.46117 z"
       fill="#ffffff"
       id="path234"
       style="stroke-width:0.264583" />
    <path
       d="M 121.11865,165.22648 H 45.288485 c -0.05279,0 -0.103426,-0.0209 -0.140732,-0.0582 -0.03733,-0.0373 -0.05829,-0.0881 -0.05829,-0.14075 0,-0.0529 0.02096,-0.10346 0.05829,-0.14076 0.03731,-0.0373 0.08795,-0.0582 0.140732,-0.0582 h 75.830165 c 0.0529,0 0.10345,0.0209 0.14076,0.0582 0.0373,0.0373 0.0582,0.0878 0.0582,0.14076 0,0.0526 -0.0209,0.10345 -0.0582,0.14075 -0.0373,0.0373 -0.0878,0.0582 -0.14076,0.0582 z"
       fill="#cccccc"
       id="path236"
       style="stroke-width:0.264583" />
    <path
       d="M 114.49877,138.16252 H 50.9017 c -0.05279,0 -0.103426,-0.0212 -0.140759,-0.0585 -0.03731,-0.0373 -0.05829,-0.0878 -0.05829,-0.14075 v -30.48193 c 0,-0.0528 0.02098,-0.1034 0.05829,-0.14074 0.03733,-0.0373 0.08797,-0.0583 0.140759,-0.0583 0.05278,0 0.103399,0.0209 0.140731,0.0583 0.03731,0.0373 0.05829,0.0879 0.05829,0.14074 v 30.28296 h 63.398049 c 0.0527,0 0.10319,0.0209 0.1405,0.0582 0.0376,0.0376 0.0585,0.0881 0.0585,0.14076 0,0.0529 -0.0209,0.10345 -0.0585,0.14075 -0.0373,0.0373 -0.0878,0.0585 -0.1405,0.0585 z"
       fill="#000000"
       id="path238"
       style="stroke-width:0.264583" />
    <path
       d="m 64.489615,135.97309 h -5.784321 c -0.156634,-2.6e-4 -0.306917,-0.0624 -0.417513,-0.1733 -0.11086,-0.1106 -0.173037,-0.26088 -0.173302,-0.41751 v -7.97375 c 2.65e-4,-0.15664 0.06244,-0.30692 0.173302,-0.41751 0.110596,-0.11086 0.260879,-0.17304 0.417513,-0.17331 h 5.784321 c 0.156633,2.7e-4 0.306916,0.0624 0.417512,0.17331 0.11086,0.11059 0.173038,0.26087 0.173302,0.41751 v 7.97375 c -2.64e-4,0.15663 -0.06244,0.30691 -0.173302,0.41751 -0.110596,0.11086 -0.260879,0.17304 -0.417512,0.1733 z"
       fill="url(#paint3_linear)"
       id="path240"
       style="fill:url(#paint3_linear);stroke-width:0.264583" />
    <path
       d="m 75.038287,135.97309 h -5.78432 c -0.156634,-2.6e-4 -0.306917,-0.0624 -0.417777,-0.1733 -0.110596,-0.1106 -0.173038,-0.26088 -0.173038,-0.41751 v -15.53687 c 0,-0.15663 0.06244,-0.30691 0.173038,-0.41751 0.11086,-0.11086 0.261143,-0.17304 0.417777,-0.1733 h 5.78432 c 0.156634,2.6e-4 0.306652,0.0624 0.417513,0.1733 0.11086,0.1106 0.173037,0.26088 0.173302,0.41751 v 15.53687 c -2.65e-4,0.15663 -0.06244,0.30691 -0.173302,0.41751 -0.110861,0.11086 -0.260879,0.17304 -0.417513,0.1733 z"
       fill="url(#paint4_linear)"
       id="path242"
       style="fill:url(#paint4_linear);stroke-width:0.264583" />
    <path
       d="m 85.586696,135.97309 h -5.784321 c -0.156634,-2.6e-4 -0.306917,-0.0624 -0.417513,-0.1733 -0.11086,-0.1106 -0.173037,-0.26088 -0.173302,-0.41751 v -7.97375 c 2.65e-4,-0.15664 0.06244,-0.30692 0.173302,-0.41751 0.110596,-0.11086 0.260879,-0.17304 0.417513,-0.17331 h 5.784321 c 0.156633,2.7e-4 0.306916,0.0624 0.417512,0.17331 0.11086,0.11059 0.173038,0.26087 0.173302,0.41751 v 7.97375 c -2.64e-4,0.15663 -0.06244,0.30691 -0.173302,0.41751 -0.110596,0.11086 -0.260879,0.17304 -0.417512,0.1733 z"
       fill="url(#paint5_linear)"
       id="path244"
       style="fill:url(#paint5_linear);stroke-width:0.264583" />
    <path
       d="m 96.135368,135.97309 h -5.78432 c -0.153194,0.003 -0.301361,-0.0542 -0.411957,-0.16007 -0.11086,-0.10557 -0.175154,-0.25083 -0.178858,-0.40402 v -18.57587 c 0.0037,-0.15293 0.068,-0.29845 0.178858,-0.40402 0.110596,-0.10583 0.258763,-0.16324 0.411957,-0.16007 h 5.78432 c 0.15293,-0.003 0.301096,0.0542 0.411957,0.16007 0.110595,0.10557 0.174889,0.25109 0.178858,0.40402 V 135.409 c -0.004,0.15319 -0.06826,0.29845 -0.178858,0.40402 -0.110861,0.10583 -0.259027,0.16325 -0.411957,0.16007 z"
       fill="url(#paint6_linear)"
       id="path246"
       style="fill:url(#paint6_linear);stroke-width:0.264583" />
    <path
       d="m 106.68378,135.97309 h -5.78432 c -0.15664,0 -0.30692,-0.0624 -0.41752,-0.1733 -0.11086,-0.1106 -0.17303,-0.26088 -0.1733,-0.41751 v -23.89611 c 2.7e-4,-0.15664 0.0624,-0.30665 0.1733,-0.41751 0.1106,-0.11087 0.26088,-0.17304 0.41752,-0.17331 h 5.78432 c 0.15663,2.7e-4 0.30691,0.0624 0.41751,0.17331 0.11086,0.11086 0.17304,0.26087 0.1733,0.41751 v 23.89611 c -2.6e-4,0.15663 -0.0624,0.30691 -0.1733,0.41751 -0.1106,0.11086 -0.26088,0.1733 -0.41751,0.1733 z"
       fill="url(#paint7_linear)"
       id="path248"
       style="fill:url(#paint7_linear);stroke-width:0.264583" />
    <path
       d="m 61.597454,124.42932 c 0.659342,0 1.194065,-0.53472 1.194065,-1.19406 0,-0.65961 -0.534723,-1.19433 -1.194065,-1.19433 -0.659606,0 -1.194329,0.53472 -1.194329,1.19433 0,0.65934 0.534723,1.19406 1.194329,1.19406 z"
       fill="url(#paint8_linear)"
       id="path250"
       style="fill:url(#paint8_linear);stroke-width:0.264583" />
    <path
       d="m 72.146127,116.66724 c 0.659606,0 1.194065,-0.53472 1.194065,-1.19407 0,-0.6596 -0.534459,-1.19433 -1.194065,-1.19433 -0.659606,0 -1.194329,0.53473 -1.194329,1.19433 0,0.65935 0.534723,1.19407 1.194329,1.19407 z"
       fill="url(#paint9_linear)"
       id="path252"
       style="fill:url(#paint9_linear);stroke-width:0.264583" />
    <path
       d="m 82.694535,124.42932 c 0.659606,0 1.194329,-0.53472 1.194329,-1.19406 0,-0.65961 -0.534723,-1.19433 -1.194329,-1.19433 -0.659606,0 -1.194064,0.53472 -1.194064,1.19433 0,0.65934 0.534458,1.19406 1.194064,1.19406 z"
       fill="url(#paint10_linear)"
       id="path254"
       style="fill:url(#paint10_linear);stroke-width:0.264583" />
    <path
       d="m 93.243208,112.88555 c 0.659606,0 1.194065,-0.53472 1.194065,-1.19407 0,-0.6596 -0.534459,-1.19432 -1.194065,-1.19432 -0.659606,0 -1.194329,0.53472 -1.194329,1.19432 0,0.65935 0.534723,1.19407 1.194329,1.19407 z"
       fill="url(#paint11_linear)"
       id="path256"
       style="fill:url(#paint11_linear);stroke-width:0.264583" />
    <path
       d="m 103.79188,108.50707 c 0.65934,0 1.19407,-0.53465 1.19407,-1.19417 0,-0.65953 -0.53473,-1.1942 -1.19407,-1.1942 -0.65961,0 -1.19433,0.53467 -1.19433,1.1942 0,0.65952 0.53472,1.19417 1.19433,1.19417 z"
       fill="url(#paint12_linear)"
       id="path258"
       style="fill:url(#paint12_linear);stroke-width:0.264583" />
    <path
       d="m 82.719671,123.50275 -10.573544,-7.91977 -10.429081,7.81155 -0.238919,-0.31855 10.668,-7.99042 10.523537,7.8822 10.457127,-11.44376 0.04207,-0.0172 10.548409,-4.25006 0.14896,0.3692 -10.506604,4.23328 z"
       fill="url(#paint13_linear)"
       id="path260"
       style="fill:url(#paint13_linear);stroke-width:0.264583" />
  </g>
</svg>
