<svg width="564" height="273" viewBox="0 0 564 273" fill="none" xmlns="http://www.w3.org/2000/svg">
<g clip-path="url(#clip0)">
<path d="M76.735 218.233H500.905V3.49902H76.735V218.233Z" fill="white"/>
<path d="M504.404 221.732H73.2359V0H504.404V221.732ZM80.234 214.734H497.406V6.99807H80.234V214.734Z" fill="#E5E5E5"/>
<path d="M274.705 48.9275V121.811H168.757L149.184 145.296L151.419 121.811H141.895V48.9275H274.705Z" fill="url(#paint0_linear)"/>
<path d="M338.821 53.2515V99.9813H406.75L419.3 115.038L417.867 99.9813H423.973V53.2515H338.821Z" fill="#F0F0F0"/>
<path d="M58.4756 266.069H64.6042L67.52 242.43H58.475L58.4756 266.069Z" fill="#FFB7B7"/>
<path d="M56.9126 264.068L68.9819 264.068H68.9824C71.0223 264.068 72.9786 264.878 74.421 266.321C75.8634 267.763 76.6738 269.719 76.674 271.759V272.009L56.9129 272.01L56.9126 264.068Z" fill="#2F2E41"/>
<path d="M132.106 265.868L138.057 264.403L135.24 240.753L126.456 242.914L132.106 265.868Z" fill="#FFB7B7"/>
<path d="M130.11 264.299L141.829 261.414L141.83 261.414C143.811 260.927 145.904 261.246 147.649 262.302C149.395 263.358 150.649 265.064 151.136 267.045L151.196 267.288L132.008 272.01L130.11 264.299Z" fill="#2F2E41"/>
<path d="M54.7069 260.433L55.9801 253.919C55.9801 253.919 58.3235 228.769 75.1419 203.668L80.6163 176.402C80.6163 176.402 78.9905 155.763 94.6823 144.591L99.5201 141.258L116.482 142.23L120.399 163.677L128.292 214.423C128.292 214.423 130.329 214.614 131.093 220.483C132.645 222.947 133.564 225.757 133.766 228.663C133.766 228.663 137.806 239.806 138.888 248.011L138.761 256.04L130.231 260.584L112.453 210.306L99.7371 182.198C99.7371 182.198 93.617 202.002 84.2429 218.968C84.2429 218.968 71.4035 246.758 68.8384 252.404L66.0376 261.644L54.7069 260.433Z" fill="#2F2E41"/>
<path d="M111.418 98.1021C118.114 98.1021 123.542 92.6743 123.542 85.9787C123.542 79.2831 118.114 73.8552 111.418 73.8552C104.723 73.8552 99.2948 79.2831 99.2948 85.9787C99.2948 92.6743 104.723 98.1021 111.418 98.1021Z" fill="#FFB7B7"/>
<path d="M111.418 98.1021C118.114 98.1021 123.542 92.6743 123.542 85.9787C123.542 79.2831 118.114 73.8552 111.418 73.8552C104.723 73.8552 99.2948 79.2831 99.2948 85.9787C99.2948 92.6743 104.723 98.1021 111.418 98.1021Z" fill="#FFB8B8"/>
<path d="M94.7177 144.72L98.7199 134.723C95.8922 125.565 96.0656 115.742 99.2145 106.689L99.9802 106.058C106.651 100.565 112.505 101.565 117.938 108.285C118.813 109.377 119.837 110.342 120.979 111.151C123.375 112.832 127.176 121.966 122.157 127.32L118.141 150.743C118.564 163.676 109.18 158.806 94.7177 144.72Z" fill="black"/>
<path d="M152.102 131.123C151.585 130.732 150.988 130.459 150.353 130.323C149.719 130.187 149.062 130.192 148.43 130.338C147.797 130.483 147.205 130.766 146.693 131.165C146.182 131.565 145.764 132.071 145.47 132.65L135.357 131.862L133.38 137.891L147.676 138.802C148.681 139.232 149.808 139.279 150.844 138.934C151.881 138.589 152.755 137.875 153.3 136.929C153.846 135.982 154.025 134.868 153.804 133.798C153.584 132.728 152.978 131.777 152.102 131.123H152.102Z" fill="#FFB7B7"/>
<path d="M142.421 140.903L113.605 135.523L104.233 119.81C103.631 118.14 103.717 116.3 104.472 114.693C105.226 113.087 106.588 111.846 108.258 111.244C109.928 110.641 111.768 110.727 113.375 111.482C114.981 112.237 116.222 113.599 116.824 115.269L121.22 127.425L144.009 131.197L142.421 140.903Z" fill="#CCCCCC"/>
<path d="M89.808 83.3234C96.2316 83.3234 101.439 78.1161 101.439 71.6925C101.439 65.2689 96.2316 60.0615 89.808 60.0615C83.3844 60.0615 78.1771 65.2689 78.1771 71.6925C78.1771 78.1161 83.3844 83.3234 89.808 83.3234Z" fill="#2F2E41"/>
<path d="M79.7758 81.3235C81.2812 82.4116 83.0253 83.1233 84.8622 83.3991C86.699 83.6749 88.5752 83.5068 90.3338 82.9089C92.0923 82.3109 93.6821 81.3005 94.9701 79.9622C96.2582 78.6238 97.2069 76.9965 97.7371 75.2163C97.5365 76.8116 97.0073 78.348 96.1829 79.7285C95.3586 81.109 94.2569 82.3036 92.9476 83.2368C91.6383 84.1701 90.1497 84.8218 88.5758 85.1507C87.0019 85.4796 85.3769 85.4786 83.8034 85.1478C82.2299 84.8171 80.7421 84.1636 79.4339 83.2288C78.1257 82.294 77.0255 81.0981 76.2027 79.7167C75.38 78.3352 74.8527 76.7982 74.6539 75.2026C74.4552 73.607 74.5895 71.9876 75.0482 70.4465C74.7877 72.5169 75.0891 74.6193 75.9209 76.5331C76.7527 78.4469 78.0843 80.1016 79.7758 81.3235Z" fill="#2F2E41"/>
<path d="M125.677 81.3367C123.646 77.7016 122.869 76.1831 120.251 73.9727C117.936 72.0177 115.088 71.4436 112.791 73.296C110.074 72.122 107.051 71.8557 104.17 72.5369C101.29 73.218 98.7057 74.8102 96.8021 77.0769C94.8985 79.3435 93.7768 82.1638 93.6036 85.1187C93.4305 88.0736 94.2152 91.0055 95.8411 93.479C97.4669 95.9524 99.8474 97.8355 102.629 98.8483C105.41 99.8612 108.444 99.9499 111.279 99.1012C114.115 98.2525 116.601 96.5118 118.369 94.1376C120.137 91.7633 121.091 88.8822 121.091 85.9222C121.089 85.4024 121.058 84.8832 120.997 84.3669C122.994 84.0865 123.68 81.6171 125.677 81.3367Z" fill="#2F2E41"/>
<path d="M483.229 168.351C483.267 167.548 483.481 166.764 483.855 166.053C484.228 165.342 484.754 164.722 485.393 164.236C486.033 163.75 486.771 163.41 487.556 163.241C488.341 163.071 489.153 163.075 489.937 163.254L497.202 153.015L504.501 155.913L494.038 170.227C493.651 171.523 492.802 172.632 491.653 173.344C490.503 174.056 489.132 174.321 487.8 174.09C486.467 173.858 485.266 173.146 484.424 172.089C483.582 171.031 483.156 169.701 483.229 168.351Z" fill="#A0616A"/>
<path d="M491.199 159.546L504.116 137.821L498.853 123.787L506.021 104.672L506.285 104.786C506.459 104.86 510.532 106.677 511.135 113.186L519.372 139.073L497.389 167.592L491.199 159.546Z" fill="black"/>
<path d="M421.045 79.6779C421.841 79.7778 422.607 80.0512 423.287 80.4789C423.966 80.9066 424.544 81.4782 424.979 82.1533C425.414 82.8284 425.696 83.5908 425.805 84.3866C425.913 85.1824 425.846 85.9923 425.607 86.7593L435.254 94.7943L431.801 101.847L418.338 90.3089C417.076 89.8231 416.036 88.8913 415.415 87.69C414.794 86.4887 414.635 85.1014 414.969 83.791C415.303 82.4806 416.106 81.3381 417.225 80.58C418.345 79.8219 419.704 79.501 421.045 79.6779Z" fill="#A0616A"/>
<path d="M429.207 88.3047L449.869 102.863L464.267 98.701L482.77 107.325L482.637 107.58C482.549 107.747 480.423 111.667 473.887 111.765L447.44 117.976L420.706 93.8538L429.207 88.3047Z" fill="black"/>
<path d="M467.014 265.34H459.83L456.414 237.634L467.015 237.635L467.014 265.34Z" fill="#A0616A"/>
<path d="M454.7 263.288H468.552V272.01H445.978C445.978 270.864 446.203 269.73 446.642 268.672C447.08 267.614 447.723 266.652 448.532 265.842C449.342 265.032 450.304 264.39 451.362 263.952C452.42 263.513 453.554 263.288 454.7 263.288Z" fill="#2F2E41"/>
<path d="M495.722 265.34H488.539L485.122 237.634L495.723 237.635L495.722 265.34Z" fill="#A0616A"/>
<path d="M483.409 263.288H497.261V272.01H474.687C474.687 270.864 474.912 269.73 475.35 268.672C475.789 267.614 476.431 266.652 477.241 265.842C478.051 265.032 479.013 264.39 480.071 263.952C481.129 263.513 482.263 263.288 483.409 263.288Z" fill="#2F2E41"/>
<path d="M498.276 164.213L497.691 205.225L497.105 259.126L484.215 257.955L477.77 183.547L469.568 257.955H456.261L454.921 182.961L459.608 166.556L498.276 164.213Z" fill="#2F2E41"/>
<path d="M458.323 166.807L456.36 166.722L465.48 116.477L461.746 101.29C461.552 100.5 461.654 99.6659 462.034 98.9463C462.414 98.2266 463.044 97.6713 463.806 97.3854L470.525 94.8659L472.899 88.3376L491.628 90.3558L492.089 95.4578C494.118 96.1088 510.832 101.675 509.678 108.017C508.54 114.277 501.82 133.972 501.479 134.97L500.302 163.214L500.157 163.287C499.983 163.374 487.073 169.721 473.049 169.72C467.989 169.805 462.969 168.812 458.323 166.807Z" fill="black"/>
<path d="M481.53 85.1068C488.977 85.1068 495.015 79.0693 495.015 71.6217C495.015 64.174 488.977 58.1365 481.53 58.1365C474.082 58.1365 468.044 64.174 468.044 71.6217C468.044 79.0693 474.082 85.1068 481.53 85.1068Z" fill="#A0616A"/>
<path d="M492.453 84.6759C489.883 87.4134 485.11 85.9439 484.775 82.204C484.749 81.9136 484.751 81.6214 484.781 81.3314C484.954 79.6748 485.911 78.1708 485.681 76.4217C485.629 75.9863 485.467 75.5715 485.21 75.2164C483.162 72.474 478.355 76.4429 476.422 73.9604C475.237 72.4381 476.63 70.0414 475.721 68.34C474.52 66.0945 470.965 67.2022 468.735 65.9725C466.255 64.6042 466.403 60.7982 468.036 58.4831C470.028 55.6599 473.519 54.1534 476.967 53.9363C480.415 53.7192 483.84 54.6513 487.059 55.9058C490.716 57.3312 494.343 59.3011 496.594 62.5172C499.332 66.4284 499.595 71.6865 498.226 76.2599C497.393 79.0419 494.551 82.4404 492.453 84.6759Z" fill="#2F2E41"/>
<path d="M346.347 261.615L348.351 256.461L329.428 246.281L326.471 253.887L346.347 261.615Z" fill="#FFB8B8"/>
<path d="M357.081 248.171C356.232 247.841 355.326 247.681 354.415 247.7C353.503 247.72 352.605 247.919 351.771 248.286C350.937 248.654 350.183 249.181 349.553 249.84C348.924 250.499 348.43 251.275 348.1 252.124L346.748 255.598L344.665 260.96L344.155 262.275L350.832 264.872L357.291 248.255L357.081 248.171Z" fill="#2F2E41"/>
<path d="M344.665 251.697L343.794 254.008L341.62 259.775L341.567 259.919C336.027 260.631 329.954 259.236 324.336 257.068C322.089 256.201 319.887 255.219 317.741 254.125C314.564 252.52 311.72 250.826 309.451 249.377C306.034 247.184 303.922 245.537 303.922 245.537C303.922 245.537 303.364 246.042 302.354 246.907C301 248.065 298.837 249.873 296.097 252.002C295.052 252.82 293.93 253.675 292.731 254.568C283.891 261.125 272.548 243.63 272.548 243.63C272.548 243.63 275.738 241.598 276.571 241.204C279.255 239.934 285.56 236.938 291 234.275C293.802 232.902 296.372 231.614 298.097 230.698C304.206 227.446 311.799 233.6 311.799 233.6L344.665 251.697Z" fill="#2F2E41"/>
<path opacity="0.14" d="M344.665 251.697L343.794 254.008L341.62 259.775L341.567 259.919C336.027 260.631 329.954 259.236 324.336 257.068C322.089 256.201 319.887 255.219 317.741 254.125C314.564 252.52 311.72 250.826 309.451 249.377C306.034 247.184 303.922 245.537 303.922 245.537C303.922 245.537 303.364 246.042 302.354 246.907C301 248.065 298.837 249.873 296.097 252.002C295.052 252.82 293.93 253.675 292.731 254.568C283.891 261.125 272.548 243.63 272.548 243.63C272.548 243.63 275.738 241.598 276.571 241.204C279.255 239.934 285.56 236.938 291 234.275C293.802 232.902 296.372 231.614 298.097 230.698C304.206 227.446 311.799 233.6 311.799 233.6L344.665 251.697Z" fill="black"/>
<path d="M256.248 203.194H230.092C229.554 203.194 229.038 202.98 228.657 202.599C228.277 202.219 228.063 201.703 228.062 201.165V189.891C228.062 185.884 229.654 182.041 232.487 179.208C235.32 176.375 239.163 174.783 243.17 174.783C247.177 174.783 251.019 176.375 253.852 179.208C256.686 182.041 258.277 185.884 258.277 189.891V201.165C258.277 201.703 258.063 202.219 257.682 202.599C257.302 202.98 256.786 203.194 256.248 203.194Z" fill="#2F2E41"/>
<path d="M281.122 217.356C280.514 217.463 279.936 217.702 279.429 218.057C278.923 218.411 278.5 218.872 278.191 219.408C277.882 219.943 277.694 220.54 277.641 221.156C277.588 221.772 277.67 222.392 277.882 222.973L270.77 229.514L273.691 234.806L283.605 225.427C284.557 225.006 285.321 224.25 285.753 223.303C286.185 222.356 286.255 221.284 285.949 220.289C285.643 219.294 284.982 218.446 284.093 217.906C283.203 217.365 282.146 217.17 281.122 217.356V217.356Z" fill="#FFB8B8"/>
<path d="M259.721 247.098C259.4 247.098 259.078 247.084 258.756 247.056C256.837 246.896 254.991 246.251 253.39 245.182C251.789 244.113 250.485 242.654 249.602 240.943L238.208 219.011C237.461 217.574 237.297 215.905 237.75 214.35C238.203 212.795 239.238 211.475 240.64 210.664C242.041 209.853 243.702 209.613 245.276 209.995C246.849 210.377 248.215 211.35 249.089 212.714L259.602 236.301L273.906 224.679L282.189 227.903L268.201 243.345C267.126 244.525 265.817 245.469 264.357 246.115C262.897 246.761 261.318 247.096 259.721 247.098Z" fill="black"/>
<path d="M344.749 268.863L347.142 263.879L329.057 252.275L325.525 259.631L344.749 268.863Z" fill="#FFB8B8"/>
<path d="M356.484 256.284C355.662 255.889 354.771 255.66 353.861 255.609C352.951 255.559 352.04 255.689 351.181 255.991C350.321 256.293 349.529 256.761 348.85 257.369C348.171 257.978 347.619 258.714 347.225 259.535L345.611 262.895L343.121 268.081L342.513 269.353L348.97 272.456L356.687 256.383L356.484 256.284Z" fill="#2F2E41"/>
<path d="M343.834 258.845L342.788 261.082L340.177 266.665L340.113 266.805C334.535 267.089 328.587 265.231 323.152 262.638C320.978 261.601 318.859 260.452 316.803 259.197C313.759 257.352 311.053 255.445 308.902 253.826C305.664 251.377 303.684 249.573 303.684 249.573C303.684 249.573 303.089 250.033 302.015 250.818C300.577 251.869 298.281 253.506 295.386 255.418C294.281 256.153 293.097 256.919 291.833 257.718C282.515 263.576 269.266 270.71 257.996 272.216C238.203 274.864 242.862 248.45 242.862 248.45L258.614 240.27L265.302 241.627L272.747 243.133L275.386 243.67C275.386 243.67 275.886 243.481 276.747 243.151C279.521 242.092 286.038 239.589 291.666 237.352C294.565 236.197 297.226 235.11 299.017 234.33C305.357 231.557 312.455 238.276 312.455 238.276L343.834 258.845Z" fill="#2F2E41"/>
<path d="M214.036 272.847C214.639 272.709 215.204 272.44 215.691 272.06C216.179 271.679 216.577 271.197 216.858 270.646C217.139 270.096 217.295 269.49 217.317 268.872C217.338 268.254 217.224 267.639 216.982 267.07L223.747 260.17L220.556 255.036L211.14 264.915C210.211 265.385 209.487 266.179 209.104 267.147C208.722 268.115 208.708 269.19 209.065 270.168C209.422 271.145 210.125 271.958 211.042 272.452C211.958 272.946 213.024 273.086 214.036 272.847H214.036Z" fill="#FFB8B8"/>
<path d="M246.873 203.698C252.698 203.698 257.42 198.976 257.42 193.152C257.42 187.327 252.698 182.605 246.873 182.605C241.048 182.605 236.327 187.327 236.327 193.152C236.327 198.976 241.048 203.698 246.873 203.698Z" fill="#FFB8B8"/>
<path d="M233.152 222.427L242.339 248.473L242.284 248.564C241.007 250.677 240.589 252.381 241.077 253.492C241.205 253.774 241.394 254.026 241.629 254.228C241.864 254.431 242.14 254.58 242.438 254.666L264.179 239.47L263.418 233.379L263.46 233.311C265.561 229.949 266.242 226.904 265.483 224.262C264.795 222.123 263.31 220.332 261.336 219.26L261.26 219.2L250.416 206.003L235.921 208.578L233.152 222.427Z" fill="black"/>
<path d="M219.181 268.145L213.027 260.57L227.863 236.078L234.781 214.696L234.995 214.766L234.781 214.696C235.159 213.528 235.783 212.455 236.61 211.548C237.438 210.642 238.451 209.923 239.58 209.441C240.709 208.959 241.928 208.724 243.156 208.753C244.383 208.782 245.59 209.074 246.695 209.609C247.8 210.143 248.778 210.909 249.562 211.853C250.346 212.798 250.919 213.9 251.241 215.084C251.563 216.269 251.628 217.509 251.431 218.72C251.234 219.932 250.779 221.088 250.097 222.109L237.398 241.135L219.181 268.145Z" fill="black"/>
<path d="M261.851 191.019H245.857L245.693 188.722L244.873 191.019H242.411L242.086 186.467L240.46 191.019H235.695V190.793C235.699 187.625 236.959 184.587 239.199 182.347C241.44 180.106 244.477 178.846 247.646 178.842H249.901C253.069 178.846 256.107 180.106 258.347 182.347C260.588 184.587 261.848 187.625 261.851 190.793V191.019Z" fill="#2F2E41"/>
<path d="M245.727 205.299C245.606 205.299 245.486 205.288 245.367 205.267L233.656 203.201V183.845H246.548L246.229 184.218C241.788 189.397 245.134 197.795 247.523 202.34C247.699 202.673 247.778 203.048 247.75 203.424C247.722 203.8 247.588 204.159 247.364 204.462C247.177 204.721 246.931 204.932 246.646 205.078C246.361 205.223 246.046 205.299 245.727 205.299Z" fill="#2F2E41"/>
<path d="M420.701 170.623V197.89H299.903L282.46 218.819L284.452 197.89H275.965V170.623H420.701Z" fill="#F0F0F0"/>
<path d="M326.186 189.155C328.915 189.155 331.128 186.942 331.128 184.213C331.128 181.484 328.915 179.271 326.186 179.271C323.456 179.271 321.244 181.484 321.244 184.213C321.244 186.942 323.456 189.155 326.186 189.155Z" fill="white"/>
<path d="M309.507 189.155C312.236 189.155 314.449 186.942 314.449 184.213C314.449 181.484 312.236 179.271 309.507 179.271C306.777 179.271 304.565 181.484 304.565 184.213C304.565 186.942 306.777 189.155 309.507 189.155Z" fill="white"/>
<path d="M292.828 189.155C295.557 189.155 297.769 186.942 297.769 184.213C297.769 181.484 295.557 179.271 292.828 179.271C290.098 179.271 287.886 181.484 287.886 184.213C287.886 186.942 290.098 189.155 292.828 189.155Z" fill="white"/>
<path d="M563.382 272.55H0.617744C0.453908 272.55 0.296782 272.485 0.180932 272.369C0.0650831 272.253 0 272.096 0 271.932C0 271.768 0.0650831 271.611 0.180932 271.495C0.296782 271.38 0.453908 271.314 0.617744 271.314H563.382C563.546 271.314 563.703 271.38 563.819 271.495C563.935 271.611 564 271.768 564 271.932C564 272.096 563.935 272.253 563.819 272.369C563.703 272.485 563.546 272.55 563.382 272.55Z" fill="#CACACA"/>
</g>
<defs>
<linearGradient id="paint0_linear" x1="156.062" y1="137.388" x2="344.544" y2="45.9295" gradientUnits="userSpaceOnUse">
<stop stop-color="#35CC79"/>
<stop offset="1" stop-color="#347D55" stop-opacity="0.65"/>
</linearGradient>
<clipPath id="clip0">
<rect width="564" height="272.961" fill="white"/>
</clipPath>
</defs>
</svg>
