<svg width="25" height="30" viewBox="0 0 25 30" fill="none" xmlns="http://www.w3.org/2000/svg">
<path d="M5.12901 29.3827H8.54834V24.2537H18.8064V20.8344H8.54834V17.415H16.2419C20.9554 17.415 24.7902 13.5803 24.7902 8.8667C24.7902 4.15315 20.9554 0.318359 16.2419 0.318359H6.83868C6.38524 0.318359 5.95038 0.498485 5.62976 0.81911C5.30913 1.13974 5.12901 1.5746 5.12901 2.02803V13.9957H0V17.415H5.12901V20.8344H0V24.2537H5.12901V29.3827ZM8.54834 3.7377H16.2419C19.0696 3.7377 21.3709 6.03891 21.3709 8.8667C21.3709 11.6945 19.0696 13.9957 16.2419 13.9957H8.54834V3.7377Z" fill="black"/>
</svg>
