<svg width="331" height="276" viewBox="0 0 331 276" fill="none" xmlns="http://www.w3.org/2000/svg">
<g clip-path="url(#clip0)">
<path d="M33.8982 252.001L59.3083 234.028C50.7384 225.68 42.9438 213.793 35.4895 200.352L10.0794 218.325C20.2329 229.856 28.8341 241.173 33.8982 252.001Z" fill="#3F3D56"/>
<path d="M33.8909 232.866C29.7489 232.866 26.3912 229.508 26.3912 225.366C26.3912 221.224 29.7489 217.866 33.8909 217.866C38.0328 217.866 41.3906 221.224 41.3906 225.366C41.3906 229.508 38.0328 232.866 33.8909 232.866Z" fill="white"/>
<path d="M156.475 169.988H159.264C159.362 169.988 159.456 170.027 159.525 170.097C159.595 170.166 159.634 170.26 159.634 170.358V171.582C159.634 171.631 159.624 171.679 159.606 171.724C159.587 171.769 159.56 171.81 159.525 171.844C159.491 171.878 159.45 171.905 159.405 171.924C159.361 171.943 159.312 171.952 159.264 171.952H158.802V173.787H156.937V171.952H156.475C156.377 171.952 156.282 171.913 156.213 171.844C156.144 171.775 156.105 171.68 156.105 171.582V170.358C156.105 170.26 156.144 170.166 156.213 170.097C156.282 170.027 156.377 169.988 156.475 169.988Z" fill="#E6E6E6"/>
<path d="M153.681 181.193C155.389 178.694 156.262 175.717 156.175 172.691C156.174 172.621 156.197 172.553 156.24 172.498C156.283 172.443 156.343 172.405 156.412 172.389V171.86H159.357V172.382H159.398C159.438 172.382 159.477 172.39 159.514 172.405C159.55 172.42 159.584 172.443 159.612 172.471C159.64 172.499 159.662 172.532 159.677 172.569C159.692 172.606 159.7 172.645 159.7 172.685C159.7 172.692 159.7 172.699 159.699 172.707C159.427 175.795 160.26 178.879 162.05 181.41C162.154 181.558 162.206 181.735 162.201 181.915L161.879 191.879C161.871 192.101 161.778 192.312 161.618 192.467C161.459 192.622 161.246 192.71 161.023 192.711H154.36C154.136 192.709 153.92 192.62 153.76 192.462C153.601 192.303 153.509 192.089 153.505 191.864L153.381 182.19C153.377 181.835 153.482 181.487 153.681 181.193Z" fill="#3F3D56"/>
<path opacity="0.2" d="M157.055 170.387C157.055 170.599 157.14 170.802 157.289 170.952C157.439 171.101 157.642 171.185 157.853 171.185C158.065 171.185 158.268 171.101 158.417 170.952C158.567 170.802 158.651 170.599 158.651 170.387" fill="black"/>
<path d="M154.978 183.113H160.603V186.863H154.978V183.113Z" fill="white"/>
<path d="M68.2071 208.913H73.4283C73.6119 208.913 73.788 208.986 73.9178 209.116C74.0476 209.246 74.1205 209.422 74.1205 209.605V211.897C74.1205 212.081 74.0476 212.257 73.9178 212.387C73.788 212.516 73.6119 212.589 73.4283 212.589H72.5631V216.023H69.0723V212.589H68.2071C68.0235 212.589 67.8474 212.516 67.7176 212.387C67.5878 212.257 67.5149 212.081 67.5149 211.897V209.605C67.5149 209.422 67.5878 209.246 67.7176 209.116C67.8474 208.986 68.0235 208.913 68.2071 208.913Z" fill="#E6E6E6"/>
<path d="M62.977 229.887C66.1747 225.208 67.8094 219.637 67.6469 213.972C67.644 213.842 67.6865 213.714 67.767 213.611C67.8476 213.508 67.9613 213.436 68.0888 213.407V212.417H73.6032V213.394H73.6791C73.7534 213.394 73.827 213.409 73.8956 213.437C73.9642 213.466 74.0265 213.507 74.079 213.56C74.1315 213.613 74.1731 213.675 74.2014 213.744C74.2298 213.812 74.2443 213.886 74.2442 213.96C74.2442 213.974 74.2437 213.988 74.2427 214.001C73.8082 220.057 75.2752 225.488 78.6435 230.294C78.8374 230.57 78.9364 230.901 78.9257 231.239L78.3228 249.89C78.3083 250.306 78.1337 250.7 77.8354 250.991C77.5371 251.281 77.1382 251.445 76.722 251.448H64.2494C63.8284 251.445 63.4254 251.277 63.1262 250.981C62.827 250.685 62.6553 250.283 62.6477 249.863L62.4153 231.754C62.4084 231.089 62.6044 230.438 62.977 229.887Z" fill="#3F3D56"/>
<path opacity="0.2" d="M69.2952 209.66C69.2952 210.056 69.4526 210.436 69.7326 210.716C70.0127 210.996 70.3926 211.154 70.7887 211.154C71.1848 211.154 71.5646 210.996 71.8447 210.716C72.1248 210.436 72.2821 210.056 72.2821 209.66" fill="black"/>
<path d="M64.9516 236.083H75.808C75.9687 236.083 76.1275 236.118 76.2735 236.185C76.4195 236.252 76.5493 236.35 76.6539 236.472C76.7586 236.594 76.8356 236.737 76.8798 236.892C76.9239 237.046 76.9341 237.208 76.9096 237.367L75.2691 248.031H65.8488L63.8561 237.403C63.8259 237.242 63.8316 237.076 63.8727 236.918C63.9138 236.759 63.9893 236.612 64.0939 236.486C64.1985 236.36 64.3296 236.258 64.4778 236.189C64.6261 236.119 64.7878 236.083 64.9516 236.083Z" fill="white"/>
<path d="M83.1041 251.971H114.228C112.052 240.207 112.552 226.001 114.228 210.723H83.1041C84.7349 226.001 85.2222 240.207 83.1041 251.971Z" fill="#3F3D56"/>
<path d="M98.479 237.722C94.337 237.722 90.9793 234.364 90.9793 230.222C90.9793 226.08 94.337 222.722 98.479 222.722C102.621 222.722 105.979 226.08 105.979 230.222C105.979 234.364 102.621 237.722 98.479 237.722Z" fill="white"/>
<path d="M210.407 122.157L203.42 121.522L198.974 110.724L206.914 106.278L210.407 122.157Z" fill="#FFB8B8"/>
<path d="M146.284 151.801C146.052 151.221 145.961 150.595 146.018 149.973C146.075 149.352 146.279 148.752 146.613 148.225C146.948 147.698 147.402 147.258 147.94 146.941C148.478 146.624 149.083 146.439 149.706 146.402L160.555 145.755L162.152 151.066L150.984 154.133C150.051 154.39 149.056 154.294 148.189 153.863C147.322 153.433 146.644 152.699 146.284 151.801Z" fill="#FFB8B8"/>
<path d="M157.933 154.223L158.053 144.256L182.149 140.411L200.713 119.121C201.679 118.013 203.013 117.293 204.47 117.094C205.926 116.895 207.405 117.23 208.632 118.038C209.376 118.527 210.003 119.173 210.469 119.931C210.935 120.689 211.229 121.54 211.33 122.425C211.431 123.309 211.336 124.204 211.053 125.048C210.77 125.891 210.305 126.662 209.691 127.306L194.376 146.154L157.933 154.223Z" fill="#575A89"/>
<path d="M215.806 266.344H209.454L193.699 195.112L177.378 217.117L167.85 264.756H161.816L163.086 213.624L184.365 158.998H205.326C211.054 169.365 215.547 180.051 210.407 191.075L215.806 266.344Z" fill="#2F2E41"/>
<path d="M171.743 270.67C171.814 270.895 171.835 271.132 171.807 271.366C171.778 271.6 171.7 271.825 171.578 272.026C171.455 272.227 171.292 272.4 171.097 272.533C170.903 272.666 170.683 272.756 170.451 272.797L154.908 275.555C154.294 275.668 153.659 275.552 153.125 275.229C152.591 274.906 152.193 274.399 152.007 273.803C151.825 273.233 151.851 272.618 152.078 272.065C152.305 271.513 152.72 271.058 153.25 270.781C156.667 269.026 159.608 266.469 161.821 263.328C163.53 264.919 165.439 264.769 167.466 263.597L169.617 263.866L171.743 270.67Z" fill="#2F2E41"/>
<path d="M218.747 270.67C218.818 270.895 218.839 271.132 218.811 271.366C218.782 271.6 218.704 271.825 218.582 272.026C218.459 272.227 218.296 272.4 218.101 272.533C217.907 272.666 217.687 272.756 217.455 272.797L201.912 275.555C201.298 275.668 200.664 275.552 200.129 275.229C199.595 274.906 199.197 274.399 199.011 273.803C198.83 273.233 198.855 272.618 199.082 272.065C199.309 271.513 199.724 271.058 200.254 270.781C203.671 269.026 206.612 266.469 208.825 263.328C210.534 264.919 212.443 264.769 214.47 263.597L216.621 263.866L218.747 270.67Z" fill="#2F2E41"/>
<path d="M198.815 114.694C193.904 114.694 189.922 110.713 189.922 105.802C189.922 100.89 193.904 96.9089 198.815 96.9089C203.726 96.9089 207.707 100.89 207.707 105.802C207.707 110.713 203.726 114.694 198.815 114.694Z" fill="#FFB8B8"/>
<path d="M206.755 161.38L183.571 160.745L190.379 139.316C186.148 132.533 190.406 125.757 196.433 118.982L201.197 115.806L208.819 115.171C212.119 118.702 213.925 123.373 213.858 128.206C213.707 138.555 211.875 149.82 206.755 161.38Z" fill="#575A89"/>
<path d="M153.489 175.804C153.047 175.363 152.717 174.823 152.525 174.229C152.333 173.635 152.285 173.004 152.385 172.388C152.485 171.771 152.73 171.188 153.099 170.685C153.469 170.182 153.953 169.774 154.511 169.494L164.23 164.632L167.788 168.887L158.727 176.1C157.97 176.703 157.018 177.006 156.052 176.951C155.085 176.897 154.173 176.488 153.489 175.804Z" fill="#FFB8B8"/>
<path d="M165.151 173.448L161.339 164.238L181.981 151.224L190.672 124.347C191.124 122.949 192.068 121.762 193.328 121.006C194.589 120.25 196.08 119.977 197.527 120.236C198.403 120.393 199.233 120.741 199.96 121.255C200.687 121.768 201.292 122.435 201.732 123.208C202.173 123.981 202.439 124.842 202.51 125.729C202.582 126.615 202.457 127.507 202.146 128.341L195.481 151.693L165.151 173.448Z" fill="#575A89"/>
<path d="M213.424 102.308C213.424 105.768 211.177 111.126 208.342 113.423C206.435 114.969 203.915 114.904 202.943 112.788C201.947 110.618 198.511 105.517 192.463 102.308C184.401 98.0299 195.322 90.7112 202.943 91.8272C208.671 92.6658 213.424 96.5195 213.424 102.308Z" fill="#2F2E41"/>
<path d="M208.025 97.5445C204.517 97.5445 201.674 94.7007 201.674 91.1927C201.674 87.6846 204.517 84.8408 208.025 84.8408C211.533 84.8408 214.377 87.6846 214.377 91.1927C214.377 94.7007 211.533 97.5445 208.025 97.5445Z" fill="#2F2E41"/>
<path d="M200.722 88.9693C200.722 87.3679 201.328 85.826 202.418 84.6525C203.507 83.479 205 82.7607 206.597 82.6415C206.439 82.6297 206.282 82.6174 206.121 82.6174C204.436 82.6174 202.82 83.2866 201.629 84.4778C200.438 85.669 199.769 87.2847 199.769 88.9693C199.769 90.6539 200.438 92.2695 201.629 93.4607C202.82 94.6519 204.436 95.3211 206.121 95.3211C206.282 95.3211 206.439 95.3088 206.597 95.297C205 95.1779 203.507 94.4595 202.418 93.286C201.328 92.1126 200.722 90.5706 200.722 88.9693Z" fill="#2F2E41"/>
<path d="M198.656 108.977C197.867 108.977 197.227 108.124 197.227 107.072C197.227 106.019 197.867 105.166 198.656 105.166C199.445 105.166 200.085 106.019 200.085 107.072C200.085 108.124 199.445 108.977 198.656 108.977Z" fill="#FFB8B8"/>
<path d="M18.6885 254.696H117.567L138.505 155.714H156.375V151.272H134.905L113.967 250.254H18.6885V254.696Z" fill="#3F3D56"/>
<path d="M103.077 272.778C97.8208 272.778 93.5596 268.517 93.5596 263.261C93.5596 258.005 97.8208 253.743 103.077 253.743C108.333 253.743 112.595 258.005 112.595 263.261C112.595 268.517 108.333 272.778 103.077 272.778Z" fill="#3F3D56"/>
<path d="M32.013 272.778C26.7566 272.778 22.4955 268.517 22.4955 263.261C22.4955 258.005 26.7566 253.743 32.013 253.743C37.2694 253.743 41.5305 258.005 41.5305 263.261C41.5305 268.517 37.2694 272.778 32.013 272.778Z" fill="#3F3D56"/>
<path d="M20.4919 252.604H116.695L133.669 168.721H4.56268C3.90388 168.721 3.25294 168.864 2.65459 169.139C2.05624 169.415 1.52466 169.817 1.09648 170.317C0.668289 170.818 0.353653 171.406 0.174164 172.039C-0.00531006 172.673 -0.0453949 173.339 0.0567169 173.989L15.9866 248.751C16.1509 249.827 16.6963 250.807 17.5233 251.515C18.3502 252.222 19.4037 252.608 20.4919 252.604ZM115.65 251.335H20.4919C19.7065 251.338 18.9462 251.059 18.3494 250.549C17.7526 250.038 17.3591 249.33 17.2407 248.554L1.31085 173.792C1.23698 173.323 1.26578 172.842 1.39525 172.385C1.5247 171.927 1.7518 171.503 2.06082 171.142C2.36986 170.781 2.75354 170.49 3.18544 170.292C3.61732 170.093 4.08717 169.99 4.56268 169.99H132.129L115.65 251.335Z" fill="#3F3D56"/>
<path d="M97.9927 252.335L109.109 169.458L107.857 169.252L96.7408 252.129L97.9927 252.335Z" fill="#3F3D56"/>
<path d="M36.1828 251.699L37.4357 251.496L26.6443 169.254L25.3913 169.457L36.1828 251.699Z" fill="#3F3D56"/>
<path d="M65.6322 169.355H66.9012V252.232H65.6322V169.355Z" fill="#3F3D56"/>
<path d="M127.186 191.563L127.189 192.832L4.35192 193.129L4.34885 191.86L127.186 191.563Z" fill="#3F3D56"/>
<path d="M13.0174 230.763L120.933 231.501L120.924 232.77L13.0087 232.032L13.0174 230.763Z" fill="#3F3D56"/>
<path d="M154.471 156.666C150.616 156.666 147.491 154.961 147.491 152.859C147.491 150.756 150.616 149.052 154.471 149.052C158.325 149.052 161.45 150.756 161.45 152.859C161.45 154.961 158.325 156.666 154.471 156.666Z" fill="#3F3D56"/>
</g>
<defs>
<clipPath id="clip0">
<rect width="330.249" height="275.598" fill="white" transform="matrix(-1 0 0 1 330.25 0)"/>
</clipPath>
</defs>
</svg>
