<svg width="327" height="254" viewBox="0 0 327 254" fill="none" xmlns="http://www.w3.org/2000/svg">
<g clip-path="url(#clip0)">
<path d="M294.963 115.126C282.459 65.9586 239.255 30.4669 188.543 29.0433C161.733 28.2907 133.522 37.1824 112.982 68.2976C76.2641 123.919 115.238 162.356 142.41 180.62C155.537 189.461 167.365 200.093 177.552 212.206C195.906 233.985 231.214 261.049 273.264 218.644C303.742 187.909 303.291 147.876 294.963 115.126Z" fill="#F2F2F2"/>
<path d="M191.54 158.698V222.844H201.626V164.346H241.969V222.844H252.055V94.5527H241.969C238.627 94.5527 233.497 111.959 233.497 129.45C233.497 142.633 235.037 153.932 237.226 158.698H191.54ZM241.969 158.698H241.871C241.904 158.627 241.937 158.551 241.969 158.476V158.698Z" fill="#3F3D56"/>
<path d="M228.916 62.803H228.916C220.637 62.803 213.926 70.251 213.926 79.4387V91.1116H217.516L219.594 86.7867L219.074 91.1116H242.15L244.04 87.1799L243.567 91.1116H246.165V81.9463C246.165 71.3737 238.442 62.803 228.916 62.803Z" fill="#2F2E41"/>
<path d="M211.74 139.068L202.536 142.98L170.553 168.98C169.377 170.426 168.656 172.187 168.482 174.042C168.252 177.034 158.588 192.68 162.039 194.751C165.491 196.822 177.916 203.034 178.606 198.893C179.296 194.751 182.978 177.034 182.978 177.034L213.811 149.422L211.74 139.068Z" fill="#2F2E41"/>
<path d="M175.615 195.441L171.703 206.946C171.703 206.946 175.845 211.318 173.774 214.999V227.654H170.553L169.632 220.982C169.632 220.982 165.963 227.57 164.11 227.654C160.225 227.831 152.532 229.213 152.302 227.142C152.072 225.071 158.128 223.052 158.128 223.052L164.57 205.335L167.331 194.521L175.615 195.441Z" fill="#2F2E41"/>
<path d="M235.669 136.077C235.669 136.077 237.74 156.325 231.758 160.007C225.775 163.688 199.315 175.423 199.315 175.423C199.315 175.423 210.589 186.007 208.288 188.539C205.987 191.07 195.633 197.972 194.252 196.592C192.872 195.211 177.456 178.644 179.296 173.352C181.137 168.06 206.678 150.803 206.678 150.803L209.669 139.989L210.589 131.245L220.253 125.032L235.669 136.077Z" fill="#2F2E41"/>
<path d="M225.128 88.9338C230.425 88.9338 234.72 84.6392 234.72 79.3415C234.72 74.0439 230.425 69.7493 225.128 69.7493C219.83 69.7493 215.535 74.0439 215.535 79.3415C215.535 84.6392 219.83 88.9338 225.128 88.9338Z" fill="#FFB9B9"/>
<path d="M232.563 83.2703C232.563 83.2703 232.103 92.0138 239.236 94.775C246.369 97.5361 221.519 115.483 221.519 115.483V95.4652C221.519 95.4652 224.74 92.0138 221.519 86.7217L232.563 83.2703Z" fill="#FFB9B9"/>
<path d="M247.864 124.342L246.024 133.316L240.501 164.148C240.501 164.148 245.103 177.264 238.891 177.034C232.678 176.804 235.669 162.768 235.669 162.768L238.891 137.227V127.333L247.864 124.342Z" fill="#FFB9B9"/>
<path d="M208.288 119.97L206.217 128.024L196.783 150.803C196.783 150.803 190.341 161.617 195.633 161.387C200.925 161.157 200.925 150.803 200.925 150.803L211.74 132.395V122.041L208.288 119.97Z" fill="#FFB9B9"/>
<path d="M206.678 187.158L214.271 194.291C214.271 194.291 219.563 193.14 221.634 199.353C223.705 205.565 225.085 209.477 225.085 209.477L222.324 211.088L218.873 206.256C218.873 206.256 216.802 214.999 214.731 215.689C212.66 216.38 202.306 220.982 203.226 215.689L208.288 208.326C208.288 208.326 208.978 200.043 206.908 199.353C204.837 198.662 199.315 191.76 199.315 191.76L206.678 187.158Z" fill="#2F2E41"/>
<path d="M236.034 143.21C236.034 143.21 214.405 135.387 213.025 136.077C211.997 136.531 210.903 136.815 209.784 136.918L209.803 133.776C209.803 133.776 216.936 131.245 220.848 132.856C224.76 134.466 236.724 141.599 236.724 141.599L236.034 143.21Z" fill="#3F3D56"/>
<path d="M222.899 110.882C222.899 110.882 229.112 103.749 230.953 99.3769C232.117 96.7266 234.255 94.6245 236.924 93.5046C236.924 93.5046 250.741 96.6157 250.511 102.138C250.28 107.66 241.767 116.174 241.767 116.174C241.767 116.174 242.917 146.776 236.705 146.316C235.365 144.717 234.419 142.825 233.944 140.794C233.253 137.573 211.855 134.121 211.855 134.121C211.855 134.121 210.014 137.342 209.784 135.962C209.554 134.581 211.625 100.757 211.625 100.757L222.597 93.5046L222.899 110.882Z" fill="#D0CDE1"/>
<path d="M248.738 99.9151L248.892 100.002C249.384 100.278 249.793 100.68 250.078 101.166C250.363 101.653 250.513 102.207 250.513 102.77L250.511 119.846C250.512 120.311 250.615 120.769 250.812 121.189C251.008 121.61 251.294 121.982 251.649 122.282C252.535 123.035 253.357 124.122 251.661 124.687C248.9 125.608 238.085 130.209 237.855 128.599C237.625 126.988 237.165 125.147 237.855 125.147C238.396 125.147 241.616 108.648 244.203 101.593C244.361 101.161 244.611 100.769 244.935 100.443C245.26 100.117 245.651 99.8659 246.083 99.7063C246.514 99.5467 246.975 99.4827 247.433 99.5188C247.892 99.5549 248.337 99.6901 248.738 99.9151Z" fill="#D0CDE1"/>
<path d="M214.731 99.9521L211.51 100.873L207.828 116.749C207.828 116.749 203.456 117.669 204.837 119.28C206.217 120.891 211.97 125.032 211.97 125.032L214.731 99.9521Z" fill="#D0CDE1"/>
<path d="M233.177 67.3857C232.456 66.417 231.521 65.6276 230.445 65.0786C229.369 64.5297 228.182 64.2359 226.974 64.2202H226.68C221.005 64.2202 216.405 69.3548 216.405 75.6886V75.6887H218.307L218.614 73.3515L219.064 75.6887H230.341L231.285 73.7113L231.049 75.6887H233.268C234.303 80.8297 232.815 85.9707 228.805 91.1117H232.584L234.474 87.1571L234.002 91.1117H241.205L242.622 82.0161C242.622 75.2042 238.665 69.4279 233.177 67.3857Z" fill="#2F2E41"/>
<path d="M40.4654 173.519C42.8861 168.249 44.5885 155.756 44.5885 141.18C44.5885 121.841 38.9165 102.595 35.2212 102.595H24.0697V244.443H35.2212V179.764H79.8273V244.443H90.9788V173.519H40.4654ZM35.2212 173.274C35.2573 173.356 35.2932 173.44 35.3296 173.519H35.2212V173.274Z" fill="#3F3D56"/>
<path d="M86.9461 147.642C86.9461 147.642 100.376 153.21 96.1178 156.486C91.8595 159.762 83.0153 152.555 83.3429 151.573C83.6704 150.59 82.0326 148.297 82.0326 148.297L86.9461 147.642Z" fill="#9F616A"/>
<path d="M75.1537 103.748L79.4121 107.679L80.3947 119.144L83.6704 131.264C83.6704 131.264 89.2389 142.728 88.2563 145.021C87.2736 147.314 89.2389 147.969 89.2389 147.969L81.705 150.917C81.705 150.917 73.5159 141.746 73.5159 139.78C73.5159 137.815 75.1537 103.748 75.1537 103.748Z" fill="#575A88"/>
<path opacity="0.1" d="M75.1537 103.748L79.4121 107.679L80.3947 119.144L83.6704 131.264C83.6704 131.264 89.2389 142.728 88.2563 145.021C87.2736 147.314 89.2389 147.969 89.2389 147.969L81.705 150.917C81.705 150.917 73.5159 141.746 73.5159 139.78C73.5159 137.815 75.1537 103.748 75.1537 103.748Z" fill="black"/>
<path d="M115.444 221.671C115.444 221.671 113.806 229.205 113.479 229.86C113.151 230.515 119.702 232.808 119.702 232.808L127.564 227.24C127.564 227.24 124.288 220.033 124.288 218.723L115.444 221.671Z" fill="#575A88"/>
<path d="M72.5332 148.297L74.8262 150.917C74.8262 150.917 122.323 156.814 123.305 165.985C124.288 175.157 131.167 218.395 127.236 219.706C123.305 221.016 113.151 225.929 113.151 223.309C113.151 220.688 106.6 184.656 107.91 178.105C107.91 178.105 51.2417 170.899 49.9314 162.71C48.6212 154.521 51.2417 150.917 51.2417 150.917L72.5332 148.297Z" fill="#2F2E41"/>
<path opacity="0.1" d="M72.5332 148.297L74.8262 150.917C74.8262 150.917 122.323 156.814 123.305 165.985C124.288 175.157 131.167 218.395 127.236 219.706C123.305 221.016 113.151 225.929 113.151 223.309C113.151 220.688 106.6 184.656 107.91 178.105C107.91 178.105 51.2417 170.899 49.9314 162.71C48.6212 154.521 51.2417 150.917 51.2417 150.917L72.5332 148.297Z" fill="black"/>
<path d="M114.789 229.205C114.789 229.205 113.479 226.257 112.823 227.239C112.168 228.222 109.875 239.687 112.168 239.687C114.461 239.687 135.425 244.928 138.373 244.273C141.321 243.618 146.89 244.6 146.235 241.325C145.58 238.049 142.304 237.721 142.304 237.721C142.304 237.721 130.184 230.515 129.529 226.912C128.874 223.309 125.271 225.274 125.271 225.274V227.567C125.271 227.567 118.392 232.808 114.789 229.205Z" fill="#2F2E41"/>
<path d="M52.552 78.8537C52.552 78.8537 54.8449 89.9908 49.9315 90.9735C45.018 91.9562 56.1552 98.5075 56.1552 98.5075L63.3615 102.438L68.6025 97.1972C68.6025 97.1972 63.8529 87.5341 67.4561 80.3277C71.0593 73.1214 52.552 78.8537 52.552 78.8537Z" fill="#9F616A"/>
<path d="M68.6025 97.1972L63.3615 102.438L56.1552 98.5075C56.1552 98.5075 45.018 91.9562 49.9315 90.9735C53.0924 90.3413 53.2693 85.5065 52.9975 82.1392C52.9087 81.0367 52.76 79.94 52.552 78.8537C52.552 78.8537 71.0593 73.1214 67.4561 80.3277C66.9086 81.4405 66.5289 82.6283 66.3293 83.8523C65.2253 90.3282 68.6025 97.1972 68.6025 97.1972Z" fill="#9F616A"/>
<path d="M86.946 231.17V238.704H99.3934L100.376 235.756L99.0658 227.895L86.946 231.17Z" fill="#575A88"/>
<path d="M35.5187 154.848C35.5187 154.848 35.5187 174.174 43.3802 174.83C51.2417 175.485 79.4121 179.088 79.4121 179.088C79.4121 179.088 81.0499 211.189 83.998 221.671C86.946 232.153 84.3255 232.808 86.946 233.463C89.5665 234.118 100.704 231.825 100.376 229.533C100.049 227.24 98.7383 169.261 98.7383 169.261C98.7383 169.261 101.686 156.814 62.3788 150.917L35.5187 154.848Z" fill="#2F2E41"/>
<path d="M87.9287 236.411C87.9287 236.411 85.9634 232.153 85.6358 233.463C85.3082 234.773 81.3775 246.238 85.3082 247.221C89.239 248.203 101.686 253.444 109.875 253.117C118.065 252.789 119.047 252.462 119.047 252.462C119.047 252.462 121.34 249.186 118.392 247.221C115.444 245.255 103.324 233.791 102.669 232.48C102.014 231.17 97.1005 230.187 97.1005 232.48C97.1005 234.773 90.2217 239.359 87.9287 236.411Z" fill="#2F2E41"/>
<path opacity="0.1" d="M67.4561 80.3277C66.9086 81.4405 66.5289 82.6283 66.3293 83.8523C64.698 84.8383 63.6072 84.586 61.5599 84.586C58.5234 84.586 57.2984 80.7044 55.3363 78.6899C55.1823 76.8195 52.552 78.8537 52.552 78.8537C52.552 78.8537 71.0593 73.1214 67.4561 80.3277Z" fill="black"/>
<path d="M60.741 84.4221C66.711 84.4221 71.5506 79.5825 71.5506 73.6125C71.5506 67.6426 66.711 62.803 60.741 62.803C54.7711 62.803 49.9315 67.6426 49.9315 73.6125C49.9315 79.5825 54.7711 84.4221 60.741 84.4221Z" fill="#9F616A"/>
<path d="M79.4121 107.679C79.4121 107.679 77.7742 119.471 76.7916 123.73C75.8089 127.988 74.4986 147.642 73.8435 150.262C73.1884 152.883 69.2576 153.538 61.3961 152.555C60.9026 152.493 60.4062 152.456 59.909 152.444C55.0676 152.29 49.5285 154.101 44.4022 155.523C41.4541 156.342 38.6403 157.03 36.1738 157.141C32.4396 157.311 31.3455 153.171 31.4733 148.69C31.5945 144.52 32.777 140.049 33.8808 138.47C35.8692 135.627 33.9136 110.1 34.6474 101.682V101.678C34.7587 100.394 34.9323 99.5098 35.1911 99.1625C37.1565 96.542 49.9314 89.9908 51.3629 90.2561C52.791 90.5214 64.9993 98.1799 64.9993 98.1799C67.9474 98.1799 67.8524 94.9828 67.8524 94.9828C67.8524 94.9828 69.9127 98.835 73.8435 99.8177C77.7742 100.8 79.4121 107.679 79.4121 107.679Z" fill="#575A88"/>
<path d="M57.5154 150.145C57.5154 150.145 78.6157 150.817 74.9193 153.324C71.223 155.831 54.8449 158.124 54.5173 154.848C54.1897 151.573 57.5154 150.145 57.5154 150.145Z" fill="#9F616A"/>
<path opacity="0.1" d="M59.909 152.444C59.9778 153.702 56.5941 156.535 55.5 158.451C54.894 159.513 50.2034 158.114 44.4022 155.523C39.9505 153.525 35.632 151.242 31.4733 148.69C31.5945 144.52 32.777 140.049 33.8809 138.47C35.8692 135.627 33.9136 110.1 34.6474 101.681V101.678C34.8223 101.589 35.0042 101.515 35.1911 101.455H39.1219C52.552 107.679 37.1565 134.539 37.1565 134.539C37.1565 134.539 57.4654 151.245 59.4308 151.9C59.5597 151.924 59.6767 151.991 59.7633 152.09C59.85 152.188 59.9012 152.313 59.909 152.444Z" fill="black"/>
<path d="M39.1219 99.49H35.1911C35.1911 99.49 31.5879 100.473 28.6399 107.024C25.6918 113.575 14.8822 133.884 24.3815 141.746C33.8809 149.607 54.1898 158.779 55.5 156.486C56.8102 154.193 61.3961 150.59 59.4308 149.935C57.4654 149.28 37.1565 132.574 37.1565 132.574C37.1565 132.574 52.5519 105.714 39.1219 99.49Z" fill="#575A88"/>
<path d="M59.078 68.5828C59.078 68.5828 59.5524 62.0159 65.4045 64.6935C71.2566 67.3711 70.8748 59.9908 69.1063 58.6866C67.3378 57.3824 67.3938 57.0597 60.9258 57.9323C54.4577 58.8049 41.9004 60.2833 45.9607 73.2886C50.0211 86.2939 53.6984 82.9483 53.6984 82.9483C53.6984 82.9483 50.4709 71.2452 53.7411 73.4748L57.0113 75.7045L58.737 75.3389L59.078 68.5828Z" fill="#2F2E41"/>
<path d="M300.55 163.141C300.55 157.229 256.615 152.436 202.417 152.436C148.219 152.436 104.284 157.229 104.284 163.141C104.284 165.433 110.887 167.556 122.126 169.297V242.54H127.479V170.052C145.48 172.373 172.369 173.847 202.417 173.847C232.714 173.847 259.8 172.349 277.801 169.995V242.54H283.154V169.227C294.12 167.499 300.55 165.402 300.55 163.141Z" fill="#3F3D56"/>
<path d="M214.711 163.365C225.747 163.365 234.692 161.165 234.692 158.451C234.692 155.738 225.747 153.538 214.711 153.538C203.676 153.538 194.73 155.738 194.73 158.451C194.73 161.165 203.676 163.365 214.711 163.365Z" fill="#F2F2F2"/>
<path d="M214.711 162.479C223.757 162.479 231.089 160.676 231.089 158.451C231.089 156.227 223.757 154.424 214.711 154.424C205.666 154.424 198.333 156.227 198.333 158.451C198.333 160.676 205.666 162.479 214.711 162.479Z" fill="#D0CDE1"/>
<path d="M140.354 167.296C151.39 167.296 160.336 165.096 160.336 162.382C160.336 159.669 151.39 157.469 140.354 157.469C129.319 157.469 120.373 159.669 120.373 162.382C120.373 165.096 129.319 167.296 140.354 167.296Z" fill="#F2F2F2"/>
<path d="M140.354 166.41C149.4 166.41 156.733 164.606 156.733 162.382C156.733 160.158 149.4 158.355 140.354 158.355C131.309 158.355 123.976 160.158 123.976 162.382C123.976 164.606 131.309 166.41 140.354 166.41Z" fill="#D0CDE1"/>
<path d="M214.246 158.104C219.507 158.104 223.772 157.431 223.772 156.6C223.772 155.77 219.507 155.096 214.246 155.096C208.985 155.096 204.72 155.77 204.72 156.6C204.72 157.431 208.985 158.104 214.246 158.104Z" fill="#9F616A"/>
<path d="M209.17 156.036C210.831 156.036 212.178 155.307 212.178 154.407C212.178 153.507 210.831 152.778 209.17 152.778C207.509 152.778 206.162 153.507 206.162 154.407C206.162 155.307 207.509 156.036 209.17 156.036Z" fill="#3F3D56"/>
<path d="M208.042 156.036C209.703 156.036 211.05 155.307 211.05 154.407C211.05 153.507 209.703 152.778 208.042 152.778C206.381 152.778 205.034 153.507 205.034 154.407C205.034 155.307 206.381 156.036 208.042 156.036Z" fill="#3F3D56"/>
<path d="M221.202 156.412C222.864 156.412 224.21 155.683 224.21 154.783C224.21 153.883 222.864 153.154 221.202 153.154C219.541 153.154 218.194 153.883 218.194 154.783C218.194 155.683 219.541 156.412 221.202 156.412Z" fill="#3F3D56"/>
<path d="M214.309 156.036C215.97 156.036 217.317 155.307 217.317 154.407C217.317 153.507 215.97 152.778 214.309 152.778C212.647 152.778 211.301 153.507 211.301 154.407C211.301 155.307 212.647 156.036 214.309 156.036Z" fill="#3F3D56"/>
<path d="M219.448 156.036C221.109 156.036 222.456 155.307 222.456 154.407C222.456 153.507 221.109 152.778 219.448 152.778C217.786 152.778 216.44 153.507 216.44 154.407C216.44 155.307 217.786 156.036 219.448 156.036Z" fill="#3F3D56"/>
<path d="M223.333 153.404C217.897 155.249 211.797 155.249 205.034 153.404V153.15C205.033 151.232 205.769 149.387 207.09 147.997C208.411 146.606 210.216 145.777 212.132 145.68C213.744 145.599 215.359 145.601 216.971 145.687C218.695 145.787 220.314 146.543 221.497 147.801C222.681 149.058 223.337 150.72 223.333 152.446V153.404Z" fill="#3F3D56"/>
<path d="M220.664 160.311C216.646 160.717 212.598 160.717 208.58 160.311C207.627 160.218 206.743 159.773 206.099 159.065C205.455 158.356 205.098 157.433 205.096 156.475H224.148C224.146 157.433 223.789 158.356 223.145 159.065C222.501 159.773 221.617 160.218 220.664 160.311Z" fill="#3F3D56"/>
<path d="M211.677 148.015C211.24 148.197 210.771 148.29 210.298 148.29C209.825 148.29 209.356 148.197 208.919 148.015C209.356 147.833 209.825 147.739 210.298 147.739C210.771 147.739 211.24 147.833 211.677 148.015Z" fill="#D0CDE1"/>
<path d="M214.434 149.143C213.997 149.325 213.529 149.418 213.055 149.418C212.582 149.418 212.114 149.325 211.677 149.143C212.114 148.961 212.582 148.867 213.055 148.867C213.529 148.867 213.997 148.961 214.434 149.143Z" fill="#D0CDE1"/>
<path d="M214.685 147.137C214.248 147.319 213.779 147.413 213.306 147.413C212.833 147.413 212.364 147.319 211.927 147.137C212.364 146.955 212.833 146.862 213.306 146.862C213.779 146.862 214.248 146.955 214.685 147.137Z" fill="#D0CDE1"/>
<path d="M219.824 147.137C219.387 147.319 218.918 147.413 218.445 147.413C217.972 147.413 217.503 147.319 217.066 147.137C217.503 146.955 217.972 146.862 218.445 146.862C218.918 146.862 219.387 146.955 219.824 147.137Z" fill="#D0CDE1"/>
<path d="M218.445 148.265C218.008 148.448 217.539 148.541 217.066 148.541C216.593 148.541 216.124 148.448 215.688 148.265C216.124 148.083 216.593 147.99 217.066 147.99C217.539 147.99 218.008 148.083 218.445 148.265Z" fill="#D0CDE1"/>
<path d="M140.217 162.035C145.478 162.035 149.743 161.362 149.743 160.531C149.743 159.7 145.478 159.027 140.217 159.027C134.956 159.027 130.691 159.7 130.691 160.531C130.691 161.362 134.956 162.035 140.217 162.035Z" fill="#9F616A"/>
<path d="M135.141 159.967C136.802 159.967 138.149 159.238 138.149 158.338C138.149 157.438 136.802 156.708 135.141 156.708C133.479 156.708 132.133 157.438 132.133 158.338C132.133 159.238 133.479 159.967 135.141 159.967Z" fill="#3F3D56"/>
<path d="M134.013 159.967C135.674 159.967 137.021 159.238 137.021 158.338C137.021 157.438 135.674 156.708 134.013 156.708C132.351 156.708 131.005 157.438 131.005 158.338C131.005 159.238 132.351 159.967 134.013 159.967Z" fill="#3F3D56"/>
<path d="M147.173 160.343C148.835 160.343 150.181 159.614 150.181 158.714C150.181 157.814 148.835 157.084 147.173 157.084C145.512 157.084 144.165 157.814 144.165 158.714C144.165 159.614 145.512 160.343 147.173 160.343Z" fill="#3F3D56"/>
<path d="M140.28 159.967C141.941 159.967 143.288 159.238 143.288 158.338C143.288 157.438 141.941 156.708 140.28 156.708C138.618 156.708 137.272 157.438 137.272 158.338C137.272 159.238 138.618 159.967 140.28 159.967Z" fill="#3F3D56"/>
<path d="M145.418 159.967C147.08 159.967 148.427 159.238 148.427 158.338C148.427 157.438 147.08 156.708 145.418 156.708C143.757 156.708 142.41 157.438 142.41 158.338C142.41 159.238 143.757 159.967 145.418 159.967Z" fill="#3F3D56"/>
<path d="M149.304 157.335C143.867 159.18 137.768 159.18 131.005 157.335V157.081C131.004 155.163 131.74 153.318 133.061 151.928C134.382 150.537 136.187 149.708 138.103 149.611C139.715 149.53 141.33 149.532 142.942 149.618C144.666 149.718 146.285 150.474 147.468 151.732C148.651 152.989 149.308 154.651 149.304 156.377V157.335Z" fill="#3F3D56"/>
<path d="M146.635 164.242C142.617 164.648 138.569 164.648 134.551 164.242C133.598 164.148 132.714 163.704 132.07 162.995C131.426 162.286 131.069 161.363 131.067 160.406H150.119C150.117 161.363 149.76 162.286 149.116 162.995C148.472 163.704 147.588 164.148 146.635 164.242Z" fill="#3F3D56"/>
<path d="M137.648 151.945C137.211 152.127 136.742 152.221 136.269 152.221C135.796 152.221 135.327 152.127 134.89 151.945C135.327 151.763 135.796 151.67 136.269 151.67C136.742 151.67 137.211 151.763 137.648 151.945Z" fill="#D0CDE1"/>
<path d="M140.405 153.074C139.968 153.256 139.5 153.349 139.026 153.349C138.553 153.349 138.084 153.256 137.648 153.074C138.084 152.892 138.553 152.798 139.026 152.798C139.5 152.798 139.968 152.892 140.405 153.074Z" fill="#D0CDE1"/>
<path d="M140.656 151.068C140.219 151.25 139.75 151.344 139.277 151.344C138.804 151.344 138.335 151.25 137.898 151.068C138.335 150.886 138.804 150.792 139.277 150.792C139.75 150.792 140.219 150.886 140.656 151.068Z" fill="#D0CDE1"/>
<path d="M145.795 151.068C145.358 151.25 144.889 151.344 144.416 151.344C143.943 151.344 143.474 151.25 143.037 151.068C143.474 150.886 143.943 150.792 144.416 150.792C144.889 150.792 145.358 150.886 145.795 151.068Z" fill="#D0CDE1"/>
<path d="M144.416 152.196C143.979 152.378 143.51 152.472 143.037 152.472C142.564 152.472 142.095 152.378 141.658 152.196C142.095 152.014 142.564 151.92 143.037 151.92C143.51 151.92 143.979 152.014 144.416 152.196Z" fill="#D0CDE1"/>
<path d="M231.901 157.12L231.947 158.135L232.005 159.451C232.005 159.451 225.961 159.792 224.744 161.079C224.716 161.107 224.69 161.136 224.666 161.168L222.245 160.638L222.239 159.446C222.239 159.446 222.272 159.427 222.337 159.392C222.352 159.384 222.371 159.374 222.389 159.365C225.352 157.914 228.602 157.147 231.901 157.12Z" fill="#3F3D56"/>
<path opacity="0.1" d="M231.901 157.12L231.947 158.135C229.267 158.218 224.194 159.815 224.194 159.815L222.337 159.392C225.313 157.922 228.582 157.146 231.901 157.12Z" fill="black"/>
<path opacity="0.1" d="M222.389 159.365L224.194 159.815L224.744 161.079C224.716 161.106 224.69 161.136 224.666 161.168L222.245 160.638L222.239 159.445C222.239 159.445 222.272 159.427 222.337 159.392C222.352 159.384 222.371 159.374 222.389 159.365Z" fill="white"/>
<path d="M158.854 161.378L158.9 162.393L158.959 163.709C158.959 163.709 152.915 164.051 151.697 165.337C151.669 165.365 151.643 165.395 151.62 165.427L149.199 164.897L149.193 163.704C149.193 163.704 149.226 163.685 149.291 163.65C149.306 163.643 149.324 163.633 149.343 163.623C152.305 162.172 155.556 161.405 158.854 161.378Z" fill="#3F3D56"/>
<path opacity="0.1" d="M158.854 161.378L158.9 162.393C156.22 162.476 151.148 164.074 151.148 164.074L149.291 163.65C152.266 162.181 155.536 161.404 158.854 161.378Z" fill="black"/>
<path opacity="0.1" d="M149.343 163.623L151.148 164.073L151.697 165.337C151.669 165.365 151.643 165.395 151.62 165.426L149.199 164.896L149.193 163.704C149.193 163.704 149.226 163.685 149.291 163.65C149.306 163.643 149.324 163.633 149.343 163.623Z" fill="white"/>
<path d="M268.302 126.729C267.787 126.214 267.182 125.796 266.518 125.496V112.768C266.518 112.619 266.458 112.476 266.353 112.37C266.247 112.265 266.104 112.205 265.955 112.205H262.804C262.655 112.205 262.512 112.265 262.406 112.37C262.301 112.476 262.241 112.619 262.241 112.768V125.252C261.102 125.63 260.111 126.356 259.409 127.329C258.706 128.302 258.328 129.472 258.328 130.672V157.975C258.328 158.303 258.392 158.628 258.518 158.932C258.644 159.236 258.828 159.511 259.06 159.744C259.293 159.976 259.569 160.16 259.872 160.286C260.176 160.412 260.501 160.477 260.83 160.477H267.579C268.239 160.477 268.873 160.214 269.34 159.747C269.807 159.28 270.069 158.647 270.069 157.986V130.993C270.07 130.201 269.915 129.417 269.611 128.685C269.308 127.953 268.863 127.288 268.302 126.729Z" fill="#3F3D56"/>
<path d="M270.069 134.674H258.328V150.184H270.069V134.674Z" fill="#3F3D56"/>
<path d="M266.771 113.075H266.518V112.768C266.518 112.619 266.458 112.476 266.353 112.37C266.247 112.265 266.104 112.205 265.955 112.205H262.804C262.655 112.205 262.512 112.265 262.406 112.37C262.301 112.476 262.241 112.619 262.241 112.768V113.075H261.988V114.38H262.241V121.048H266.518V114.38H266.771V113.075Z" fill="#3F3D56"/>
<path d="M174.288 137.776C173.977 137.113 173.732 136.644 173.646 136.482C168.376 137.783 164.859 136.684 164.305 136.49C164.033 137.002 162.34 140.275 161.656 143.414C161.038 146.245 161.397 148.142 162.722 149.054L162.762 149.082L162.77 149.088C164.234 150.052 165.63 150.907 166.919 151.626C167.093 151.723 167.257 151.813 167.411 151.896L167.427 151.905L167.439 151.92C167.616 152.143 167.781 152.375 167.932 152.616C168.217 153.014 168.39 153.482 168.433 153.97V168.03L168.344 168.032C164.982 168.1 162.901 168.67 162.901 169.159C162.901 169.695 165.397 170.293 168.977 170.293C172.558 170.293 175.053 169.695 175.053 169.159C175.053 168.678 173.007 168.111 169.702 168.035L169.613 168.032L169.696 155.027C169.698 154.146 169.903 153.278 170.295 152.489C170.361 152.356 170.433 152.227 170.508 152.106C170.568 152.008 170.631 151.913 170.697 151.823L170.709 151.806L170.726 151.796C170.892 151.706 171.068 151.608 171.254 151.502L171.276 151.491C172.496 150.801 173.811 149.993 175.184 149.088C176.41 148.28 176.837 146.646 176.453 144.232C176.087 141.931 175.074 139.451 174.288 137.776Z" fill="#D0CDE1"/>
<path d="M174.603 148.793C173.163 149.742 171.974 150.454 171.065 150.967H171.064C169.738 150.876 168.406 150.914 167.087 151.078C166.155 150.558 164.898 149.812 163.351 148.793C163.337 148.783 163.322 148.773 163.307 148.763V148.762C161.889 147.786 161.854 145.719 162.315 143.606C163.489 143.476 165.361 143.533 167.876 144.431C170.855 145.495 173.973 144.893 175.779 144.346C176.076 146.211 175.895 147.941 174.603 148.793Z" fill="#3F3D56"/>
<path d="M166.042 142.841C166.267 142.841 166.45 142.659 166.45 142.434C166.45 142.208 166.267 142.026 166.042 142.026C165.817 142.026 165.634 142.208 165.634 142.434C165.634 142.659 165.817 142.841 166.042 142.841Z" fill="#3F3D56"/>
<path d="M164.901 146.592C165.126 146.592 165.308 146.409 165.308 146.184C165.308 145.959 165.126 145.776 164.901 145.776C164.675 145.776 164.493 145.959 164.493 146.184C164.493 146.409 164.675 146.592 164.901 146.592Z" fill="white"/>
<path d="M167.02 143.657C167.156 143.657 167.265 143.547 167.265 143.412C167.265 143.277 167.156 143.167 167.02 143.167C166.885 143.167 166.776 143.277 166.776 143.412C166.776 143.547 166.885 143.657 167.02 143.657Z" fill="#3F3D56"/>
<path d="M167.999 148.304C168.134 148.304 168.243 148.194 168.243 148.059C168.243 147.924 168.134 147.815 167.999 147.815C167.864 147.815 167.754 147.924 167.754 148.059C167.754 148.194 167.864 148.304 167.999 148.304Z" fill="white"/>
<path d="M166.287 148.549C166.422 148.549 166.531 148.439 166.531 148.304C166.531 148.169 166.422 148.059 166.287 148.059C166.152 148.059 166.042 148.169 166.042 148.304C166.042 148.439 166.152 148.549 166.287 148.549Z" fill="white"/>
<path d="M171.26 140.395C171.395 140.395 171.505 140.286 171.505 140.151C171.505 140.016 171.395 139.906 171.26 139.906C171.125 139.906 171.016 140.016 171.016 140.151C171.016 140.286 171.125 140.395 171.26 140.395Z" fill="#3F3D56"/>
<path d="M193.411 124.521C193.1 123.858 192.855 123.389 192.769 123.227C187.498 124.528 183.982 123.429 183.427 123.234C183.156 123.747 181.463 127.02 180.779 130.159C180.161 132.989 180.519 134.887 181.845 135.799L181.884 135.827L181.893 135.833C183.356 136.797 184.753 137.651 186.042 138.371C186.216 138.468 186.38 138.558 186.533 138.641L186.55 138.65L186.561 138.664C186.738 138.887 186.903 139.12 187.055 139.361C187.34 139.759 187.513 140.227 187.556 140.715V154.775L187.467 154.777C184.105 154.845 182.024 155.415 182.024 155.904C182.024 156.44 184.519 157.037 188.1 157.037C191.68 157.037 194.176 156.44 194.176 155.904C194.176 155.423 192.13 154.856 188.825 154.779L188.736 154.777L188.819 141.771C188.821 140.891 189.026 140.023 189.417 139.234C189.484 139.101 189.556 138.972 189.63 138.851C189.69 138.753 189.754 138.658 189.819 138.568L189.831 138.551L189.849 138.541C190.015 138.451 190.19 138.353 190.376 138.247L190.398 138.235C191.619 137.546 192.934 136.738 194.307 135.833C195.533 135.024 195.96 133.391 195.576 130.977C195.21 128.676 194.196 126.196 193.411 124.521Z" fill="#D0CDE1"/>
<path d="M193.725 135.538C192.286 136.487 191.097 137.199 190.188 137.712H190.187C188.861 137.621 187.529 137.659 186.21 137.823C185.278 137.303 184.021 136.557 182.474 135.538C182.459 135.528 182.445 135.519 182.43 135.508V135.507C181.011 134.531 180.976 132.464 181.438 130.351C182.612 130.221 184.484 130.278 186.999 131.176C189.977 132.24 193.095 131.638 194.902 131.091C195.199 132.956 195.018 134.686 193.725 135.538Z" fill="#3F3D56"/>
<path d="M185.165 129.586C185.39 129.586 185.572 129.404 185.572 129.179C185.572 128.954 185.39 128.771 185.165 128.771C184.939 128.771 184.757 128.954 184.757 129.179C184.757 129.404 184.939 129.586 185.165 129.586Z" fill="#3F3D56"/>
<path d="M184.023 133.337C184.248 133.337 184.431 133.154 184.431 132.929C184.431 132.704 184.248 132.521 184.023 132.521C183.798 132.521 183.615 132.704 183.615 132.929C183.615 133.154 183.798 133.337 184.023 133.337Z" fill="white"/>
<path d="M186.143 130.402C186.278 130.402 186.388 130.292 186.388 130.157C186.388 130.022 186.278 129.912 186.143 129.912C186.008 129.912 185.898 130.022 185.898 130.157C185.898 130.292 186.008 130.402 186.143 130.402Z" fill="#3F3D56"/>
<path d="M187.121 135.049C187.257 135.049 187.366 134.939 187.366 134.804C187.366 134.669 187.257 134.56 187.121 134.56C186.986 134.56 186.877 134.669 186.877 134.804C186.877 134.939 186.986 135.049 187.121 135.049Z" fill="white"/>
<path d="M185.409 135.293C185.544 135.293 185.654 135.184 185.654 135.049C185.654 134.914 185.544 134.804 185.409 134.804C185.274 134.804 185.165 134.914 185.165 135.049C185.165 135.184 185.274 135.293 185.409 135.293Z" fill="white"/>
<path d="M190.383 127.14C190.518 127.14 190.627 127.031 190.627 126.896C190.627 126.761 190.518 126.651 190.383 126.651C190.248 126.651 190.138 126.761 190.138 126.896C190.138 127.031 190.248 127.14 190.383 127.14Z" fill="#3F3D56"/>
</g>
<defs>
<clipPath id="clip0">
<rect width="327" height="253.132" fill="white"/>
</clipPath>
</defs>
</svg>
