<svg width="30" height="40" viewBox="0 0 30 40" fill="none" xmlns="http://www.w3.org/2000/svg">
<path d="M12.5 16.25C12.5 15.9185 12.6317 15.6005 12.8661 15.3661C13.1005 15.1317 13.4185 15 13.75 15H22.5C22.8315 15 23.1495 15.1317 23.3839 15.3661C23.6183 15.6005 23.75 15.9185 23.75 16.25C23.75 16.5815 23.6183 16.8995 23.3839 17.1339C23.1495 17.3683 22.8315 17.5 22.5 17.5H13.75C13.4185 17.5 13.1005 17.3683 12.8661 17.1339C12.6317 16.8995 12.5 16.5815 12.5 16.25ZM12.5 23.75C12.5 23.4185 12.6317 23.1005 12.8661 22.8661C13.1005 22.6317 13.4185 22.5 13.75 22.5H22.5C22.8315 22.5 23.1495 22.6317 23.3839 22.8661C23.6183 23.1005 23.75 23.4185 23.75 23.75C23.75 24.0815 23.6183 24.3995 23.3839 24.6339C23.1495 24.8683 22.8315 25 22.5 25H13.75C13.4185 25 13.1005 24.8683 12.8661 24.6339C12.6317 24.3995 12.5 24.0815 12.5 23.75ZM12.5 31.25C12.5 30.9185 12.6317 30.6005 12.8661 30.3661C13.1005 30.1317 13.4185 30 13.75 30H22.5C22.8315 30 23.1495 30.1317 23.3839 30.3661C23.6183 30.6005 23.75 30.9185 23.75 31.25C23.75 31.5815 23.6183 31.8995 23.3839 32.1339C23.1495 32.3683 22.8315 32.5 22.5 32.5H13.75C13.4185 32.5 13.1005 32.3683 12.8661 32.1339C12.6317 31.8995 12.5 31.5815 12.5 31.25ZM10 16.25C10 16.7473 9.80246 17.2242 9.45083 17.5758C9.09919 17.9275 8.62228 18.125 8.125 18.125C7.62772 18.125 7.15081 17.9275 6.79917 17.5758C6.44754 17.2242 6.25 16.7473 6.25 16.25C6.25 15.7527 6.44754 15.2758 6.79917 14.9242C7.15081 14.5725 7.62772 14.375 8.125 14.375C8.62228 14.375 9.09919 14.5725 9.45083 14.9242C9.80246 15.2758 10 15.7527 10 16.25ZM10 23.75C10 24.2473 9.80246 24.7242 9.45083 25.0758C9.09919 25.4275 8.62228 25.625 8.125 25.625C7.62772 25.625 7.15081 25.4275 6.79917 25.0758C6.44754 24.7242 6.25 24.2473 6.25 23.75C6.25 23.2527 6.44754 22.7758 6.79917 22.4242C7.15081 22.0725 7.62772 21.875 8.125 21.875C8.62228 21.875 9.09919 22.0725 9.45083 22.4242C9.80246 22.7758 10 23.2527 10 23.75ZM8.125 33.125C8.62228 33.125 9.09919 32.9275 9.45083 32.5758C9.80246 32.2242 10 31.7473 10 31.25C10 30.7527 9.80246 30.2758 9.45083 29.9242C9.09919 29.5725 8.62228 29.375 8.125 29.375C7.62772 29.375 7.15081 29.5725 6.79917 29.9242C6.44754 30.2758 6.25 30.7527 6.25 31.25C6.25 31.7473 6.44754 32.2242 6.79917 32.5758C7.15081 32.9275 7.62772 33.125 8.125 33.125ZM7.7125 2.5C7.97111 1.76856 8.4502 1.13532 9.08377 0.687571C9.71734 0.23982 10.4742 -0.0004062 11.25 5.15592e-07H18.75C19.5258 -0.0004062 20.2827 0.23982 20.9162 0.687571C21.5498 1.13532 22.0289 1.76856 22.2875 2.5H26.25C27.2446 2.5 28.1984 2.89509 28.9017 3.59835C29.6049 4.30161 30 5.25544 30 6.25V36.25C30 37.2446 29.6049 38.1984 28.9017 38.9016C28.1984 39.6049 27.2446 40 26.25 40H3.75C2.75544 40 1.80161 39.6049 1.09835 38.9016C0.395088 38.1984 0 37.2446 0 36.25V6.25C0 5.25544 0.395088 4.30161 1.09835 3.59835C1.80161 2.89509 2.75544 2.5 3.75 2.5H7.7125ZM11.25 2.5C10.9185 2.5 10.6005 2.6317 10.3661 2.86612C10.1317 3.10054 10 3.41848 10 3.75C10 4.08152 10.1317 4.39946 10.3661 4.63388C10.6005 4.8683 10.9185 5 11.25 5H18.75C19.0815 5 19.3995 4.8683 19.6339 4.63388C19.8683 4.39946 20 4.08152 20 3.75C20 3.41848 19.8683 3.10054 19.6339 2.86612C19.3995 2.6317 19.0815 2.5 18.75 2.5H11.25ZM7.7125 5H3.75C3.41848 5 3.10054 5.1317 2.86612 5.36612C2.6317 5.60054 2.5 5.91848 2.5 6.25V36.25C2.5 36.5815 2.6317 36.8995 2.86612 37.1339C3.10054 37.3683 3.41848 37.5 3.75 37.5H26.25C26.5815 37.5 26.8995 37.3683 27.1339 37.1339C27.3683 36.8995 27.5 36.5815 27.5 36.25V6.25C27.5 5.91848 27.3683 5.60054 27.1339 5.36612C26.8995 5.1317 26.5815 5 26.25 5H22.2875C22.0289 5.73145 21.5498 6.36468 20.9162 6.81243C20.2827 7.26018 19.5258 7.50041 18.75 7.5H11.25C10.4742 7.50041 9.71734 7.26018 9.08377 6.81243C8.4502 6.36468 7.97111 5.73145 7.7125 5Z" fill="black"/>
</svg>
