<svg width="347" height="218" viewBox="0 0 347 218" fill="none" xmlns="http://www.w3.org/2000/svg">
<g clip-path="url(#clip0)">
<path d="M346.836 89.5347H346.251V73.488C346.251 72.2684 346.01 71.0607 345.544 69.9339C345.077 68.8071 344.393 67.7833 343.53 66.9209C342.668 66.0585 341.644 65.3744 340.517 64.9076C339.391 64.4409 338.183 64.2007 336.963 64.2007H302.966C301.747 64.2007 300.539 64.4409 299.412 64.9076C298.285 65.3744 297.262 66.0585 296.399 66.9209C295.537 67.7833 294.853 68.8071 294.386 69.9339C293.919 71.0607 293.679 72.2684 293.679 73.488V161.521C293.679 162.741 293.919 163.949 294.386 165.075C294.853 166.202 295.537 167.226 296.399 168.088C297.262 168.951 298.285 169.635 299.412 170.102C300.539 170.568 301.747 170.809 302.966 170.809H336.963C338.183 170.809 339.391 170.568 340.517 170.102C341.644 169.635 342.668 168.951 343.53 168.088C344.393 167.226 345.077 166.202 345.544 165.075C346.01 163.949 346.251 162.741 346.251 161.521V100.957H346.836V89.5347Z" fill="black"/>
<path d="M344.274 74.0338V161.939C344.274 163.779 343.543 165.543 342.243 166.844C340.942 168.145 339.177 168.876 337.338 168.876H303.177C302.266 168.876 301.365 168.696 300.523 168.347C299.682 167.999 298.917 167.488 298.274 166.843C297.63 166.199 297.119 165.435 296.771 164.593C296.422 163.752 296.243 162.85 296.244 161.939V74.0338C296.244 72.1949 296.974 70.4313 298.274 69.131C299.575 67.8308 301.338 67.1002 303.177 67.1002H307.322C307.118 67.6005 307.041 68.1431 307.096 68.6803C307.152 69.2175 307.338 69.7328 307.64 70.181C307.941 70.6292 308.348 70.9965 308.824 71.2506C309.301 71.5048 309.832 71.638 310.372 71.6386H329.849C330.39 71.6396 330.922 71.5074 331.4 71.2537C331.877 70.9999 332.285 70.6325 332.586 70.1838C332.888 69.7352 333.074 69.2191 333.129 68.6813C333.184 68.1435 333.105 67.6004 332.9 67.1002H337.338C339.177 67.1001 340.941 67.8305 342.242 69.1307C343.542 70.431 344.274 72.1946 344.274 74.0338Z" fill="white"/>
<path d="M337.807 112.105H298.097V122.821H337.807V112.105Z" fill="#FFB8B8"/>
<path d="M339.383 120.93H300.933C300.683 120.93 300.442 120.83 300.265 120.653C300.088 120.475 299.988 120.235 299.988 119.984V110.53C299.988 110.279 300.088 110.039 300.265 109.861C300.442 109.684 300.683 109.584 300.933 109.584H339.383C339.634 109.584 339.874 109.684 340.051 109.861C340.229 110.039 340.328 110.279 340.329 110.53V119.984C340.328 120.235 340.229 120.475 340.051 120.653C339.874 120.83 339.634 120.93 339.383 120.93ZM300.933 110.214C300.85 110.215 300.77 110.248 300.71 110.307C300.651 110.366 300.618 110.446 300.618 110.53V119.984C300.618 120.068 300.651 120.148 300.71 120.207C300.77 120.266 300.85 120.3 300.933 120.3H339.383C339.467 120.3 339.547 120.266 339.606 120.207C339.665 120.148 339.698 120.068 339.698 119.984V110.53C339.698 110.446 339.665 110.366 339.606 110.307C339.547 110.248 339.467 110.215 339.383 110.214H300.933Z" fill="black"/>
<path d="M307.552 118.094H302.509V118.724H307.552V118.094Z" fill="black"/>
<path d="M314.485 118.094H309.443V118.724H314.485V118.094Z" fill="black"/>
<path d="M321.419 118.094H316.376V118.724H321.419V118.094Z" fill="black"/>
<path d="M328.352 118.094H323.31V118.724H328.352V118.094Z" fill="black"/>
<path d="M335.286 118.094H330.243V118.724H335.286V118.094Z" fill="black"/>
<path opacity="0.1" d="M344.274 153.001V161.939C344.274 163.779 343.543 165.543 342.243 166.844C340.942 168.145 339.177 168.876 337.338 168.876H303.177C302.266 168.876 301.365 168.696 300.523 168.347C299.682 167.999 298.917 167.488 298.274 166.844C297.63 166.199 297.119 165.435 296.771 164.593C296.422 163.752 296.243 162.85 296.244 161.939V120.823L344.274 153.001Z" fill="black"/>
<path d="M180.541 144.882H31.4694V218H180.541V144.882Z" fill="white"/>
<path opacity="0.1" d="M142.643 218H32.0997C31.9327 218 31.7726 217.933 31.6545 217.815C31.5364 217.697 31.4699 217.537 31.4694 217.37V145.513C31.4698 145.346 31.5364 145.186 31.6545 145.067C31.7726 144.949 31.9327 144.883 32.0997 144.882H33.499L142.643 218Z" fill="black"/>
<path d="M331.504 154.652H100.49V155.283H331.504V154.652Z" fill="black"/>
<path d="M173.526 1.36079H107.503V0H77.5654V1.36079H11.27C10.6835 1.36079 10.1028 1.47631 9.56094 1.70075C9.0191 1.92518 8.52677 2.25414 8.11207 2.66885C7.69737 3.08355 7.3684 3.57588 7.14397 4.11772C6.91953 4.65955 6.80402 5.24029 6.80402 5.82677V96.233C6.80401 97.4174 7.27453 98.5534 8.11207 99.3909C8.9496 100.228 10.0855 100.699 11.27 100.699H173.526C174.711 100.699 175.847 100.228 176.684 99.3909C177.522 98.5534 177.992 97.4174 177.992 96.233V5.82677C177.992 5.24029 177.877 4.65955 177.652 4.11772C177.428 3.57588 177.099 3.08355 176.684 2.66885C176.269 2.25414 175.777 1.92518 175.235 1.70075C174.693 1.47631 174.113 1.36079 173.526 1.36079Z" fill="black"/>
<path d="M172.003 9.2522H12.7928V99.0672H172.003V9.2522Z" fill="white"/>
<path d="M92.262 6.804C93.1638 6.804 93.8949 6.0729 93.8949 5.17104C93.8949 4.26919 93.1638 3.53809 92.262 3.53809C91.3601 3.53809 90.629 4.26919 90.629 5.17104C90.629 6.0729 91.3601 6.804 92.262 6.804Z" fill="#FFB8B8"/>
<path d="M60.1492 42.7697H56.3672C56.1166 42.7695 55.8762 42.6698 55.699 42.4925C55.5217 42.3152 55.422 42.0749 55.4218 41.8242V38.0423C55.422 37.7916 55.5217 37.5513 55.699 37.374C55.8762 37.1968 56.1166 37.0971 56.3672 37.0968H60.1492C60.3999 37.0971 60.6402 37.1968 60.8174 37.374C60.9947 37.5513 61.0944 37.7916 61.0947 38.0423V41.8242C61.0944 42.0749 60.9947 42.3152 60.8174 42.4925C60.6402 42.6698 60.3999 42.7695 60.1492 42.7697ZM56.3672 37.7271C56.2837 37.7272 56.2036 37.7605 56.1445 37.8196C56.0854 37.8786 56.0522 37.9587 56.0521 38.0423V41.8242C56.0522 41.9078 56.0854 41.9879 56.1445 42.047C56.2036 42.1061 56.2837 42.1393 56.3672 42.1394H60.1492C60.2327 42.1393 60.3128 42.1061 60.3719 42.047C60.431 41.9879 60.4642 41.9078 60.4644 41.8242V38.0423C60.4642 37.9587 60.431 37.8786 60.3719 37.8196C60.3128 37.7605 60.2327 37.7272 60.1492 37.7271H56.3672Z" fill="black"/>
<path d="M127.594 42.1394H55.7369V42.7697H127.594V42.1394Z" fill="black"/>
<path d="M125.703 59.4733H108.999V64.5159H125.703V59.4733Z" fill="#FFB8B8"/>
<path d="M126.964 63.2552H111.521C111.27 63.2549 111.03 63.1552 110.852 62.978C110.675 62.8007 110.575 62.5604 110.575 62.3097V58.5278C110.575 58.2771 110.675 58.0368 110.852 57.8595C111.03 57.6823 111.27 57.5825 111.521 57.5823H126.964C127.214 57.5825 127.455 57.6823 127.632 57.8595C127.809 58.0368 127.909 58.2771 127.909 58.5278V62.3097C127.909 62.5604 127.809 62.8007 127.632 62.978C127.455 63.1552 127.214 63.2549 126.964 63.2552ZM111.521 58.2126C111.437 58.2127 111.357 58.2459 111.298 58.305C111.239 58.3641 111.206 58.4442 111.205 58.5278V62.3097C111.206 62.3933 111.239 62.4734 111.298 62.5324C111.357 62.5915 111.437 62.6248 111.521 62.6249H126.964C127.047 62.6248 127.127 62.5915 127.186 62.5324C127.245 62.4734 127.279 62.3933 127.279 62.3097V58.5278C127.279 58.4442 127.245 58.3641 127.186 58.305C127.127 58.2459 127.047 58.2127 126.964 58.2126H111.521Z" fill="black"/>
<path d="M253.344 65.1462H221.827V87.2076H253.344V65.1462Z" fill="#FFB8B8"/>
<path d="M256.495 85.4742H226.24C225.906 85.4739 225.585 85.341 225.349 85.1046C225.112 84.8683 224.979 84.5478 224.979 84.2136V63.4129C224.979 63.0786 225.112 62.7582 225.349 62.5219C225.585 62.2855 225.906 62.1526 226.24 62.1522H256.495C256.83 62.1526 257.15 62.2855 257.386 62.5218C257.623 62.7582 257.756 63.0786 257.756 63.4129V84.2136C257.756 84.5478 257.623 84.8683 257.386 85.1046C257.15 85.341 256.83 85.4739 256.495 85.4742ZM226.24 63.4129V84.2136H256.496L256.495 63.4129H226.24Z" fill="black"/>
<path d="M253.029 62.6249H251.768C251.768 59.8665 250.672 57.2212 248.722 55.2707C246.771 53.3203 244.126 52.2245 241.368 52.2245C238.609 52.2245 235.964 53.3203 234.013 55.2707C232.063 57.2212 230.967 59.8665 230.967 62.6249H229.707C229.707 59.5322 230.935 56.5662 233.122 54.3793C235.309 52.1924 238.275 50.9639 241.368 50.9639C244.46 50.9639 247.426 52.1924 249.613 54.3793C251.8 56.5662 253.029 59.5322 253.029 62.6249Z" fill="black"/>
<path d="M244.519 71.2919C244.52 70.7431 244.377 70.2036 244.105 69.7269C243.833 69.2502 243.442 68.8527 242.969 68.5738C242.496 68.2949 241.959 68.1443 241.41 68.1369C240.861 68.1294 240.32 68.2654 239.84 68.5314C239.36 68.7973 238.958 69.184 238.673 69.6532C238.388 70.1224 238.231 70.6578 238.217 71.2064C238.203 71.755 238.332 72.2979 238.592 72.7812C238.852 73.2645 239.233 73.6716 239.699 73.9622V77.3449C239.699 77.564 239.742 77.781 239.826 77.9834C239.91 78.1858 240.033 78.3698 240.188 78.5247C240.343 78.6796 240.527 78.8025 240.729 78.8864C240.931 78.9702 241.148 79.0134 241.368 79.0134C241.81 79.0134 242.234 78.8376 242.547 78.5247C242.86 78.2118 243.036 77.7874 243.036 77.3449V73.9622C243.49 73.6796 243.864 73.2863 244.123 72.8191C244.383 72.3519 244.519 71.8263 244.519 71.2919Z" fill="black"/>
<path d="M94.6594 177.344H89.6168V177.974H94.6594V177.344Z" fill="black"/>
<path d="M101.593 177.344H96.5504V177.974H101.593V177.344Z" fill="black"/>
<path d="M108.527 177.344H103.484V177.974H108.527V177.344Z" fill="black"/>
<path d="M115.46 177.344H110.418V177.974H115.46V177.344Z" fill="black"/>
<path d="M122.394 177.344H117.351V177.974H122.394V177.344Z" fill="black"/>
<path d="M187.16 212.642H39.3485C39.0142 212.642 38.6938 212.509 38.4575 212.273C38.2211 212.036 38.0882 211.716 38.0878 211.382V139.525C38.0882 139.19 38.2211 138.87 38.4575 138.634C38.6938 138.397 39.0142 138.264 39.3485 138.264H187.16C187.494 138.264 187.814 138.397 188.051 138.634C188.287 138.87 188.42 139.19 188.42 139.525V211.382C188.42 211.716 188.287 212.036 188.051 212.273C187.814 212.509 187.494 212.642 187.16 212.642ZM39.3485 139.525V211.382H187.16L187.16 139.525H39.3485Z" fill="black"/>
<path d="M45.9668 150.24C47.0112 150.24 47.8578 149.393 47.8578 148.349C47.8578 147.305 47.0112 146.458 45.9668 146.458C44.9225 146.458 44.0759 147.305 44.0759 148.349C44.0759 149.393 44.9225 150.24 45.9668 150.24Z" fill="black"/>
<path d="M52.5852 150.24C53.6296 150.24 54.4762 149.393 54.4762 148.349C54.4762 147.305 53.6296 146.458 52.5852 146.458C51.5409 146.458 50.6943 147.305 50.6943 148.349C50.6943 149.393 51.5409 150.24 52.5852 150.24Z" fill="black"/>
<path d="M59.2037 150.24C60.248 150.24 61.0946 149.393 61.0946 148.349C61.0946 147.305 60.248 146.458 59.2037 146.458C58.1593 146.458 57.3127 147.305 57.3127 148.349C57.3127 149.393 58.1593 150.24 59.2037 150.24Z" fill="black"/>
<path d="M127.279 181.756H84.7319C84.4812 181.756 84.2409 181.656 84.0636 181.479C83.8864 181.302 83.7867 181.061 83.7864 180.811V170.095C83.7867 169.845 83.8864 169.604 84.0636 169.427C84.2409 169.25 84.4812 169.15 84.7319 169.15H127.279C127.529 169.15 127.77 169.25 127.947 169.427C128.124 169.604 128.224 169.845 128.224 170.095V180.811C128.224 181.061 128.124 181.302 127.947 181.479C127.77 181.656 127.529 181.756 127.279 181.756ZM84.7319 169.78C84.6483 169.78 84.5682 169.813 84.5091 169.873C84.45 169.932 84.4168 170.012 84.4167 170.095V180.811C84.4168 180.894 84.45 180.974 84.5091 181.034C84.5682 181.093 84.6483 181.126 84.7319 181.126H127.279C127.362 181.126 127.442 181.093 127.502 181.034C127.561 180.974 127.594 180.894 127.594 180.811V170.095C127.594 170.012 127.561 169.932 127.502 169.873C127.442 169.813 127.362 169.78 127.279 169.78H84.7319Z" fill="black"/>
<path d="M137.994 182.071C141.127 182.071 143.667 179.532 143.667 176.399C143.667 173.265 141.127 170.726 137.994 170.726C134.861 170.726 132.321 173.265 132.321 176.399C132.321 179.532 134.861 182.071 137.994 182.071Z" fill="#FFB8B8"/>
<path d="M139.885 181.441C138.701 181.441 137.543 181.09 136.558 180.432C135.574 179.774 134.806 178.839 134.353 177.745C133.9 176.65 133.781 175.446 134.012 174.285C134.243 173.123 134.814 172.056 135.651 171.219C136.488 170.381 137.555 169.811 138.717 169.58C139.879 169.349 141.083 169.468 142.177 169.921C143.271 170.374 144.206 171.142 144.864 172.126C145.522 173.111 145.873 174.269 145.873 175.453C145.872 177.041 145.24 178.563 144.117 179.685C142.995 180.808 141.473 181.439 139.885 181.441ZM139.885 170.095C138.826 170.095 137.79 170.41 136.909 170.998C136.028 171.587 135.341 172.424 134.935 173.403C134.53 174.382 134.424 175.459 134.63 176.498C134.837 177.538 135.347 178.492 136.097 179.242C136.846 179.991 137.801 180.501 138.84 180.708C139.879 180.915 140.957 180.809 141.936 180.403C142.915 179.997 143.751 179.311 144.34 178.43C144.929 177.549 145.243 176.513 145.243 175.453C145.241 174.033 144.676 172.671 143.672 171.666C142.668 170.662 141.306 170.097 139.885 170.095Z" fill="black"/>
<path d="M139.969 177.689L136.918 174.638L137.809 173.747L139.801 175.738L145.358 167.841L146.389 168.567L139.969 177.689Z" fill="black"/>
<path opacity="0.1" d="M136.705 99.0672H12.7927V16.0565L136.705 99.0672Z" fill="black"/>
<path d="M182.463 97.433H166.924V96.3135C166.924 96.2844 166.919 96.2555 166.907 96.2286C166.896 96.2016 166.88 96.1772 166.859 96.1566C166.839 96.136 166.814 96.1196 166.787 96.1085C166.76 96.0973 166.732 96.0916 166.702 96.0916H161.375C161.346 96.0916 161.317 96.0973 161.29 96.1085C161.263 96.1196 161.239 96.136 161.218 96.1566C161.197 96.1772 161.181 96.2016 161.17 96.2286C161.159 96.2555 161.153 96.2844 161.153 96.3135V97.433H157.823V96.3135C157.823 96.2844 157.818 96.2555 157.807 96.2286C157.795 96.2016 157.779 96.1772 157.758 96.1566C157.738 96.136 157.713 96.1196 157.686 96.1085C157.66 96.0973 157.631 96.0916 157.601 96.0916H152.274C152.245 96.0916 152.216 96.0973 152.189 96.1085C152.162 96.1196 152.138 96.136 152.117 96.1566C152.097 96.1772 152.08 96.2016 152.069 96.2286C152.058 96.2555 152.052 96.2844 152.052 96.3135V97.433H148.723V96.3135C148.723 96.2844 148.717 96.2555 148.706 96.2286C148.694 96.2016 148.678 96.1772 148.658 96.1566C148.637 96.136 148.612 96.1196 148.585 96.1085C148.559 96.0973 148.53 96.0916 148.501 96.0916H143.173C143.144 96.0916 143.115 96.0973 143.088 96.1085C143.061 96.1196 143.037 96.136 143.016 96.1566C142.996 96.1772 142.979 96.2016 142.968 96.2286C142.957 96.2555 142.951 96.2844 142.951 96.3135V97.433H139.622V96.3135C139.622 96.2844 139.616 96.2555 139.605 96.2286C139.594 96.2016 139.577 96.1772 139.557 96.1566C139.536 96.136 139.511 96.1196 139.485 96.1085C139.458 96.0973 139.429 96.0916 139.4 96.0916H134.072C134.043 96.0916 134.014 96.0973 133.987 96.1085C133.96 96.1196 133.936 96.136 133.915 96.1566C133.895 96.1772 133.878 96.2016 133.867 96.2286C133.856 96.2555 133.85 96.2844 133.85 96.3135V97.433H130.521V96.3135C130.521 96.2844 130.515 96.2555 130.504 96.2286C130.493 96.2016 130.476 96.1772 130.456 96.1566C130.435 96.136 130.411 96.1196 130.384 96.1085C130.357 96.0973 130.328 96.0916 130.299 96.0916H124.971C124.942 96.0916 124.913 96.0973 124.886 96.1085C124.859 96.1196 124.835 96.136 124.814 96.1566C124.794 96.1772 124.777 96.2016 124.766 96.2286C124.755 96.2555 124.749 96.2844 124.749 96.3135V97.433H121.42V96.3135C121.42 96.2844 121.414 96.2555 121.403 96.2286C121.392 96.2016 121.375 96.1772 121.355 96.1566C121.334 96.136 121.31 96.1196 121.283 96.1085C121.256 96.0973 121.227 96.0916 121.198 96.0916H115.87C115.841 96.0916 115.812 96.0973 115.785 96.1085C115.758 96.1196 115.734 96.136 115.713 96.1566C115.693 96.1772 115.676 96.2016 115.665 96.2286C115.654 96.2555 115.648 96.2844 115.648 96.3135V97.433H112.319V96.3135C112.319 96.2844 112.313 96.2555 112.302 96.2286C112.291 96.2016 112.274 96.1772 112.254 96.1566C112.233 96.136 112.209 96.1196 112.182 96.1085C112.155 96.0973 112.126 96.0916 112.097 96.0916H70.3657C70.3366 96.0916 70.3077 96.0973 70.2808 96.1085C70.2538 96.1196 70.2294 96.136 70.2088 96.1566C70.1882 96.1772 70.1718 96.2016 70.1606 96.2286C70.1495 96.2555 70.1437 96.2844 70.1437 96.3135V97.433H66.8141V96.3135C66.8141 96.2844 66.8084 96.2555 66.7972 96.2286C66.7861 96.2016 66.7697 96.1772 66.7491 96.1566C66.7285 96.136 66.704 96.1196 66.6771 96.1085C66.6502 96.0973 66.6213 96.0916 66.5922 96.0916H61.2648C61.2356 96.0916 61.2068 96.0973 61.1799 96.1085C61.1529 96.1196 61.1284 96.136 61.1078 96.1566C61.0872 96.1772 61.0709 96.2016 61.0597 96.2286C61.0486 96.2555 61.0428 96.2844 61.0428 96.3135V97.433H57.7132V96.3135C57.7132 96.2844 57.7075 96.2555 57.6963 96.2286C57.6852 96.2016 57.6688 96.1772 57.6482 96.1566C57.6276 96.136 57.6031 96.1196 57.5762 96.1085C57.5493 96.0973 57.5204 96.0916 57.4912 96.0916H52.1639C52.1347 96.0916 52.1059 96.0973 52.0789 96.1085C52.052 96.1196 52.0275 96.136 52.0069 96.1566C51.9863 96.1772 51.9699 96.2016 51.9588 96.2286C51.9476 96.2555 51.9419 96.2844 51.9419 96.3135V97.433H48.6123V96.3135C48.6123 96.2844 48.6065 96.2555 48.5954 96.2286C48.5842 96.2016 48.5679 96.1772 48.5473 96.1566C48.5267 96.136 48.5022 96.1196 48.4753 96.1085C48.4483 96.0973 48.4195 96.0916 48.3903 96.0916H43.0629C43.0338 96.0916 43.0049 96.0973 42.978 96.1085C42.9511 96.1196 42.9266 96.136 42.906 96.1566C42.8854 96.1772 42.869 96.2016 42.8579 96.2286C42.8467 96.2555 42.841 96.2844 42.841 96.3135V97.433H39.5114V96.3135C39.5114 96.2844 39.5056 96.2555 39.4945 96.2286C39.4833 96.2016 39.467 96.1772 39.4463 96.1566C39.4257 96.136 39.4013 96.1196 39.3743 96.1085C39.3474 96.0973 39.3185 96.0916 39.2894 96.0916H33.962C33.9328 96.0916 33.904 96.0973 33.8771 96.1085C33.8501 96.1196 33.8256 96.136 33.805 96.1566C33.7844 96.1772 33.7681 96.2016 33.7569 96.2286C33.7458 96.2555 33.74 96.2844 33.74 96.3135V97.433H30.4104V96.3135C30.4104 96.2844 30.4047 96.2555 30.3935 96.2286C30.3824 96.2016 30.366 96.1772 30.3454 96.1566C30.3248 96.136 30.3003 96.1196 30.2734 96.1085C30.2465 96.0973 30.2176 96.0916 30.1885 96.0916H24.8611C24.8319 96.0916 24.8031 96.0973 24.7761 96.1085C24.7492 96.1196 24.7247 96.136 24.7041 96.1566C24.6835 96.1772 24.6672 96.2016 24.656 96.2286C24.6448 96.2555 24.6391 96.2844 24.6391 96.3135V97.433H21.3095V96.3135C21.3095 96.2844 21.3038 96.2555 21.2926 96.2286C21.2814 96.2016 21.2651 96.1772 21.2445 96.1566C21.2239 96.136 21.1994 96.1196 21.1725 96.1085C21.1455 96.0973 21.1167 96.0916 21.0875 96.0916H15.7601C15.731 96.0916 15.7021 96.0973 15.6752 96.1085C15.6483 96.1196 15.6238 96.136 15.6032 96.1566C15.5826 96.1772 15.5662 96.2016 15.5551 96.2286C15.5439 96.2555 15.5382 96.2844 15.5382 96.3135V97.433H5.32737C4.62777 97.433 3.93502 97.5708 3.28867 97.8386C2.64233 98.1063 2.05504 98.4987 1.56035 98.9934C1.06566 99.4881 0.673246 100.075 0.405521 100.722C0.137796 101.368 -4.13876e-07 102.061 0 102.76V105.169C3.34345e-06 106.582 0.56128 107.937 1.56036 108.936C2.55943 109.935 3.91447 110.497 5.32737 110.497H182.463C183.162 110.497 183.855 110.359 184.501 110.091C185.148 109.823 185.735 109.431 186.23 108.936C186.724 108.442 187.117 107.854 187.384 107.208C187.652 106.562 187.79 105.869 187.79 105.169V102.76C187.79 102.061 187.652 101.368 187.384 100.722C187.117 100.075 186.724 99.4881 186.23 98.9934C185.735 98.4987 185.148 98.1063 184.501 97.8386C183.855 97.5708 183.162 97.433 182.463 97.433Z" fill="black"/>
<path d="M133.897 68.613H50.6943C50.4436 68.6128 50.2033 68.5131 50.026 68.3358C49.8488 68.1586 49.7491 67.9182 49.7488 67.6676V32.9997C49.7491 32.749 49.8488 32.5087 50.026 32.3314C50.2033 32.1542 50.4436 32.0545 50.6943 32.0542H133.897C134.148 32.0545 134.388 32.1542 134.565 32.3314C134.743 32.5087 134.842 32.749 134.843 32.9997V67.6676C134.842 67.9182 134.743 68.1586 134.565 68.3358C134.388 68.5131 134.148 68.6128 133.897 68.613ZM50.6943 32.6845C50.6107 32.6846 50.5306 32.7179 50.4715 32.777C50.4125 32.836 50.3792 32.9161 50.3791 32.9997V67.6676C50.3792 67.7511 50.4125 67.8312 50.4715 67.8903C50.5306 67.9494 50.6107 67.9826 50.6943 67.9827H133.897C133.981 67.9826 134.061 67.9494 134.12 67.8903C134.179 67.8312 134.212 67.7511 134.212 67.6676V32.9997C134.212 32.9161 134.179 32.836 134.12 32.777C134.061 32.7179 133.981 32.6846 133.897 32.6845H50.6943Z" fill="black"/>
<path d="M60.1492 52.2246H56.3672C56.1166 52.2243 55.8762 52.1246 55.699 51.9473C55.5217 51.7701 55.422 51.5298 55.4218 51.2791V47.4971C55.422 47.2464 55.5217 47.0061 55.699 46.8289C55.8762 46.6516 56.1166 46.5519 56.3672 46.5516H60.1492C60.3999 46.5519 60.6402 46.6516 60.8174 46.8289C60.9947 47.0061 61.0944 47.2464 61.0947 47.4971V51.2791C61.0944 51.5298 60.9947 51.7701 60.8174 51.9473C60.6402 52.1246 60.3999 52.2243 60.1492 52.2246ZM56.3672 47.182C56.2837 47.1821 56.2036 47.2153 56.1445 47.2744C56.0854 47.3335 56.0522 47.4136 56.0521 47.4971V51.2791C56.0522 51.3626 56.0854 51.4427 56.1445 51.5018C56.2036 51.5609 56.2837 51.5941 56.3672 51.5942H60.1492C60.2327 51.5941 60.3128 51.5609 60.3719 51.5018C60.431 51.4427 60.4642 51.3626 60.4644 51.2791V47.4971C60.4642 47.4136 60.431 47.3335 60.3719 47.2744C60.3128 47.2153 60.2327 47.1821 60.1492 47.182H56.3672Z" fill="black"/>
<path d="M127.594 51.5942H55.7369V52.2246H127.594V51.5942Z" fill="black"/>
<path d="M314.485 85.0015H83.4712V85.6318H314.485V85.0015Z" fill="black"/>
<path d="M83.4712 89.4138C85.908 89.4138 87.8834 87.4383 87.8834 85.0015C87.8834 82.5647 85.908 80.5892 83.4712 80.5892C81.0343 80.5892 79.0589 82.5647 79.0589 85.0015C79.0589 87.4383 81.0343 89.4138 83.4712 89.4138Z" fill="black"/>
<path d="M314.485 89.0986C316.4 89.0986 317.952 87.5465 317.952 85.6318C317.952 83.7172 316.4 82.165 314.485 82.165C312.571 82.165 311.018 83.7172 311.018 85.6318C311.018 87.5465 312.571 89.0986 314.485 89.0986Z" fill="black"/>
<path d="M331.504 158.749C333.419 158.749 334.971 157.197 334.971 155.283C334.971 153.368 333.419 151.816 331.504 151.816C329.589 151.816 328.037 153.368 328.037 155.283C328.037 157.197 329.589 158.749 331.504 158.749Z" fill="black"/>
<path d="M101.435 158.749C103.35 158.749 104.902 157.197 104.902 155.283C104.902 153.368 103.35 151.816 101.435 151.816C99.5208 151.816 97.9686 153.368 97.9686 155.283C97.9686 157.197 99.5208 158.749 101.435 158.749Z" fill="black"/>
</g>
<defs>
<clipPath id="clip0">
<rect width="346.836" height="218" fill="white"/>
</clipPath>
</defs>
</svg>
